<svg width="829" height="419" viewBox="0 0 829 419" fill="none" xmlns="http://www.w3.org/2000/svg">
<g filter="url(#filter0_d_16874_18186)">
<rect x="17.3569" y="13" width="794" height="385" rx="20" fill="#2B2B2B"/>
<path d="M41.4899 322.139C41.4899 322.832 41.6416 323.339 41.9449 323.66C42.2483 323.981 42.6296 324.141 43.0889 324.141C43.3143 324.141 43.5266 324.102 43.7259 324.024C43.9253 323.946 44.0943 323.825 44.2329 323.66C44.3803 323.495 44.4929 323.287 44.5709 323.036C44.6576 322.785 44.7009 322.486 44.7009 322.139V320.904C44.7009 320.566 44.6619 320.276 44.5839 320.033C44.5059 319.79 44.3933 319.591 44.2459 319.435C44.1073 319.27 43.9383 319.149 43.7389 319.071C43.5483 318.993 43.3403 318.954 43.1149 318.954C42.8896 318.954 42.6773 318.993 42.4779 319.071C42.2873 319.14 42.1183 319.253 41.9709 319.409C41.8236 319.565 41.7066 319.769 41.6199 320.02C41.5333 320.263 41.4899 320.557 41.4899 320.904V322.139ZM38.9679 320.891C38.9679 320.154 39.0763 319.526 39.2929 319.006C39.5183 318.477 39.8216 318.053 40.2029 317.732C40.5843 317.403 41.0219 317.164 41.5159 317.017C42.0186 316.861 42.5516 316.783 43.1149 316.783C43.6869 316.783 44.2199 316.865 44.7139 317.03C45.2079 317.186 45.6413 317.433 46.0139 317.771C46.3866 318.1 46.6769 318.525 46.8849 319.045C47.1016 319.565 47.2099 320.18 47.2099 320.891V322.126C47.2099 322.854 47.0973 323.478 46.8719 323.998C46.6553 324.518 46.3606 324.947 45.9879 325.285C45.6239 325.614 45.1949 325.857 44.7009 326.013C44.2069 326.169 43.6869 326.247 43.1409 326.247C42.6036 326.247 42.0836 326.173 41.5809 326.026C41.0783 325.879 40.6319 325.64 40.2419 325.311C39.8606 324.982 39.5529 324.557 39.3189 324.037C39.0849 323.517 38.9679 322.884 38.9679 322.139V320.891ZM49.6479 326.104C49.3619 326.104 49.1236 326.048 48.9329 325.935C48.7423 325.814 48.5993 325.666 48.5039 325.493C48.4086 325.32 48.3609 325.133 48.3609 324.934C48.3609 324.726 48.4086 324.535 48.5039 324.362C48.5993 324.189 48.7423 324.046 48.9329 323.933C49.1236 323.812 49.3619 323.751 49.6479 323.751C49.9339 323.751 50.1723 323.812 50.3629 323.933C50.5623 324.046 50.7096 324.189 50.8049 324.362C50.9003 324.535 50.9479 324.726 50.9479 324.934C50.9479 325.133 50.9003 325.32 50.8049 325.493C50.7096 325.666 50.5623 325.814 50.3629 325.935C50.1723 326.048 49.9339 326.104 49.6479 326.104ZM52.1206 324.063H53.5766V319.734L52.1986 320.137V318.122L55.9946 316.744V324.063H57.3466V326H52.1206V324.063Z" fill="white"/>
<path d="M85.8849 353.579L83.5579 356.335H83.1029L80.8279 353.592V359H78.2799V349.9H80.9709L83.3629 352.981L85.7549 349.9H88.4329V359H85.8849V353.579ZM93.371 352.435C93.8477 352.435 94.307 352.5 94.749 352.63C95.191 352.76 95.581 352.964 95.919 353.241C96.257 353.518 96.5257 353.869 96.725 354.294C96.933 354.719 97.037 355.221 97.037 355.802C97.037 356.391 96.9287 356.898 96.712 357.323C96.504 357.739 96.2267 358.086 95.88 358.363C95.5333 358.632 95.139 358.831 94.697 358.961C94.2637 359.091 93.8217 359.156 93.371 359.156C92.9117 359.156 92.461 359.091 92.019 358.961C91.577 358.831 91.1827 358.632 90.836 358.363C90.498 358.086 90.225 357.739 90.017 357.323C89.809 356.898 89.705 356.391 89.705 355.802C89.705 355.204 89.809 354.693 90.017 354.268C90.225 353.843 90.498 353.497 90.836 353.228C91.1827 352.951 91.5727 352.751 92.006 352.63C92.448 352.5 92.903 352.435 93.371 352.435ZM93.371 357.193C93.7783 357.193 94.099 357.059 94.333 356.79C94.5757 356.521 94.697 356.192 94.697 355.802C94.697 355.62 94.6667 355.447 94.606 355.282C94.5453 355.109 94.4587 354.957 94.346 354.827C94.2333 354.697 94.0947 354.593 93.93 354.515C93.7653 354.437 93.579 354.398 93.371 354.398C93.163 354.398 92.9767 354.437 92.812 354.515C92.6473 354.593 92.5087 354.697 92.396 354.827C92.2833 354.957 92.1967 355.109 92.136 355.282C92.0753 355.447 92.045 355.62 92.045 355.802C92.045 356.175 92.1577 356.5 92.383 356.777C92.617 357.054 92.9463 357.193 93.371 357.193ZM102.46 359V355.451C102.46 355.252 102.434 355.087 102.382 354.957C102.33 354.818 102.261 354.706 102.174 354.619C102.087 354.532 101.992 354.472 101.888 354.437C101.784 354.402 101.676 354.385 101.563 354.385C101.277 354.385 101.021 354.485 100.796 354.684C100.571 354.883 100.458 355.195 100.458 355.62V359H98.0921V352.578H100.211L100.315 353.28C100.592 352.959 100.913 352.734 101.277 352.604C101.65 352.474 102.005 352.413 102.343 352.422C102.681 352.422 103.002 352.474 103.305 352.578C103.608 352.673 103.873 352.838 104.098 353.072C104.332 353.306 104.514 353.618 104.644 354.008C104.783 354.389 104.852 354.866 104.852 355.438V359H102.46Z" fill="white"/>
<path d="M198.371 352.019H195.719V349.9H203.597V352.019H200.932V359H198.371V352.019ZM205.954 352.578V356.127C205.954 356.326 205.98 356.495 206.032 356.634C206.084 356.764 206.149 356.872 206.227 356.959C206.313 357.046 206.409 357.106 206.513 357.141C206.625 357.176 206.738 357.193 206.851 357.193C207.137 357.193 207.392 357.102 207.618 356.92C207.843 356.729 207.956 356.422 207.956 355.997V352.578H210.322V359H208.203L208.099 358.298C207.821 358.619 207.496 358.844 207.124 358.974C206.76 359.104 206.409 359.165 206.071 359.156C205.733 359.156 205.412 359.104 205.109 359C204.805 358.905 204.537 358.74 204.303 358.506C204.077 358.272 203.895 357.964 203.757 357.583C203.627 357.193 203.562 356.712 203.562 356.14V352.578H205.954ZM216.134 354.931C216.125 354.766 216.064 354.628 215.952 354.515C215.839 354.394 215.7 354.307 215.536 354.255C215.371 354.194 215.193 354.164 215.003 354.164C214.812 354.155 214.63 354.181 214.457 354.242C214.292 354.294 214.149 354.381 214.028 354.502C213.906 354.615 213.833 354.758 213.807 354.931H216.134ZM214.951 352.422C215.523 352.422 216.043 352.513 216.511 352.695C216.979 352.877 217.364 353.141 217.668 353.488C217.98 353.835 218.192 354.259 218.305 354.762C218.426 355.265 218.417 355.832 218.279 356.465H213.794C213.837 356.612 213.911 356.738 214.015 356.842C214.119 356.937 214.24 357.02 214.379 357.089C214.517 357.158 214.66 357.21 214.808 357.245C214.955 357.271 215.094 357.284 215.224 357.284C215.579 357.284 215.891 357.236 216.16 357.141C216.428 357.046 216.667 356.92 216.875 356.764L218.045 358.077C217.655 358.441 217.208 358.71 216.706 358.883C216.203 359.056 215.674 359.143 215.12 359.143C214.608 359.143 214.127 359.078 213.677 358.948C213.226 358.818 212.827 358.619 212.481 358.35C212.143 358.081 211.874 357.739 211.675 357.323C211.475 356.898 211.376 356.391 211.376 355.802C211.376 355.221 211.48 354.719 211.688 354.294C211.896 353.861 212.169 353.51 212.507 353.241C212.845 352.964 213.226 352.76 213.651 352.63C214.084 352.491 214.517 352.422 214.951 352.422Z" fill="white"/>
<path d="M319.311 358.987H317.218L315.606 354.632L314.046 358.987H311.966L308.573 349.9H311.381L312.551 353.098C312.664 353.445 312.755 353.8 312.824 354.164C312.894 354.519 312.963 354.866 313.032 355.204L314.709 349.9H316.49L318.219 355.204C318.349 354.502 318.518 353.778 318.726 353.033L319.818 349.9H322.626L319.311 358.987ZM327.663 354.931C327.654 354.766 327.593 354.628 327.481 354.515C327.368 354.394 327.229 354.307 327.065 354.255C326.9 354.194 326.722 354.164 326.532 354.164C326.341 354.155 326.159 354.181 325.986 354.242C325.821 354.294 325.678 354.381 325.557 354.502C325.435 354.615 325.362 354.758 325.336 354.931H327.663ZM326.48 352.422C327.052 352.422 327.572 352.513 328.04 352.695C328.508 352.877 328.893 353.141 329.197 353.488C329.509 353.835 329.721 354.259 329.834 354.762C329.955 355.265 329.946 355.832 329.808 356.465H325.323C325.366 356.612 325.44 356.738 325.544 356.842C325.648 356.937 325.769 357.02 325.908 357.089C326.046 357.158 326.189 357.21 326.337 357.245C326.484 357.271 326.623 357.284 326.753 357.284C327.108 357.284 327.42 357.236 327.689 357.141C327.957 357.046 328.196 356.92 328.404 356.764L329.574 358.077C329.184 358.441 328.737 358.71 328.235 358.883C327.732 359.056 327.203 359.143 326.649 359.143C326.137 359.143 325.656 359.078 325.206 358.948C324.755 358.818 324.356 358.619 324.01 358.35C323.672 358.081 323.403 357.739 323.204 357.323C323.004 356.898 322.905 356.391 322.905 355.802C322.905 355.221 323.009 354.719 323.217 354.294C323.425 353.861 323.698 353.51 324.036 353.241C324.374 352.964 324.755 352.76 325.18 352.63C325.613 352.491 326.046 352.422 326.48 352.422ZM335.487 349.9H337.879V359H335.747L335.643 358.311C335.365 358.623 335.032 358.84 334.642 358.961C334.26 359.082 333.888 359.134 333.524 359.117C332.579 359.056 331.851 358.744 331.34 358.181C330.837 357.609 330.586 356.812 330.586 355.789C330.586 355.295 330.659 354.844 330.807 354.437C330.954 354.03 331.162 353.679 331.431 353.384C331.708 353.081 332.037 352.847 332.419 352.682C332.809 352.517 333.238 352.435 333.706 352.435C334.122 352.435 334.477 352.496 334.772 352.617C335.075 352.738 335.313 352.907 335.487 353.124V349.9ZM334.252 354.372C333.888 354.372 333.58 354.498 333.329 354.749C333.086 354.992 332.965 355.338 332.965 355.789C332.965 356.24 333.086 356.586 333.329 356.829C333.58 357.072 333.888 357.193 334.252 357.193C334.451 357.193 334.629 357.154 334.785 357.076C334.949 356.998 335.084 356.898 335.188 356.777C335.3 356.656 335.387 356.517 335.448 356.361C335.508 356.196 335.539 356.027 335.539 355.854C335.539 355.663 335.508 355.477 335.448 355.295C335.396 355.113 335.313 354.957 335.201 354.827C335.097 354.688 334.962 354.58 334.798 354.502C334.642 354.415 334.46 354.372 334.252 354.372Z" fill="white"/>
<path d="M430.704 352.019H428.052V349.9H435.93V352.019H433.265V359H430.704V352.019ZM439.242 349.9V353.267C439.467 352.972 439.71 352.76 439.97 352.63C440.238 352.5 440.568 352.435 440.958 352.435C441.278 352.435 441.59 352.491 441.894 352.604C442.197 352.717 442.466 352.894 442.7 353.137C442.934 353.371 443.12 353.679 443.259 354.06C443.406 354.441 443.48 354.901 443.48 355.438V359H441.101V355.451C441.083 355.087 440.992 354.84 440.828 354.71C440.672 354.571 440.472 354.502 440.23 354.502C439.996 354.502 439.77 354.593 439.554 354.775C439.346 354.948 439.237 355.226 439.229 355.607V359H436.824V349.9H439.242ZM447.11 352.578V356.127C447.11 356.326 447.136 356.495 447.188 356.634C447.24 356.764 447.305 356.872 447.383 356.959C447.47 357.046 447.565 357.106 447.669 357.141C447.782 357.176 447.895 357.193 448.007 357.193C448.293 357.193 448.549 357.102 448.774 356.92C449 356.729 449.112 356.422 449.112 355.997V352.578H451.478V359H449.359L449.255 358.298C448.978 358.619 448.653 358.844 448.28 358.974C447.916 359.104 447.565 359.165 447.227 359.156C446.889 359.156 446.569 359.104 446.265 359C445.962 358.905 445.693 358.74 445.459 358.506C445.234 358.272 445.052 357.964 444.913 357.583C444.783 357.193 444.718 356.712 444.718 356.14V352.578H447.11Z" fill="white"/>
<path d="M542.947 359V349.9H549.928V352.058H545.495V353.761H549.655V355.867H545.495V359H542.947ZM553.199 352.578L553.342 353.28C553.515 352.977 553.74 352.76 554.018 352.63C554.295 352.491 554.59 352.422 554.902 352.422C555.231 352.422 555.543 352.483 555.838 352.604C556.132 352.717 556.384 352.886 556.592 353.111L555.63 354.84C555.43 354.684 555.248 354.58 555.084 354.528C554.928 354.476 554.75 354.45 554.551 354.45C554.247 354.45 553.987 354.545 553.771 354.736C553.554 354.927 553.446 355.234 553.446 355.659V359H551.054V352.578H553.199ZM557.043 350.927C557.043 350.728 557.082 350.554 557.16 350.407C557.238 350.251 557.337 350.125 557.459 350.03C557.589 349.926 557.732 349.848 557.888 349.796C558.052 349.744 558.221 349.718 558.395 349.718C558.559 349.718 558.72 349.744 558.876 349.796C559.04 349.848 559.183 349.926 559.305 350.03C559.435 350.125 559.539 350.251 559.617 350.407C559.695 350.554 559.734 350.728 559.734 350.927C559.734 351.126 559.695 351.3 559.617 351.447C559.539 351.594 559.435 351.72 559.305 351.824C559.183 351.919 559.04 351.993 558.876 352.045C558.72 352.097 558.559 352.123 558.395 352.123C558.221 352.123 558.052 352.097 557.888 352.045C557.732 351.993 557.589 351.919 557.459 351.824C557.337 351.72 557.238 351.594 557.16 351.447C557.082 351.3 557.043 351.126 557.043 350.927ZM557.186 359V352.682H559.591V359H557.186Z" fill="white"/>
<path d="M768.883 352.422C768.571 352.188 768.237 352.028 767.882 351.941C767.527 351.846 767.15 351.798 766.751 351.798C766.595 351.798 766.443 351.811 766.296 351.837C766.149 351.863 766.014 351.902 765.893 351.954C765.78 352.006 765.689 352.075 765.62 352.162C765.551 352.249 765.516 352.353 765.516 352.474C765.516 352.63 765.551 352.756 765.62 352.851C765.698 352.946 765.802 353.024 765.932 353.085C766.062 353.137 766.218 353.176 766.4 353.202C766.591 353.228 766.799 353.254 767.024 353.28C767.475 353.332 767.921 353.419 768.363 353.54C768.805 353.661 769.199 353.839 769.546 354.073C769.893 354.307 770.174 354.606 770.391 354.97C770.608 355.334 770.716 355.776 770.716 356.296C770.716 356.816 770.603 357.262 770.378 357.635C770.153 358.008 769.854 358.315 769.481 358.558C769.117 358.792 768.692 358.965 768.207 359.078C767.73 359.199 767.236 359.26 766.725 359.26C766.318 359.26 765.932 359.238 765.568 359.195C765.213 359.16 764.87 359.087 764.541 358.974C764.22 358.853 763.904 358.688 763.592 358.48C763.28 358.263 762.968 357.99 762.656 357.661L764.073 356.036C764.298 356.253 764.528 356.43 764.762 356.569C764.996 356.699 765.226 356.803 765.451 356.881C765.685 356.95 765.91 356.998 766.127 357.024C766.344 357.05 766.547 357.063 766.738 357.063C767.163 357.063 767.505 356.994 767.765 356.855C768.034 356.708 768.168 356.508 768.168 356.257C768.168 355.798 767.661 355.52 766.647 355.425C766.153 355.382 765.681 355.308 765.23 355.204C764.779 355.1 764.385 354.944 764.047 354.736C763.709 354.519 763.44 354.229 763.241 353.865C763.042 353.501 762.942 353.037 762.942 352.474C762.942 351.997 763.05 351.586 763.267 351.239C763.484 350.884 763.77 350.598 764.125 350.381C764.48 350.156 764.883 349.991 765.334 349.887C765.793 349.774 766.266 349.718 766.751 349.718C767.436 349.718 768.051 349.8 768.597 349.965C769.143 350.13 769.663 350.407 770.157 350.797L768.883 352.422ZM773.968 352.578V356.127C773.968 356.326 773.994 356.495 774.046 356.634C774.098 356.764 774.163 356.872 774.241 356.959C774.327 357.046 774.423 357.106 774.527 357.141C774.639 357.176 774.752 357.193 774.865 357.193C775.151 357.193 775.406 357.102 775.632 356.92C775.857 356.729 775.97 356.422 775.97 355.997V352.578H778.336V359H776.217L776.113 358.298C775.835 358.619 775.51 358.844 775.138 358.974C774.774 359.104 774.423 359.165 774.085 359.156C773.747 359.156 773.426 359.104 773.123 359C772.819 358.905 772.551 358.74 772.317 358.506C772.091 358.272 771.909 357.964 771.771 357.583C771.641 357.193 771.576 356.712 771.576 356.14V352.578H773.968ZM784.109 359V355.451C784.109 355.252 784.083 355.087 784.031 354.957C783.979 354.818 783.909 354.706 783.823 354.619C783.736 354.532 783.641 354.472 783.537 354.437C783.433 354.402 783.324 354.385 783.212 354.385C782.926 354.385 782.67 354.485 782.445 354.684C782.219 354.883 782.107 355.195 782.107 355.62V359H779.741V352.578H781.86L781.964 353.28C782.241 352.959 782.562 352.734 782.926 352.604C783.298 352.474 783.654 352.413 783.992 352.422C784.33 352.422 784.65 352.474 784.954 352.578C785.257 352.673 785.521 352.838 785.747 353.072C785.981 353.306 786.163 353.618 786.293 354.008C786.431 354.389 786.501 354.866 786.501 355.438V359H784.109Z" fill="white"/>
<path d="M656.716 352.422C656.404 352.188 656.071 352.028 655.715 351.941C655.36 351.846 654.983 351.798 654.584 351.798C654.428 351.798 654.277 351.811 654.129 351.837C653.982 351.863 653.848 351.902 653.726 351.954C653.614 352.006 653.523 352.075 653.453 352.162C653.384 352.249 653.349 352.353 653.349 352.474C653.349 352.63 653.384 352.756 653.453 352.851C653.531 352.946 653.635 353.024 653.765 353.085C653.895 353.137 654.051 353.176 654.233 353.202C654.424 353.228 654.632 353.254 654.857 353.28C655.308 353.332 655.754 353.419 656.196 353.54C656.638 353.661 657.033 353.839 657.379 354.073C657.726 354.307 658.008 354.606 658.224 354.97C658.441 355.334 658.549 355.776 658.549 356.296C658.549 356.816 658.437 357.262 658.211 357.635C657.986 358.008 657.687 358.315 657.314 358.558C656.95 358.792 656.526 358.965 656.04 359.078C655.564 359.199 655.07 359.26 654.558 359.26C654.151 359.26 653.765 359.238 653.401 359.195C653.046 359.16 652.704 359.087 652.374 358.974C652.054 358.853 651.737 358.688 651.425 358.48C651.113 358.263 650.801 357.99 650.489 357.661L651.906 356.036C652.132 356.253 652.361 356.43 652.595 356.569C652.829 356.699 653.059 356.803 653.284 356.881C653.518 356.95 653.744 356.998 653.96 357.024C654.177 357.05 654.381 357.063 654.571 357.063C654.996 357.063 655.338 356.994 655.598 356.855C655.867 356.708 656.001 356.508 656.001 356.257C656.001 355.798 655.494 355.52 654.48 355.425C653.986 355.382 653.514 355.308 653.063 355.204C652.613 355.1 652.218 354.944 651.88 354.736C651.542 354.519 651.274 354.229 651.074 353.865C650.875 353.501 650.775 353.037 650.775 352.474C650.775 351.997 650.884 351.586 651.1 351.239C651.317 350.884 651.603 350.598 651.958 350.381C652.314 350.156 652.717 349.991 653.167 349.887C653.627 349.774 654.099 349.718 654.584 349.718C655.269 349.718 655.884 349.8 656.43 349.965C656.976 350.13 657.496 350.407 657.99 350.797L656.716 352.422ZM664.322 352.578H666.571V359H664.361L664.257 358.311C663.979 358.623 663.646 358.84 663.256 358.961C662.874 359.082 662.502 359.134 662.138 359.117C661.67 359.091 661.249 358.991 660.877 358.818C660.513 358.636 660.205 358.402 659.954 358.116C659.711 357.821 659.525 357.479 659.395 357.089C659.265 356.69 659.2 356.257 659.2 355.789C659.2 355.312 659.273 354.87 659.421 354.463C659.568 354.056 659.776 353.705 660.045 353.41C660.322 353.107 660.651 352.868 661.033 352.695C661.423 352.522 661.852 352.435 662.32 352.435C662.779 352.435 663.165 352.509 663.477 352.656C663.789 352.803 664.031 353.007 664.205 353.267L664.322 352.578ZM662.866 354.372C662.502 354.372 662.194 354.498 661.943 354.749C661.7 354.992 661.579 355.338 661.579 355.789C661.579 356.24 661.7 356.586 661.943 356.829C662.194 357.072 662.502 357.193 662.866 357.193C663.065 357.193 663.247 357.158 663.412 357.089C663.576 357.011 663.715 356.907 663.828 356.777C663.949 356.647 664.04 356.5 664.101 356.335C664.161 356.162 664.192 355.98 664.192 355.789C664.192 355.356 664.075 355.013 663.841 354.762C663.615 354.502 663.29 354.372 662.866 354.372ZM670.931 350.758V352.617H672.374V354.45H670.918V356.556C670.927 356.781 670.988 356.942 671.1 357.037C671.222 357.132 671.373 357.18 671.555 357.18C671.677 357.18 671.798 357.163 671.919 357.128C672.049 357.085 672.162 357.028 672.257 356.959L672.777 358.727C672.5 358.883 672.205 358.991 671.893 359.052C671.581 359.121 671.261 359.156 670.931 359.156C670.611 359.156 670.303 359.113 670.008 359.026C669.722 358.948 669.467 358.809 669.241 358.61C669.025 358.411 668.851 358.146 668.721 357.817C668.6 357.479 668.544 357.059 668.552 356.556V354.45H667.525V352.617H668.552V351.018L670.931 350.758Z" fill="white"/>
<path d="M41.4899 272.139C41.4899 272.832 41.6416 273.339 41.9449 273.66C42.2483 273.981 42.6296 274.141 43.0889 274.141C43.3143 274.141 43.5266 274.102 43.7259 274.024C43.9253 273.946 44.0943 273.825 44.2329 273.66C44.3803 273.495 44.4929 273.287 44.5709 273.036C44.6576 272.785 44.7009 272.486 44.7009 272.139V270.904C44.7009 270.566 44.6619 270.276 44.5839 270.033C44.5059 269.79 44.3933 269.591 44.2459 269.435C44.1073 269.27 43.9383 269.149 43.7389 269.071C43.5483 268.993 43.3403 268.954 43.1149 268.954C42.8896 268.954 42.6773 268.993 42.4779 269.071C42.2873 269.14 42.1183 269.253 41.9709 269.409C41.8236 269.565 41.7066 269.769 41.6199 270.02C41.5333 270.263 41.4899 270.557 41.4899 270.904V272.139ZM38.9679 270.891C38.9679 270.154 39.0763 269.526 39.2929 269.006C39.5183 268.477 39.8216 268.053 40.2029 267.732C40.5843 267.403 41.0219 267.164 41.5159 267.017C42.0186 266.861 42.5516 266.783 43.1149 266.783C43.6869 266.783 44.2199 266.865 44.7139 267.03C45.2079 267.186 45.6413 267.433 46.0139 267.771C46.3866 268.1 46.6769 268.525 46.8849 269.045C47.1016 269.565 47.2099 270.18 47.2099 270.891V272.126C47.2099 272.854 47.0973 273.478 46.8719 273.998C46.6553 274.518 46.3606 274.947 45.9879 275.285C45.6239 275.614 45.1949 275.857 44.7009 276.013C44.2069 276.169 43.6869 276.247 43.1409 276.247C42.6036 276.247 42.0836 276.173 41.5809 276.026C41.0783 275.879 40.6319 275.64 40.2419 275.311C39.8606 274.982 39.5529 274.557 39.3189 274.037C39.0849 273.517 38.9679 272.884 38.9679 272.139V270.891ZM49.6479 276.104C49.3619 276.104 49.1236 276.048 48.9329 275.935C48.7423 275.814 48.5993 275.666 48.5039 275.493C48.4086 275.32 48.3609 275.133 48.3609 274.934C48.3609 274.726 48.4086 274.535 48.5039 274.362C48.5993 274.189 48.7423 274.046 48.9329 273.933C49.1236 273.812 49.3619 273.751 49.6479 273.751C49.9339 273.751 50.1723 273.812 50.3629 273.933C50.5623 274.046 50.7096 274.189 50.8049 274.362C50.9003 274.535 50.9479 274.726 50.9479 274.934C50.9479 275.133 50.9003 275.32 50.8049 275.493C50.7096 275.666 50.5623 275.814 50.3629 275.935C50.1723 276.048 49.9339 276.104 49.6479 276.104ZM52.2506 269.773C52.2506 269.244 52.3546 268.789 52.5626 268.408C52.7706 268.027 53.0479 267.715 53.3946 267.472C53.7499 267.229 54.1572 267.052 54.6166 266.939C55.0759 266.826 55.5612 266.77 56.0726 266.77C56.5839 266.77 57.0649 266.831 57.5156 266.952C57.9749 267.065 58.3779 267.242 58.7246 267.485C59.0712 267.719 59.3442 268.018 59.5436 268.382C59.7429 268.737 59.8426 269.158 59.8426 269.643C59.8426 270.206 59.7472 270.683 59.5566 271.073C59.3659 271.454 59.0972 271.762 58.7506 271.996C58.4126 272.23 58.0096 272.399 57.5416 272.503C57.0822 272.607 56.5796 272.659 56.0336 272.659C55.8776 272.659 55.7129 272.672 55.5396 272.698C55.3662 272.715 55.2059 272.763 55.0586 272.841C54.9112 272.919 54.7899 273.036 54.6946 273.192C54.5992 273.348 54.5516 273.556 54.5516 273.816H59.7776V276H52.0946V273.881C52.0946 273.205 52.2116 272.655 52.4456 272.23C52.6796 271.805 52.9829 271.476 53.3556 271.242C53.7369 271.008 54.1616 270.848 54.6296 270.761C55.0976 270.674 55.5656 270.631 56.0336 270.631C56.1636 270.631 56.3022 270.618 56.4496 270.592C56.5969 270.557 56.7312 270.505 56.8526 270.436C56.9826 270.367 57.0909 270.271 57.1776 270.15C57.2642 270.02 57.3076 269.864 57.3076 269.682C57.3076 269.526 57.2729 269.392 57.2036 269.279C57.1342 269.166 57.0389 269.075 56.9176 269.006C56.8049 268.937 56.6749 268.889 56.5276 268.863C56.3802 268.828 56.2286 268.811 56.0726 268.811C55.6912 268.811 55.3836 268.885 55.1496 269.032C54.9242 269.179 54.7942 269.426 54.7596 269.773H52.2506Z" fill="white"/>
<path d="M41.4899 222.139C41.4899 222.832 41.6416 223.339 41.9449 223.66C42.2483 223.981 42.6296 224.141 43.0889 224.141C43.3143 224.141 43.5266 224.102 43.7259 224.024C43.9253 223.946 44.0943 223.825 44.2329 223.66C44.3803 223.495 44.4929 223.287 44.5709 223.036C44.6576 222.785 44.7009 222.486 44.7009 222.139V220.904C44.7009 220.566 44.6619 220.276 44.5839 220.033C44.5059 219.79 44.3933 219.591 44.2459 219.435C44.1073 219.27 43.9383 219.149 43.7389 219.071C43.5483 218.993 43.3403 218.954 43.1149 218.954C42.8896 218.954 42.6773 218.993 42.4779 219.071C42.2873 219.14 42.1183 219.253 41.9709 219.409C41.8236 219.565 41.7066 219.769 41.6199 220.02C41.5333 220.263 41.4899 220.557 41.4899 220.904V222.139ZM38.9679 220.891C38.9679 220.154 39.0763 219.526 39.2929 219.006C39.5183 218.477 39.8216 218.053 40.2029 217.732C40.5843 217.403 41.0219 217.164 41.5159 217.017C42.0186 216.861 42.5516 216.783 43.1149 216.783C43.6869 216.783 44.2199 216.865 44.7139 217.03C45.2079 217.186 45.6413 217.433 46.0139 217.771C46.3866 218.1 46.6769 218.525 46.8849 219.045C47.1016 219.565 47.2099 220.18 47.2099 220.891V222.126C47.2099 222.854 47.0973 223.478 46.8719 223.998C46.6553 224.518 46.3606 224.947 45.9879 225.285C45.6239 225.614 45.1949 225.857 44.7009 226.013C44.2069 226.169 43.6869 226.247 43.1409 226.247C42.6036 226.247 42.0836 226.173 41.5809 226.026C41.0783 225.879 40.6319 225.64 40.2419 225.311C39.8606 224.982 39.5529 224.557 39.3189 224.037C39.0849 223.517 38.9679 222.884 38.9679 222.139V220.891ZM49.6479 226.104C49.3619 226.104 49.1236 226.048 48.9329 225.935C48.7423 225.814 48.5993 225.666 48.5039 225.493C48.4086 225.32 48.3609 225.133 48.3609 224.934C48.3609 224.726 48.4086 224.535 48.5039 224.362C48.5993 224.189 48.7423 224.046 48.9329 223.933C49.1236 223.812 49.3619 223.751 49.6479 223.751C49.9339 223.751 50.1723 223.812 50.3629 223.933C50.5623 224.046 50.7096 224.189 50.8049 224.362C50.9003 224.535 50.9479 224.726 50.9479 224.934C50.9479 225.133 50.9003 225.32 50.8049 225.493C50.7096 225.666 50.5623 225.814 50.3629 225.935C50.1723 226.048 49.9339 226.104 49.6479 226.104ZM54.4086 222.269V220.449H55.9426C56.0726 220.449 56.2069 220.44 56.3456 220.423C56.4929 220.406 56.6272 220.371 56.7486 220.319C56.8786 220.258 56.9869 220.18 57.0736 220.085C57.1602 219.981 57.2079 219.851 57.2166 219.695C57.2166 219.47 57.1039 219.275 56.8786 219.11C56.6532 218.945 56.3412 218.863 55.9426 218.863C55.7692 218.863 55.6046 218.88 55.4486 218.915C55.2926 218.95 55.1496 219.002 55.0196 219.071C54.8982 219.14 54.7986 219.231 54.7206 219.344C54.6426 219.457 54.6036 219.595 54.6036 219.76H52.1336C52.1422 219.205 52.2592 218.737 52.4846 218.356C52.7186 217.966 53.0132 217.654 53.3686 217.42C53.7326 217.177 54.1399 217.004 54.5906 216.9C55.0412 216.796 55.4919 216.744 55.9426 216.744C56.3846 216.744 56.8309 216.796 57.2816 216.9C57.7409 216.995 58.1526 217.156 58.5166 217.381C58.8892 217.606 59.1926 217.901 59.4266 218.265C59.6692 218.629 59.7906 219.071 59.7906 219.591C59.7906 219.938 59.6822 220.276 59.4656 220.605C59.2576 220.934 58.9629 221.181 58.5816 221.346C59.1102 221.545 59.4786 221.827 59.6866 222.191C59.8946 222.546 59.9986 222.932 59.9986 223.348C59.9986 223.885 59.8686 224.336 59.6086 224.7C59.3486 225.055 59.0192 225.341 58.6206 225.558C58.2306 225.775 57.7929 225.931 57.3076 226.026C56.8309 226.121 56.3716 226.169 55.9296 226.169C55.4702 226.169 55.0066 226.113 54.5386 226C54.0706 225.887 53.6459 225.71 53.2646 225.467C52.8919 225.216 52.5886 224.891 52.3546 224.492C52.1206 224.085 52.0036 223.586 52.0036 222.997H54.5256C54.5256 223.205 54.5689 223.378 54.6556 223.517C54.7509 223.656 54.8679 223.768 55.0066 223.855C55.1539 223.933 55.3186 223.994 55.5006 224.037C55.6826 224.072 55.8689 224.089 56.0596 224.089C56.2156 224.089 56.3672 224.072 56.5146 224.037C56.6706 223.994 56.8049 223.937 56.9176 223.868C57.0389 223.79 57.1342 223.695 57.2036 223.582C57.2816 223.469 57.3206 223.339 57.3206 223.192C57.3206 223.131 57.3119 223.049 57.2946 222.945C57.2772 222.841 57.2252 222.741 57.1386 222.646C57.0519 222.542 56.9219 222.455 56.7486 222.386C56.5839 222.308 56.3542 222.269 56.0596 222.269H54.4086Z" fill="white"/>
<path d="M41.4899 172.139C41.4899 172.832 41.6416 173.339 41.9449 173.66C42.2483 173.981 42.6296 174.141 43.0889 174.141C43.3143 174.141 43.5266 174.102 43.7259 174.024C43.9253 173.946 44.0943 173.825 44.2329 173.66C44.3803 173.495 44.4929 173.287 44.5709 173.036C44.6576 172.785 44.7009 172.486 44.7009 172.139V170.904C44.7009 170.566 44.6619 170.276 44.5839 170.033C44.5059 169.79 44.3933 169.591 44.2459 169.435C44.1073 169.27 43.9383 169.149 43.7389 169.071C43.5483 168.993 43.3403 168.954 43.1149 168.954C42.8896 168.954 42.6773 168.993 42.4779 169.071C42.2873 169.14 42.1183 169.253 41.9709 169.409C41.8236 169.565 41.7066 169.769 41.6199 170.02C41.5333 170.263 41.4899 170.557 41.4899 170.904V172.139ZM38.9679 170.891C38.9679 170.154 39.0763 169.526 39.2929 169.006C39.5183 168.477 39.8216 168.053 40.2029 167.732C40.5843 167.403 41.0219 167.164 41.5159 167.017C42.0186 166.861 42.5516 166.783 43.1149 166.783C43.6869 166.783 44.2199 166.865 44.7139 167.03C45.2079 167.186 45.6413 167.433 46.0139 167.771C46.3866 168.1 46.6769 168.525 46.8849 169.045C47.1016 169.565 47.2099 170.18 47.2099 170.891V172.126C47.2099 172.854 47.0973 173.478 46.8719 173.998C46.6553 174.518 46.3606 174.947 45.9879 175.285C45.6239 175.614 45.1949 175.857 44.7009 176.013C44.2069 176.169 43.6869 176.247 43.1409 176.247C42.6036 176.247 42.0836 176.173 41.5809 176.026C41.0783 175.879 40.6319 175.64 40.2419 175.311C39.8606 174.982 39.5529 174.557 39.3189 174.037C39.0849 173.517 38.9679 172.884 38.9679 172.139V170.891ZM49.6479 176.104C49.3619 176.104 49.1236 176.048 48.9329 175.935C48.7423 175.814 48.5993 175.666 48.5039 175.493C48.4086 175.32 48.3609 175.133 48.3609 174.934C48.3609 174.726 48.4086 174.535 48.5039 174.362C48.5993 174.189 48.7423 174.046 48.9329 173.933C49.1236 173.812 49.3619 173.751 49.6479 173.751C49.9339 173.751 50.1723 173.812 50.3629 173.933C50.5623 174.046 50.7096 174.189 50.8049 174.362C50.9003 174.535 50.9479 174.726 50.9479 174.934C50.9479 175.133 50.9003 175.32 50.8049 175.493C50.7096 175.666 50.5623 175.814 50.3629 175.935C50.1723 176.048 49.9339 176.104 49.6479 176.104ZM58.9716 166.9V172.399H59.9466V174.427H58.9716V176H56.5536V174.427H51.9126L51.7436 172.295L56.5926 166.9H58.9716ZM56.5536 172.399V170.02L54.3956 172.399H56.5536Z" fill="white"/>
<path d="M41.4899 122.139C41.4899 122.832 41.6416 123.339 41.9449 123.66C42.2483 123.981 42.6296 124.141 43.0889 124.141C43.3143 124.141 43.5266 124.102 43.7259 124.024C43.9253 123.946 44.0943 123.825 44.2329 123.66C44.3803 123.495 44.4929 123.287 44.5709 123.036C44.6576 122.785 44.7009 122.486 44.7009 122.139V120.904C44.7009 120.566 44.6619 120.276 44.5839 120.033C44.5059 119.79 44.3933 119.591 44.2459 119.435C44.1073 119.27 43.9383 119.149 43.7389 119.071C43.5483 118.993 43.3403 118.954 43.1149 118.954C42.8896 118.954 42.6773 118.993 42.4779 119.071C42.2873 119.14 42.1183 119.253 41.9709 119.409C41.8236 119.565 41.7066 119.769 41.6199 120.02C41.5333 120.263 41.4899 120.557 41.4899 120.904V122.139ZM38.9679 120.891C38.9679 120.154 39.0763 119.526 39.2929 119.006C39.5183 118.477 39.8216 118.053 40.2029 117.732C40.5843 117.403 41.0219 117.164 41.5159 117.017C42.0186 116.861 42.5516 116.783 43.1149 116.783C43.6869 116.783 44.2199 116.865 44.7139 117.03C45.2079 117.186 45.6413 117.433 46.0139 117.771C46.3866 118.1 46.6769 118.525 46.8849 119.045C47.1016 119.565 47.2099 120.18 47.2099 120.891V122.126C47.2099 122.854 47.0973 123.478 46.8719 123.998C46.6553 124.518 46.3606 124.947 45.9879 125.285C45.6239 125.614 45.1949 125.857 44.7009 126.013C44.2069 126.169 43.6869 126.247 43.1409 126.247C42.6036 126.247 42.0836 126.173 41.5809 126.026C41.0783 125.879 40.6319 125.64 40.2419 125.311C39.8606 124.982 39.5529 124.557 39.3189 124.037C39.0849 123.517 38.9679 122.884 38.9679 122.139V120.891ZM49.6479 126.104C49.3619 126.104 49.1236 126.048 48.9329 125.935C48.7423 125.814 48.5993 125.666 48.5039 125.493C48.4086 125.32 48.3609 125.133 48.3609 124.934C48.3609 124.726 48.4086 124.535 48.5039 124.362C48.5993 124.189 48.7423 124.046 48.9329 123.933C49.1236 123.812 49.3619 123.751 49.6479 123.751C49.9339 123.751 50.1723 123.812 50.3629 123.933C50.5623 124.046 50.7096 124.189 50.8049 124.362C50.9003 124.535 50.9479 124.726 50.9479 124.934C50.9479 125.133 50.9003 125.32 50.8049 125.493C50.7096 125.666 50.5623 125.814 50.3629 125.935C50.1723 126.048 49.9339 126.104 49.6479 126.104ZM59.1796 119.006H54.6426V120.085H55.8646C56.3672 120.085 56.8482 120.128 57.3076 120.215C57.7669 120.293 58.1699 120.445 58.5166 120.67C58.8719 120.887 59.1492 121.19 59.3486 121.58C59.5566 121.97 59.6606 122.473 59.6606 123.088C59.6606 123.651 59.5436 124.124 59.3096 124.505C59.0842 124.886 58.7896 125.198 58.4256 125.441C58.0702 125.684 57.6672 125.857 57.2166 125.961C56.7746 126.065 56.3412 126.117 55.9166 126.117C55.3706 126.117 54.8636 126.061 54.3956 125.948C53.9362 125.835 53.5376 125.658 53.1996 125.415C52.8616 125.164 52.5929 124.839 52.3936 124.44C52.2029 124.041 52.1076 123.556 52.1076 122.984H54.6166C54.6166 123.175 54.6556 123.339 54.7336 123.478C54.8116 123.608 54.9112 123.716 55.0326 123.803C55.1626 123.89 55.3012 123.955 55.4486 123.998C55.5959 124.033 55.7432 124.05 55.8906 124.05C55.9859 124.05 56.1029 124.037 56.2416 124.011C56.3889 123.985 56.5276 123.937 56.6576 123.868C56.7962 123.799 56.9132 123.703 57.0086 123.582C57.1039 123.452 57.1516 123.287 57.1516 123.088C57.1516 122.871 57.1082 122.698 57.0216 122.568C56.9349 122.429 56.8222 122.33 56.6836 122.269C56.5536 122.2 56.4106 122.156 56.2546 122.139C56.1072 122.113 55.9772 122.1 55.8646 122.1H52.2636V116.913H59.1796V119.006Z" fill="white"/>
<path d="M41.4899 72.139C41.4899 72.8323 41.6416 73.3393 41.9449 73.66C42.2483 73.9807 42.6296 74.141 43.0889 74.141C43.3143 74.141 43.5266 74.102 43.7259 74.024C43.9253 73.946 44.0943 73.8247 44.2329 73.66C44.3803 73.4953 44.4929 73.2873 44.5709 73.036C44.6576 72.7847 44.7009 72.4857 44.7009 72.139V70.904C44.7009 70.566 44.6619 70.2757 44.5839 70.033C44.5059 69.7903 44.3933 69.591 44.2459 69.435C44.1073 69.2703 43.9383 69.149 43.7389 69.071C43.5483 68.993 43.3403 68.954 43.1149 68.954C42.8896 68.954 42.6773 68.993 42.4779 69.071C42.2873 69.1403 42.1183 69.253 41.9709 69.409C41.8236 69.565 41.7066 69.7687 41.6199 70.02C41.5333 70.2627 41.4899 70.5573 41.4899 70.904V72.139ZM38.9679 70.891C38.9679 70.1543 39.0763 69.526 39.2929 69.006C39.5183 68.4773 39.8216 68.0527 40.2029 67.732C40.5843 67.4027 41.0219 67.1643 41.5159 67.017C42.0186 66.861 42.5516 66.783 43.1149 66.783C43.6869 66.783 44.2199 66.8653 44.7139 67.03C45.2079 67.186 45.6413 67.433 46.0139 67.771C46.3866 68.1003 46.6769 68.525 46.8849 69.045C47.1016 69.565 47.2099 70.1803 47.2099 70.891V72.126C47.2099 72.854 47.0973 73.478 46.8719 73.998C46.6553 74.518 46.3606 74.947 45.9879 75.285C45.6239 75.6143 45.1949 75.857 44.7009 76.013C44.2069 76.169 43.6869 76.247 43.1409 76.247C42.6036 76.247 42.0836 76.1733 41.5809 76.026C41.0783 75.8787 40.6319 75.6403 40.2419 75.311C39.8606 74.9817 39.5529 74.557 39.3189 74.037C39.0849 73.517 38.9679 72.8843 38.9679 72.139V70.891ZM49.6479 76.104C49.3619 76.104 49.1236 76.0477 48.9329 75.935C48.7423 75.8137 48.5993 75.6663 48.5039 75.493C48.4086 75.3197 48.3609 75.1333 48.3609 74.934C48.3609 74.726 48.4086 74.5353 48.5039 74.362C48.5993 74.1887 48.7423 74.0457 48.9329 73.933C49.1236 73.8117 49.3619 73.751 49.6479 73.751C49.9339 73.751 50.1723 73.8117 50.3629 73.933C50.5623 74.0457 50.7096 74.1887 50.8049 74.362C50.9003 74.5353 50.9479 74.726 50.9479 74.934C50.9479 75.1333 50.9003 75.3197 50.8049 75.493C50.7096 75.6663 50.5623 75.8137 50.3629 75.935C50.1723 76.0477 49.9339 76.104 49.6479 76.104ZM57.5156 69.539C57.4896 69.2617 57.3466 69.0623 57.0866 68.941C56.8266 68.811 56.5146 68.746 56.1506 68.746C55.9686 68.746 55.7909 68.772 55.6176 68.824C55.4529 68.8673 55.3012 68.9367 55.1626 69.032C55.0326 69.1187 54.9242 69.2313 54.8376 69.37C54.7596 69.5087 54.7206 69.6647 54.7206 69.838V70.696C54.9806 70.4967 55.3056 70.345 55.6956 70.241C56.0856 70.1283 56.4626 70.072 56.8266 70.072C57.3032 70.072 57.7452 70.137 58.1526 70.267C58.5686 70.3883 58.9239 70.5747 59.2186 70.826C59.5219 71.0773 59.7559 71.3893 59.9206 71.762C60.0939 72.126 60.1806 72.5463 60.1806 73.023C60.1806 73.5863 60.0679 74.0673 59.8426 74.466C59.6172 74.856 59.3182 75.1767 58.9456 75.428C58.5729 75.6793 58.1482 75.8657 57.6716 75.987C57.2036 76.0997 56.7182 76.156 56.2156 76.156C55.7216 76.156 55.2362 76.0997 54.7596 75.987C54.2829 75.8657 53.8539 75.6793 53.4726 75.428C53.0912 75.168 52.7836 74.8387 52.5496 74.44C52.3156 74.0413 52.1986 73.5603 52.1986 72.997V69.838C52.1986 69.3007 52.3069 68.837 52.5236 68.447C52.7489 68.057 53.0436 67.7363 53.4076 67.485C53.7802 67.2337 54.2006 67.0473 54.6686 66.926C55.1452 66.8047 55.6349 66.744 56.1376 66.744C56.6489 66.744 57.1342 66.7917 57.5936 66.887C58.0616 66.9823 58.4689 67.1383 58.8156 67.355C59.1709 67.5717 59.4526 67.8577 59.6606 68.213C59.8686 68.5683 59.9726 69.0103 59.9726 69.539H57.5156ZM56.2156 74.05C56.6056 74.05 56.9349 73.9633 57.2036 73.79C57.4809 73.608 57.6196 73.3523 57.6196 73.023C57.6196 72.6677 57.4939 72.3947 57.2426 72.204C56.9912 72.0133 56.6532 71.918 56.2286 71.918C55.7259 71.918 55.3532 72.0263 55.1106 72.243C54.8679 72.451 54.7466 72.7067 54.7466 73.01C54.7466 73.2787 54.8679 73.5213 55.1106 73.738C55.3619 73.946 55.7302 74.05 56.2156 74.05Z" fill="white"/>
<path d="M117.357 323C122.357 303.667 144.157 263.9 191.357 259.5C250.357 254 294.857 270 317.857 242C340.857 214 381.357 197.5 414.357 196C447.357 194.5 602.857 229.5 646.857 229.5C687.357 229.5 756.357 212 776.857 83.5" stroke="#218D00" stroke-width="4" stroke-linecap="round"/>
<circle cx="402.357" cy="197" r="5.5" fill="#0E750E" stroke="#41F50C"/>
<path d="M77.3569 273.5H785.357" stroke="#777777" stroke-opacity="0.19"/>
<path d="M77.3569 326H785.357" stroke="#777777" stroke-opacity="0.19"/>
<path d="M77.3569 226H785.357" stroke="#777777" stroke-opacity="0.19"/>
<path d="M77.3569 176H785.357" stroke="#777777" stroke-opacity="0.19"/>
<path d="M77.3569 126H785.357" stroke="#777777" stroke-opacity="0.19"/>
<path d="M77.3569 76H785.357" stroke="#777777" stroke-opacity="0.19"/>
<g filter="url(#filter1_d_16874_18186)">
<rect x="311.857" y="96" width="181" height="83" rx="20" fill="#2B2B2B"/>
<rect x="312.357" y="96.5" width="180" height="82" rx="19.5" stroke="#41F50C"/>
</g>
<path d="M341.027 122.99H339.417L338.177 119.64L336.977 122.99H335.377L332.767 116H334.927L335.827 118.46C335.914 118.727 335.984 119 336.037 119.28C336.09 119.553 336.144 119.82 336.197 120.08L337.487 116H338.857L340.187 120.08C340.287 119.54 340.417 118.983 340.577 118.41L341.417 116H343.577L341.027 122.99ZM347.451 119.87C347.444 119.743 347.398 119.637 347.311 119.55C347.224 119.457 347.118 119.39 346.991 119.35C346.864 119.303 346.728 119.28 346.581 119.28C346.434 119.273 346.294 119.293 346.161 119.34C346.034 119.38 345.924 119.447 345.831 119.54C345.738 119.627 345.681 119.737 345.661 119.87H347.451ZM346.541 117.94C346.981 117.94 347.381 118.01 347.741 118.15C348.101 118.29 348.398 118.493 348.631 118.76C348.871 119.027 349.034 119.353 349.121 119.74C349.214 120.127 349.208 120.563 349.101 121.05H345.651C345.684 121.163 345.741 121.26 345.821 121.34C345.901 121.413 345.994 121.477 346.101 121.53C346.208 121.583 346.318 121.623 346.431 121.65C346.544 121.67 346.651 121.68 346.751 121.68C347.024 121.68 347.264 121.643 347.471 121.57C347.678 121.497 347.861 121.4 348.021 121.28L348.921 122.29C348.621 122.57 348.278 122.777 347.891 122.91C347.504 123.043 347.098 123.11 346.671 123.11C346.278 123.11 345.908 123.06 345.561 122.96C345.214 122.86 344.908 122.707 344.641 122.5C344.381 122.293 344.174 122.03 344.021 121.71C343.868 121.383 343.791 120.993 343.791 120.54C343.791 120.093 343.871 119.707 344.031 119.38C344.191 119.047 344.401 118.777 344.661 118.57C344.921 118.357 345.214 118.2 345.541 118.1C345.874 117.993 346.208 117.94 346.541 117.94ZM353.469 116H355.309V123H353.669L353.589 122.47C353.376 122.71 353.119 122.877 352.819 122.97C352.526 123.063 352.239 123.103 351.959 123.09C351.233 123.043 350.673 122.803 350.279 122.37C349.893 121.93 349.699 121.317 349.699 120.53C349.699 120.15 349.756 119.803 349.869 119.49C349.983 119.177 350.143 118.907 350.349 118.68C350.563 118.447 350.816 118.267 351.109 118.14C351.409 118.013 351.739 117.95 352.099 117.95C352.419 117.95 352.693 117.997 352.919 118.09C353.153 118.183 353.336 118.313 353.469 118.48V116ZM352.519 119.44C352.239 119.44 352.003 119.537 351.809 119.73C351.623 119.917 351.529 120.183 351.529 120.53C351.529 120.877 351.623 121.143 351.809 121.33C352.003 121.517 352.239 121.61 352.519 121.61C352.673 121.61 352.809 121.58 352.929 121.52C353.056 121.46 353.159 121.383 353.239 121.29C353.326 121.197 353.393 121.09 353.439 120.97C353.486 120.843 353.509 120.713 353.509 120.58C353.509 120.433 353.486 120.29 353.439 120.15C353.399 120.01 353.336 119.89 353.249 119.79C353.169 119.683 353.066 119.6 352.939 119.54C352.819 119.473 352.679 119.44 352.519 119.44ZM358.591 121.51H359.711V118.18L358.651 118.49V116.94L361.571 115.88V121.51H362.611V123H358.591V121.51ZM368.757 117.62H365.267V118.45H366.207C366.594 118.45 366.964 118.483 367.317 118.55C367.671 118.61 367.981 118.727 368.247 118.9C368.521 119.067 368.734 119.3 368.887 119.6C369.047 119.9 369.127 120.287 369.127 120.76C369.127 121.193 369.037 121.557 368.857 121.85C368.684 122.143 368.457 122.383 368.177 122.57C367.904 122.757 367.594 122.89 367.247 122.97C366.907 123.05 366.574 123.09 366.247 123.09C365.827 123.09 365.437 123.047 365.077 122.96C364.724 122.873 364.417 122.737 364.157 122.55C363.897 122.357 363.691 122.107 363.537 121.8C363.391 121.493 363.317 121.12 363.317 120.68H365.247C365.247 120.827 365.277 120.953 365.337 121.06C365.397 121.16 365.474 121.243 365.567 121.31C365.667 121.377 365.774 121.427 365.887 121.46C366.001 121.487 366.114 121.5 366.227 121.5C366.301 121.5 366.391 121.49 366.497 121.47C366.611 121.45 366.717 121.413 366.817 121.36C366.924 121.307 367.014 121.233 367.087 121.14C367.161 121.04 367.197 120.913 367.197 120.76C367.197 120.593 367.164 120.46 367.097 120.36C367.031 120.253 366.944 120.177 366.837 120.13C366.737 120.077 366.627 120.043 366.507 120.03C366.394 120.01 366.294 120 366.207 120H363.437V116.01H368.757V117.62ZM375.473 116C376.093 116 376.63 116.09 377.083 116.27C377.543 116.45 377.923 116.697 378.223 117.01C378.53 117.317 378.757 117.68 378.903 118.1C379.057 118.52 379.133 118.97 379.133 119.45C379.133 119.93 379.06 120.387 378.913 120.82C378.767 121.247 378.543 121.623 378.243 121.95C377.943 122.27 377.563 122.527 377.103 122.72C376.643 122.907 376.1 123 375.473 123H372.473V116H375.473ZM374.433 121.33H375.473C375.787 121.33 376.05 121.277 376.263 121.17C376.483 121.063 376.66 120.92 376.793 120.74C376.927 120.56 377.023 120.357 377.083 120.13C377.143 119.903 377.173 119.67 377.173 119.43C377.173 119.19 377.14 118.963 377.073 118.75C377.013 118.53 376.913 118.34 376.773 118.18C376.64 118.02 376.463 117.893 376.243 117.8C376.03 117.7 375.773 117.65 375.473 117.65H374.433V121.33ZM383.408 119.87C383.401 119.743 383.355 119.637 383.268 119.55C383.181 119.457 383.075 119.39 382.948 119.35C382.821 119.303 382.685 119.28 382.538 119.28C382.391 119.273 382.251 119.293 382.118 119.34C381.991 119.38 381.881 119.447 381.788 119.54C381.695 119.627 381.638 119.737 381.618 119.87H383.408ZM382.498 117.94C382.938 117.94 383.338 118.01 383.698 118.15C384.058 118.29 384.355 118.493 384.588 118.76C384.828 119.027 384.991 119.353 385.078 119.74C385.171 120.127 385.165 120.563 385.058 121.05H381.608C381.641 121.163 381.698 121.26 381.778 121.34C381.858 121.413 381.951 121.477 382.058 121.53C382.165 121.583 382.275 121.623 382.388 121.65C382.501 121.67 382.608 121.68 382.708 121.68C382.981 121.68 383.221 121.643 383.428 121.57C383.635 121.497 383.818 121.4 383.978 121.28L384.878 122.29C384.578 122.57 384.235 122.777 383.848 122.91C383.461 123.043 383.055 123.11 382.628 123.11C382.235 123.11 381.865 123.06 381.518 122.96C381.171 122.86 380.865 122.707 380.598 122.5C380.338 122.293 380.131 122.03 379.978 121.71C379.825 121.383 379.748 120.993 379.748 120.54C379.748 120.093 379.828 119.707 379.988 119.38C380.148 119.047 380.358 118.777 380.618 118.57C380.878 118.357 381.171 118.2 381.498 118.1C381.831 117.993 382.165 117.94 382.498 117.94ZM390.486 122.26C390.186 122.527 389.863 122.733 389.516 122.88C389.176 123.027 388.82 123.1 388.446 123.1C388.086 123.1 387.736 123.053 387.396 122.96C387.063 122.867 386.766 122.72 386.506 122.52C386.246 122.313 386.036 122.047 385.876 121.72C385.723 121.393 385.646 121 385.646 120.54C385.646 120.093 385.723 119.707 385.876 119.38C386.036 119.053 386.246 118.783 386.506 118.57C386.766 118.357 387.063 118.2 387.396 118.1C387.73 118 388.07 117.95 388.416 117.95C388.776 117.95 389.123 118.013 389.456 118.14C389.796 118.267 390.096 118.46 390.356 118.72L389.376 119.78C389.143 119.54 388.86 119.42 388.526 119.42C388.173 119.42 387.903 119.53 387.716 119.75C387.536 119.97 387.446 120.237 387.446 120.55C387.446 120.683 387.47 120.813 387.516 120.94C387.563 121.06 387.63 121.167 387.716 121.26C387.81 121.353 387.923 121.43 388.056 121.49C388.19 121.543 388.343 121.57 388.516 121.57C388.69 121.57 388.853 121.537 389.006 121.47C389.166 121.397 389.31 121.293 389.436 121.16L390.486 122.26ZM393.408 118.21C393.408 117.803 393.488 117.453 393.648 117.16C393.808 116.867 394.021 116.627 394.288 116.44C394.561 116.253 394.874 116.117 395.228 116.03C395.581 115.943 395.954 115.9 396.348 115.9C396.741 115.9 397.111 115.947 397.458 116.04C397.811 116.127 398.121 116.263 398.388 116.45C398.654 116.63 398.864 116.86 399.018 117.14C399.171 117.413 399.248 117.737 399.248 118.11C399.248 118.543 399.174 118.91 399.028 119.21C398.881 119.503 398.674 119.74 398.408 119.92C398.148 120.1 397.838 120.23 397.478 120.31C397.124 120.39 396.738 120.43 396.318 120.43C396.198 120.43 396.071 120.44 395.938 120.46C395.804 120.473 395.681 120.51 395.568 120.57C395.454 120.63 395.361 120.72 395.288 120.84C395.214 120.96 395.178 121.12 395.178 121.32H399.198V123H393.288V121.37C393.288 120.85 393.378 120.427 393.558 120.1C393.738 119.773 393.971 119.52 394.258 119.34C394.551 119.16 394.878 119.037 395.238 118.97C395.598 118.903 395.958 118.87 396.318 118.87C396.418 118.87 396.524 118.86 396.638 118.84C396.751 118.813 396.854 118.773 396.948 118.72C397.048 118.667 397.131 118.593 397.198 118.5C397.264 118.4 397.298 118.28 397.298 118.14C397.298 118.02 397.271 117.917 397.218 117.83C397.164 117.743 397.091 117.673 396.998 117.62C396.911 117.567 396.811 117.53 396.698 117.51C396.584 117.483 396.468 117.47 396.348 117.47C396.054 117.47 395.818 117.527 395.638 117.64C395.464 117.753 395.364 117.943 395.338 118.21H393.408ZM402.142 120.03C402.142 120.563 402.259 120.953 402.492 121.2C402.725 121.447 403.019 121.57 403.372 121.57C403.545 121.57 403.709 121.54 403.862 121.48C404.015 121.42 404.145 121.327 404.252 121.2C404.365 121.073 404.452 120.913 404.512 120.72C404.579 120.527 404.612 120.297 404.612 120.03V119.08C404.612 118.82 404.582 118.597 404.522 118.41C404.462 118.223 404.375 118.07 404.262 117.95C404.155 117.823 404.025 117.73 403.872 117.67C403.725 117.61 403.565 117.58 403.392 117.58C403.219 117.58 403.055 117.61 402.902 117.67C402.755 117.723 402.625 117.81 402.512 117.93C402.399 118.05 402.309 118.207 402.242 118.4C402.175 118.587 402.142 118.813 402.142 119.08V120.03ZM400.202 119.07C400.202 118.503 400.285 118.02 400.452 117.62C400.625 117.213 400.859 116.887 401.152 116.64C401.445 116.387 401.782 116.203 402.162 116.09C402.549 115.97 402.959 115.91 403.392 115.91C403.832 115.91 404.242 115.973 404.622 116.1C405.002 116.22 405.335 116.41 405.622 116.67C405.909 116.923 406.132 117.25 406.292 117.65C406.459 118.05 406.542 118.523 406.542 119.07V120.02C406.542 120.58 406.455 121.06 406.282 121.46C406.115 121.86 405.889 122.19 405.602 122.45C405.322 122.703 404.992 122.89 404.612 123.01C404.232 123.13 403.832 123.19 403.412 123.19C402.999 123.19 402.599 123.133 402.212 123.02C401.825 122.907 401.482 122.723 401.182 122.47C400.889 122.217 400.652 121.89 400.472 121.49C400.292 121.09 400.202 120.603 400.202 120.03V119.07ZM407.587 118.21C407.587 117.803 407.667 117.453 407.827 117.16C407.987 116.867 408.201 116.627 408.467 116.44C408.741 116.253 409.054 116.117 409.407 116.03C409.761 115.943 410.134 115.9 410.527 115.9C410.921 115.9 411.291 115.947 411.637 116.04C411.991 116.127 412.301 116.263 412.567 116.45C412.834 116.63 413.044 116.86 413.197 117.14C413.351 117.413 413.427 117.737 413.427 118.11C413.427 118.543 413.354 118.91 413.207 119.21C413.061 119.503 412.854 119.74 412.587 119.92C412.327 120.1 412.017 120.23 411.657 120.31C411.304 120.39 410.917 120.43 410.497 120.43C410.377 120.43 410.251 120.44 410.117 120.46C409.984 120.473 409.861 120.51 409.747 120.57C409.634 120.63 409.541 120.72 409.467 120.84C409.394 120.96 409.357 121.12 409.357 121.32H413.377V123H407.467V121.37C407.467 120.85 407.557 120.427 407.737 120.1C407.917 119.773 408.151 119.52 408.437 119.34C408.731 119.16 409.057 119.037 409.417 118.97C409.777 118.903 410.137 118.87 410.497 118.87C410.597 118.87 410.704 118.86 410.817 118.84C410.931 118.813 411.034 118.773 411.127 118.72C411.227 118.667 411.311 118.593 411.377 118.5C411.444 118.4 411.477 118.28 411.477 118.14C411.477 118.02 411.451 117.917 411.397 117.83C411.344 117.743 411.271 117.673 411.177 117.62C411.091 117.567 410.991 117.53 410.877 117.51C410.764 117.483 410.647 117.47 410.527 117.47C410.234 117.47 409.997 117.527 409.817 117.64C409.644 117.753 409.544 117.943 409.517 118.21H407.587ZM414.392 121.51H415.512V118.18L414.452 118.49V116.94L417.372 115.88V121.51H418.412V123H414.392V121.51ZM420.948 122.39C420.948 122.723 420.755 123.287 420.368 124.08H419.408L419.618 123.05C419.405 123.01 419.261 122.927 419.188 122.8C419.121 122.667 419.088 122.527 419.088 122.38C419.088 122.247 419.115 122.13 419.168 122.03C419.221 121.93 419.291 121.847 419.378 121.78C419.471 121.707 419.575 121.653 419.688 121.62C419.808 121.587 419.931 121.57 420.058 121.57C420.171 121.57 420.281 121.587 420.388 121.62C420.495 121.653 420.588 121.707 420.668 121.78C420.755 121.847 420.821 121.93 420.868 122.03C420.921 122.13 420.948 122.25 420.948 122.39ZM424.247 118.21C424.247 117.803 424.327 117.453 424.487 117.16C424.647 116.867 424.861 116.627 425.127 116.44C425.401 116.253 425.714 116.117 426.067 116.03C426.421 115.943 426.794 115.9 427.187 115.9C427.581 115.9 427.951 115.947 428.297 116.04C428.651 116.127 428.961 116.263 429.227 116.45C429.494 116.63 429.704 116.86 429.857 117.14C430.011 117.413 430.087 117.737 430.087 118.11C430.087 118.543 430.014 118.91 429.867 119.21C429.721 119.503 429.514 119.74 429.247 119.92C428.987 120.1 428.677 120.23 428.317 120.31C427.964 120.39 427.577 120.43 427.157 120.43C427.037 120.43 426.911 120.44 426.777 120.46C426.644 120.473 426.521 120.51 426.407 120.57C426.294 120.63 426.201 120.72 426.127 120.84C426.054 120.96 426.017 121.12 426.017 121.32H430.037V123H424.127V121.37C424.127 120.85 424.217 120.427 424.397 120.1C424.577 119.773 424.811 119.52 425.097 119.34C425.391 119.16 425.717 119.037 426.077 118.97C426.437 118.903 426.797 118.87 427.157 118.87C427.257 118.87 427.364 118.86 427.477 118.84C427.591 118.813 427.694 118.773 427.787 118.72C427.887 118.667 427.971 118.593 428.037 118.5C428.104 118.4 428.137 118.28 428.137 118.14C428.137 118.02 428.111 117.917 428.057 117.83C428.004 117.743 427.931 117.673 427.837 117.62C427.751 117.567 427.651 117.53 427.537 117.51C427.424 117.483 427.307 117.47 427.187 117.47C426.894 117.47 426.657 117.527 426.477 117.64C426.304 117.753 426.204 117.943 426.177 118.21H424.247ZM431.152 118.21C431.152 117.803 431.232 117.453 431.392 117.16C431.552 116.867 431.765 116.627 432.032 116.44C432.305 116.253 432.618 116.117 432.972 116.03C433.325 115.943 433.698 115.9 434.092 115.9C434.485 115.9 434.855 115.947 435.202 116.04C435.555 116.127 435.865 116.263 436.132 116.45C436.398 116.63 436.608 116.86 436.762 117.14C436.915 117.413 436.992 117.737 436.992 118.11C436.992 118.543 436.918 118.91 436.772 119.21C436.625 119.503 436.418 119.74 436.152 119.92C435.892 120.1 435.582 120.23 435.222 120.31C434.868 120.39 434.482 120.43 434.062 120.43C433.942 120.43 433.815 120.44 433.682 120.46C433.548 120.473 433.425 120.51 433.312 120.57C433.198 120.63 433.105 120.72 433.032 120.84C432.958 120.96 432.922 121.12 432.922 121.32H436.942V123H431.032V121.37C431.032 120.85 431.122 120.427 431.302 120.1C431.482 119.773 431.715 119.52 432.002 119.34C432.295 119.16 432.622 119.037 432.982 118.97C433.342 118.903 433.702 118.87 434.062 118.87C434.162 118.87 434.268 118.86 434.382 118.84C434.495 118.813 434.598 118.773 434.692 118.72C434.792 118.667 434.875 118.593 434.942 118.5C435.008 118.4 435.042 118.28 435.042 118.14C435.042 118.02 435.015 117.917 434.962 117.83C434.908 117.743 434.835 117.673 434.742 117.62C434.655 117.567 434.555 117.53 434.442 117.51C434.328 117.483 434.212 117.47 434.092 117.47C433.798 117.47 433.562 117.527 433.382 117.64C433.208 117.753 433.108 117.943 433.082 118.21H431.152ZM438.046 122.17C438.046 122.023 438.073 121.897 438.126 121.79C438.186 121.677 438.263 121.583 438.356 121.51C438.449 121.43 438.553 121.373 438.666 121.34C438.786 121.3 438.909 121.28 439.036 121.28C439.163 121.28 439.286 121.3 439.406 121.34C439.526 121.373 439.633 121.43 439.726 121.51C439.819 121.583 439.896 121.677 439.956 121.79C440.016 121.897 440.046 122.023 440.046 122.17C440.046 122.317 440.016 122.447 439.956 122.56C439.896 122.667 439.819 122.76 439.726 122.84C439.633 122.913 439.526 122.967 439.406 123C439.286 123.04 439.163 123.06 439.036 123.06C438.909 123.06 438.786 123.04 438.666 123C438.553 122.967 438.449 122.913 438.356 122.84C438.263 122.76 438.186 122.667 438.126 122.56C438.073 122.447 438.046 122.317 438.046 122.17ZM438.046 119.46C438.046 119.313 438.073 119.187 438.126 119.08C438.186 118.967 438.263 118.873 438.356 118.8C438.449 118.727 438.553 118.673 438.666 118.64C438.786 118.6 438.909 118.58 439.036 118.58C439.163 118.58 439.286 118.6 439.406 118.64C439.526 118.673 439.633 118.727 439.726 118.8C439.819 118.873 439.896 118.967 439.956 119.08C440.016 119.187 440.046 119.313 440.046 119.46C440.046 119.613 440.016 119.747 439.956 119.86C439.896 119.967 439.819 120.057 439.726 120.13C439.633 120.203 439.526 120.26 439.406 120.3C439.286 120.333 439.163 120.35 439.036 120.35C438.909 120.35 438.786 120.333 438.666 120.3C438.553 120.26 438.449 120.203 438.356 120.13C438.263 120.057 438.186 119.967 438.126 119.86C438.073 119.747 438.046 119.613 438.046 119.46ZM441.201 118.21C441.201 117.803 441.281 117.453 441.441 117.16C441.601 116.867 441.814 116.627 442.081 116.44C442.354 116.253 442.667 116.117 443.021 116.03C443.374 115.943 443.747 115.9 444.141 115.9C444.534 115.9 444.904 115.947 445.251 116.04C445.604 116.127 445.914 116.263 446.181 116.45C446.447 116.63 446.657 116.86 446.811 117.14C446.964 117.413 447.041 117.737 447.041 118.11C447.041 118.543 446.967 118.91 446.821 119.21C446.674 119.503 446.467 119.74 446.201 119.92C445.941 120.1 445.631 120.23 445.271 120.31C444.917 120.39 444.531 120.43 444.111 120.43C443.991 120.43 443.864 120.44 443.731 120.46C443.597 120.473 443.474 120.51 443.361 120.57C443.247 120.63 443.154 120.72 443.081 120.84C443.007 120.96 442.971 121.12 442.971 121.32H446.991V123H441.081V121.37C441.081 120.85 441.171 120.427 441.351 120.1C441.531 119.773 441.764 119.52 442.051 119.34C442.344 119.16 442.671 119.037 443.031 118.97C443.391 118.903 443.751 118.87 444.111 118.87C444.211 118.87 444.317 118.86 444.431 118.84C444.544 118.813 444.647 118.773 444.741 118.72C444.841 118.667 444.924 118.593 444.991 118.5C445.057 118.4 445.091 118.28 445.091 118.14C445.091 118.02 445.064 117.917 445.011 117.83C444.957 117.743 444.884 117.673 444.791 117.62C444.704 117.567 444.604 117.53 444.491 117.51C444.377 117.483 444.261 117.47 444.141 117.47C443.847 117.47 443.611 117.527 443.431 117.64C443.257 117.753 443.157 117.943 443.131 118.21H441.201ZM448.105 118.21C448.105 117.803 448.185 117.453 448.345 117.16C448.505 116.867 448.718 116.627 448.985 116.44C449.258 116.253 449.572 116.117 449.925 116.03C450.278 115.943 450.652 115.9 451.045 115.9C451.438 115.9 451.808 115.947 452.155 116.04C452.508 116.127 452.818 116.263 453.085 116.45C453.352 116.63 453.562 116.86 453.715 117.14C453.868 117.413 453.945 117.737 453.945 118.11C453.945 118.543 453.872 118.91 453.725 119.21C453.578 119.503 453.372 119.74 453.105 119.92C452.845 120.1 452.535 120.23 452.175 120.31C451.822 120.39 451.435 120.43 451.015 120.43C450.895 120.43 450.768 120.44 450.635 120.46C450.502 120.473 450.378 120.51 450.265 120.57C450.152 120.63 450.058 120.72 449.985 120.84C449.912 120.96 449.875 121.12 449.875 121.32H453.895V123H447.985V121.37C447.985 120.85 448.075 120.427 448.255 120.1C448.435 119.773 448.668 119.52 448.955 119.34C449.248 119.16 449.575 119.037 449.935 118.97C450.295 118.903 450.655 118.87 451.015 118.87C451.115 118.87 451.222 118.86 451.335 118.84C451.448 118.813 451.552 118.773 451.645 118.72C451.745 118.667 451.828 118.593 451.895 118.5C451.962 118.4 451.995 118.28 451.995 118.14C451.995 118.02 451.968 117.917 451.915 117.83C451.862 117.743 451.788 117.673 451.695 117.62C451.608 117.567 451.508 117.53 451.395 117.51C451.282 117.483 451.165 117.47 451.045 117.47C450.752 117.47 450.515 117.527 450.335 117.64C450.162 117.753 450.062 117.943 450.035 118.21H448.105ZM454.999 122.17C454.999 122.023 455.026 121.897 455.079 121.79C455.139 121.677 455.216 121.583 455.309 121.51C455.403 121.43 455.506 121.373 455.619 121.34C455.739 121.3 455.863 121.28 455.989 121.28C456.116 121.28 456.239 121.3 456.359 121.34C456.479 121.373 456.586 121.43 456.679 121.51C456.773 121.583 456.849 121.677 456.909 121.79C456.969 121.897 456.999 122.023 456.999 122.17C456.999 122.317 456.969 122.447 456.909 122.56C456.849 122.667 456.773 122.76 456.679 122.84C456.586 122.913 456.479 122.967 456.359 123C456.239 123.04 456.116 123.06 455.989 123.06C455.863 123.06 455.739 123.04 455.619 123C455.506 122.967 455.403 122.913 455.309 122.84C455.216 122.76 455.139 122.667 455.079 122.56C455.026 122.447 454.999 122.317 454.999 122.17ZM454.999 119.46C454.999 119.313 455.026 119.187 455.079 119.08C455.139 118.967 455.216 118.873 455.309 118.8C455.403 118.727 455.506 118.673 455.619 118.64C455.739 118.6 455.863 118.58 455.989 118.58C456.116 118.58 456.239 118.6 456.359 118.64C456.479 118.673 456.586 118.727 456.679 118.8C456.773 118.873 456.849 118.967 456.909 119.08C456.969 119.187 456.999 119.313 456.999 119.46C456.999 119.613 456.969 119.747 456.909 119.86C456.849 119.967 456.773 120.057 456.679 120.13C456.586 120.203 456.479 120.26 456.359 120.3C456.239 120.333 456.116 120.35 455.989 120.35C455.863 120.35 455.739 120.333 455.619 120.3C455.506 120.26 455.403 120.203 455.309 120.13C455.216 120.057 455.139 119.967 455.079 119.86C455.026 119.747 454.999 119.613 454.999 119.46ZM458.154 118.21C458.154 117.803 458.234 117.453 458.394 117.16C458.554 116.867 458.767 116.627 459.034 116.44C459.307 116.253 459.62 116.117 459.974 116.03C460.327 115.943 460.7 115.9 461.094 115.9C461.487 115.9 461.857 115.947 462.204 116.04C462.557 116.127 462.867 116.263 463.134 116.45C463.4 116.63 463.61 116.86 463.764 117.14C463.917 117.413 463.994 117.737 463.994 118.11C463.994 118.543 463.92 118.91 463.774 119.21C463.627 119.503 463.42 119.74 463.154 119.92C462.894 120.1 462.584 120.23 462.224 120.31C461.87 120.39 461.484 120.43 461.064 120.43C460.944 120.43 460.817 120.44 460.684 120.46C460.55 120.473 460.427 120.51 460.314 120.57C460.2 120.63 460.107 120.72 460.034 120.84C459.96 120.96 459.924 121.12 459.924 121.32H463.944V123H458.034V121.37C458.034 120.85 458.124 120.427 458.304 120.1C458.484 119.773 458.717 119.52 459.004 119.34C459.297 119.16 459.624 119.037 459.984 118.97C460.344 118.903 460.704 118.87 461.064 118.87C461.164 118.87 461.27 118.86 461.384 118.84C461.497 118.813 461.6 118.773 461.694 118.72C461.794 118.667 461.877 118.593 461.944 118.5C462.01 118.4 462.044 118.28 462.044 118.14C462.044 118.02 462.017 117.917 461.964 117.83C461.91 117.743 461.837 117.673 461.744 117.62C461.657 117.567 461.557 117.53 461.444 117.51C461.33 117.483 461.214 117.47 461.094 117.47C460.8 117.47 460.564 117.527 460.384 117.64C460.21 117.753 460.11 117.943 460.084 118.21H458.154ZM470.228 116V120.23H470.978V121.79H470.228V123H468.368V121.79H464.798L464.668 120.15L468.398 116H470.228ZM468.368 120.23V118.4L466.708 120.23H468.368Z" fill="white"/>
<path d="M333.997 146H335.302V141.95C335.602 142.025 335.962 142.04 336.352 142.04C337.627 142.04 338.737 141.665 339.442 140.93C339.952 140.405 340.222 139.685 340.222 138.77C340.222 137.87 339.877 137.135 339.337 136.655C338.737 136.115 337.792 135.815 336.502 135.815C335.452 135.815 334.627 135.905 333.997 136.01V146ZM335.302 136.955C335.527 136.895 335.962 136.85 336.532 136.85C337.957 136.85 338.917 137.495 338.917 138.845C338.917 140.21 337.957 140.99 336.382 140.99C335.947 140.99 335.587 140.96 335.302 140.885V136.955ZM341.701 146H343.021V142.13C343.021 141.92 343.036 141.695 343.066 141.515C343.246 140.525 343.906 139.835 344.836 139.835C345.016 139.835 345.151 139.835 345.286 139.865V138.62C345.166 138.605 345.061 138.59 344.926 138.59C344.041 138.59 343.231 139.205 342.901 140.18H342.856L342.796 138.74H341.641C341.686 139.415 341.701 140.15 341.701 141.005V146ZM347.987 146V138.74H346.667V146H347.987ZM347.327 135.875C346.832 135.875 346.502 136.25 346.502 136.7C346.502 137.15 346.817 137.51 347.297 137.51C347.822 137.51 348.137 137.15 348.137 136.7C348.137 136.235 347.807 135.875 347.327 135.875ZM355.132 144.755C354.757 144.92 354.262 145.1 353.512 145.1C352.072 145.1 350.992 144.065 350.992 142.385C350.992 140.885 351.892 139.64 353.557 139.64C354.277 139.64 354.772 139.82 355.087 139.985L355.387 138.98C355.027 138.785 354.337 138.59 353.557 138.59C351.187 138.59 349.657 140.225 349.657 142.46C349.657 144.68 351.082 146.165 353.272 146.165C354.247 146.165 355.012 145.91 355.357 145.745L355.132 144.755ZM362.653 142.61C362.683 142.46 362.698 142.265 362.698 141.995C362.698 140.66 362.083 138.59 359.698 138.59C357.583 138.59 356.293 140.3 356.293 142.49C356.293 144.68 357.628 146.165 359.863 146.165C361.018 146.165 361.828 145.91 362.293 145.7L362.053 144.755C361.573 144.965 360.988 145.13 360.043 145.13C358.708 145.13 357.583 144.395 357.553 142.61H362.653ZM357.568 141.665C357.673 140.75 358.243 139.535 359.593 139.535C361.078 139.535 361.438 140.84 361.423 141.665H357.568ZM364.903 140.87C365.458 140.87 365.803 140.465 365.803 139.94C365.803 139.385 365.458 138.995 364.918 138.995C364.408 138.995 364.033 139.385 364.033 139.94C364.033 140.465 364.393 140.87 364.903 140.87ZM364.903 146.165C365.458 146.165 365.803 145.76 365.803 145.235C365.803 144.68 365.458 144.29 364.918 144.29C364.408 144.29 364.033 144.68 364.033 145.235C364.033 145.76 364.393 146.165 364.903 146.165ZM373.737 147.275V145.715C375.282 145.475 376.107 144.365 376.107 143.165C376.107 141.83 375.327 141.065 373.782 140.435C372.477 139.88 371.922 139.49 371.922 138.725C371.922 138.11 372.357 137.42 373.512 137.42C374.472 137.42 375.087 137.765 375.402 137.945L375.777 136.955C375.327 136.7 374.712 136.46 373.827 136.43V134.975H372.882V136.475C371.517 136.7 370.632 137.645 370.632 138.89C370.632 140.195 371.577 140.9 373.107 141.5C374.217 141.95 374.802 142.46 374.802 143.285C374.802 144.14 374.082 144.755 373.017 144.755C372.177 144.755 371.397 144.455 370.872 144.11L370.512 145.115C371.037 145.49 371.922 145.76 372.792 145.775V147.275H373.737ZM381.157 136.085C379.177 136.085 377.752 137.87 377.752 141.155C377.782 144.38 379.087 146.165 380.992 146.165C383.137 146.165 384.382 144.335 384.382 141.02C384.382 137.915 383.197 136.085 381.157 136.085ZM381.067 137.105C382.447 137.105 383.047 138.68 383.047 141.08C383.047 143.57 382.402 145.145 381.067 145.145C379.867 145.145 379.087 143.705 379.087 141.17C379.087 138.515 379.927 137.105 381.067 137.105ZM386.553 146.165C387.108 146.165 387.468 145.76 387.468 145.22C387.468 144.665 387.108 144.275 386.583 144.275C386.058 144.275 385.683 144.68 385.683 145.22C385.683 145.76 386.043 146.165 386.553 146.165ZM391.953 136.085C389.973 136.085 388.548 137.87 388.548 141.155C388.578 144.38 389.883 146.165 391.788 146.165C393.933 146.165 395.178 144.335 395.178 141.02C395.178 137.915 393.993 136.085 391.953 136.085ZM391.863 137.105C393.243 137.105 393.843 138.68 393.843 141.08C393.843 143.57 393.198 145.145 391.863 145.145C390.663 145.145 389.883 143.705 389.883 141.17C389.883 138.515 390.723 137.105 391.863 137.105ZM399.644 136.085C397.664 136.085 396.239 137.87 396.239 141.155C396.269 144.38 397.574 146.165 399.479 146.165C401.624 146.165 402.869 144.335 402.869 141.02C402.869 137.915 401.684 136.085 399.644 136.085ZM399.554 137.105C400.934 137.105 401.534 138.68 401.534 141.08C401.534 143.57 400.889 145.145 399.554 145.145C398.354 145.145 397.574 143.705 397.574 141.17C397.574 138.515 398.414 137.105 399.554 137.105ZM407.334 136.085C405.354 136.085 403.929 137.87 403.929 141.155C403.959 144.38 405.264 146.165 407.169 146.165C409.314 146.165 410.559 144.335 410.559 141.02C410.559 137.915 409.374 136.085 407.334 136.085ZM407.244 137.105C408.624 137.105 409.224 138.68 409.224 141.08C409.224 143.57 408.579 145.145 407.244 145.145C406.044 145.145 405.264 143.705 405.264 141.17C405.264 138.515 406.104 137.105 407.244 137.105ZM415.025 136.085C413.045 136.085 411.62 137.87 411.62 141.155C411.65 144.38 412.955 146.165 414.86 146.165C417.005 146.165 418.25 144.335 418.25 141.02C418.25 137.915 417.065 136.085 415.025 136.085ZM414.935 137.105C416.315 137.105 416.915 138.68 416.915 141.08C416.915 143.57 416.27 145.145 414.935 145.145C413.735 145.145 412.955 143.705 412.955 141.17C412.955 138.515 413.795 137.105 414.935 137.105ZM422.715 136.085C420.735 136.085 419.31 137.87 419.31 141.155C419.34 144.38 420.645 146.165 422.55 146.165C424.695 146.165 425.94 144.335 425.94 141.02C425.94 137.915 424.755 136.085 422.715 136.085ZM422.625 137.105C424.005 137.105 424.605 138.68 424.605 141.08C424.605 143.57 423.96 145.145 422.625 145.145C421.425 145.145 420.645 143.705 420.645 141.17C420.645 138.515 421.485 137.105 422.625 137.105ZM430.405 136.085C428.425 136.085 427 137.87 427 141.155C427.03 144.38 428.335 146.165 430.24 146.165C432.385 146.165 433.63 144.335 433.63 141.02C433.63 137.915 432.445 136.085 430.405 136.085ZM430.315 137.105C431.695 137.105 432.295 138.68 432.295 141.08C432.295 143.57 431.65 145.145 430.315 145.145C429.115 145.145 428.335 143.705 428.335 141.17C428.335 138.515 429.175 137.105 430.315 137.105ZM438.096 136.085C436.116 136.085 434.691 137.87 434.691 141.155C434.721 144.38 436.026 146.165 437.931 146.165C440.076 146.165 441.321 144.335 441.321 141.02C441.321 137.915 440.136 136.085 438.096 136.085ZM438.006 137.105C439.386 137.105 439.986 138.68 439.986 141.08C439.986 143.57 439.341 145.145 438.006 145.145C436.806 145.145 436.026 143.705 436.026 141.17C436.026 138.515 436.866 137.105 438.006 137.105ZM445.381 146H446.656V136.25H445.531L443.401 137.39L443.656 138.395L445.351 137.48H445.381V146ZM456.432 146V144.905H452.067V144.875L452.832 144.155C454.887 142.175 456.192 140.72 456.192 138.92C456.192 137.525 455.307 136.085 453.207 136.085C452.097 136.085 451.122 136.52 450.462 137.075L450.882 138.005C451.332 137.63 452.067 137.18 452.952 137.18C454.407 137.18 454.872 138.095 454.872 139.085C454.872 140.555 453.732 141.815 451.242 144.185L450.207 145.19V146H456.432Z" fill="white"/>
<path d="M337.657 161L341.272 150.89H339.877L338.167 155.885C337.702 157.205 337.297 158.48 337.012 159.65H336.982C336.697 158.465 336.322 157.235 335.902 155.87L334.327 150.89H332.902L336.217 161H337.657ZM344.893 153.59C342.898 153.59 341.293 155.015 341.293 157.43C341.293 159.725 342.823 161.165 344.773 161.165C346.513 161.165 348.388 159.995 348.388 157.31C348.388 155.105 346.978 153.59 344.893 153.59ZM344.863 154.58C346.423 154.58 347.038 156.125 347.038 157.355C347.038 158.99 346.093 160.175 344.833 160.175C343.543 160.175 342.643 158.975 342.643 157.385C342.643 156.02 343.318 154.58 344.863 154.58ZM350.051 161H351.371V150.35H350.051V161ZM354.165 155.87C354.72 155.87 355.065 155.465 355.065 154.94C355.065 154.385 354.72 153.995 354.18 153.995C353.67 153.995 353.295 154.385 353.295 154.94C353.295 155.465 353.655 155.87 354.165 155.87ZM354.165 161.165C354.72 161.165 355.065 160.76 355.065 160.235C355.065 159.68 354.72 159.29 354.18 159.29C353.67 159.29 353.295 159.68 353.295 160.235C353.295 160.76 353.655 161.165 354.165 161.165ZM363 162.275V160.715C364.545 160.475 365.37 159.365 365.37 158.165C365.37 156.83 364.59 156.065 363.045 155.435C361.74 154.88 361.185 154.49 361.185 153.725C361.185 153.11 361.62 152.42 362.775 152.42C363.735 152.42 364.35 152.765 364.665 152.945L365.04 151.955C364.59 151.7 363.975 151.46 363.09 151.43V149.975H362.145V151.475C360.78 151.7 359.895 152.645 359.895 153.89C359.895 155.195 360.84 155.9 362.37 156.5C363.48 156.95 364.065 157.46 364.065 158.285C364.065 159.14 363.345 159.755 362.28 159.755C361.44 159.755 360.66 159.455 360.135 159.11L359.775 160.115C360.3 160.49 361.185 160.76 362.055 160.775V162.275H363ZM372.97 151.25H368.305L367.675 155.93C368.035 155.885 368.47 155.84 369.04 155.84C370.975 155.84 371.83 156.725 371.83 157.985C371.845 159.29 370.765 160.1 369.535 160.1C368.635 160.1 367.84 159.8 367.435 159.56L367.105 160.565C367.585 160.865 368.47 161.165 369.535 161.165C371.65 161.165 373.165 159.74 373.165 157.835C373.165 156.62 372.535 155.765 371.77 155.345C371.17 154.97 370.435 154.82 369.67 154.82C369.31 154.82 369.1 154.835 368.875 154.865L369.25 152.36H372.97V151.25ZM375.336 162.755C375.756 162.05 376.416 160.385 376.776 159.11L375.306 159.26C375.141 160.355 374.736 161.96 374.406 162.86L375.336 162.755ZM378.126 151.25V152.345H382.896V152.375L378.666 161H380.031L384.276 152.12V151.25H378.126ZM387.451 155.915C386.251 156.425 385.516 157.31 385.516 158.54C385.516 159.965 386.746 161.165 388.786 161.165C390.646 161.165 392.101 160.04 392.101 158.33C392.101 157.16 391.351 156.29 390.136 155.81V155.765C391.336 155.21 391.756 154.31 391.756 153.485C391.756 152.255 390.796 151.085 388.906 151.085C387.181 151.085 385.876 152.135 385.876 153.68C385.876 154.52 386.341 155.36 387.436 155.87L387.451 155.915ZM388.816 160.205C387.571 160.205 386.821 159.335 386.866 158.36C386.866 157.43 387.481 156.665 388.621 156.335C389.941 156.71 390.766 157.295 390.766 158.465C390.766 159.47 390.001 160.205 388.816 160.205ZM388.831 152.03C390.016 152.03 390.481 152.84 390.481 153.62C390.481 154.505 389.836 155.105 388.996 155.39C387.871 155.09 387.121 154.565 387.136 153.59C387.136 152.75 387.736 152.03 388.831 152.03ZM394.092 161.15C394.407 161.165 394.827 161.15 395.307 161.075C396.357 160.955 397.392 160.505 398.142 159.77C399.102 158.84 399.822 157.34 399.822 155.21C399.822 152.69 398.592 151.085 396.597 151.085C394.602 151.085 393.267 152.705 393.267 154.55C393.267 156.215 394.392 157.535 396.132 157.535C397.122 157.535 397.902 157.16 398.442 156.5H398.487C398.307 157.64 397.842 158.495 397.197 159.08C396.642 159.62 395.922 159.92 395.157 160.025C394.707 160.07 394.377 160.1 394.092 160.07V161.15ZM396.477 152.09C397.872 152.09 398.487 153.365 398.487 155.03C398.487 155.255 398.442 155.39 398.367 155.525C398.022 156.11 397.332 156.545 396.447 156.545C395.307 156.545 394.572 155.69 394.572 154.475C394.572 153.08 395.367 152.09 396.477 152.09ZM401.992 161.165C402.547 161.165 402.907 160.76 402.907 160.22C402.907 159.665 402.547 159.275 402.022 159.275C401.497 159.275 401.122 159.68 401.122 160.22C401.122 160.76 401.482 161.165 401.992 161.165ZM409.943 151.25H405.278L404.648 155.93C405.008 155.885 405.443 155.84 406.013 155.84C407.948 155.84 408.803 156.725 408.803 157.985C408.818 159.29 407.738 160.1 406.508 160.1C405.608 160.1 404.813 159.8 404.408 159.56L404.078 160.565C404.558 160.865 405.443 161.165 406.508 161.165C408.623 161.165 410.138 159.74 410.138 157.835C410.138 156.62 409.508 155.765 408.743 155.345C408.143 154.97 407.408 154.82 406.643 154.82C406.283 154.82 406.073 154.835 405.848 154.865L406.223 152.36H409.943V151.25ZM417.378 151.1C417.138 151.1 416.808 151.115 416.418 151.175C415.188 151.325 414.108 151.82 413.298 152.615C412.323 153.575 411.648 155.09 411.648 157.01C411.648 159.545 413.013 161.165 415.083 161.165C417.123 161.165 418.338 159.515 418.338 157.715C418.338 155.825 417.123 154.565 415.398 154.565C414.318 154.565 413.493 155.075 413.028 155.705H412.998C413.223 154.085 414.303 152.585 416.388 152.255C416.763 152.195 417.108 152.165 417.378 152.18V151.1ZM415.113 160.145C413.718 160.145 412.968 158.945 412.953 157.34C412.953 157.1 413.013 156.92 413.088 156.77C413.448 156.05 414.198 155.57 414.993 155.57C416.208 155.57 417.003 156.41 417.003 157.805C417.003 159.2 416.238 160.145 415.113 160.145Z" fill="white"/>
<path d="M405.321 179L401.857 185L398.393 179L405.321 179Z" fill="#41F50C" stroke="#41F50C"/>
<rect x="17.8569" y="13.5" width="793" height="384" rx="19.5" stroke="#41F50C"/>
</g>
<defs>
<filter id="filter0_d_16874_18186" x="0.356934" y="0" width="828" height="419" filterUnits="userSpaceOnUse" color-interpolation-filters="sRGB">
<feFlood flood-opacity="0" result="BackgroundImageFix"/>
<feColorMatrix in="SourceAlpha" type="matrix" values="0 0 0 0 0 0 0 0 0 0 0 0 0 0 0 0 0 0 127 0" result="hardAlpha"/>
<feOffset dy="4"/>
<feGaussianBlur stdDeviation="8.5"/>
<feComposite in2="hardAlpha" operator="out"/>
<feColorMatrix type="matrix" values="0 0 0 0 0.396078 0 0 0 0 0.811765 0 0 0 0 0.478431 0 0 0 0.25 0"/>
<feBlend mode="normal" in2="BackgroundImageFix" result="effect1_dropShadow_16874_18186"/>
<feBlend mode="normal" in="SourceGraphic" in2="effect1_dropShadow_16874_18186" result="shape"/>
</filter>
<filter id="filter1_d_16874_18186" x="296.857" y="82" width="211" height="113" filterUnits="userSpaceOnUse" color-interpolation-filters="sRGB">
<feFlood flood-opacity="0" result="BackgroundImageFix"/>
<feColorMatrix in="SourceAlpha" type="matrix" values="0 0 0 0 0 0 0 0 0 0 0 0 0 0 0 0 0 0 127 0" result="hardAlpha"/>
<feOffset dy="1"/>
<feGaussianBlur stdDeviation="7.5"/>
<feComposite in2="hardAlpha" operator="out"/>
<feColorMatrix type="matrix" values="0 0 0 0 0.396078 0 0 0 0 0.811765 0 0 0 0 0.478431 0 0 0 0.2 0"/>
<feBlend mode="normal" in2="BackgroundImageFix" result="effect1_dropShadow_16874_18186"/>
<feBlend mode="normal" in="SourceGraphic" in2="effect1_dropShadow_16874_18186" result="shape"/>
</filter>
</defs>
</svg>
