<svg width="23" height="23" viewBox="0 0 23 23" fill="none" xmlns="http://www.w3.org/2000/svg">
<path d="M22.3835 9.77971L21.9075 10.2431C21.9133 10.3297 21.9181 10.4162 21.9212 10.5023C21.9263 10.6299 21.929 10.7576 21.929 10.8861C21.929 11.2908 21.9044 11.6904 21.8564 12.0829C21.7996 12.5545 21.7087 13.0165 21.5867 13.4658C21.411 14.1149 21.1697 14.7387 20.8707 15.3291C19.1892 18.6551 15.6785 20.9451 11.6178 20.9538L10.4149 22.1991C10.2956 22.3232 10.1171 22.3705 9.95152 22.3229L6.72698 21.3913C6.56187 21.3436 6.43688 21.2082 6.40137 21.0395L6.05697 19.3867C5.32926 18.9353 4.66352 18.3981 4.07478 17.7892C3.52925 17.2253 3.04928 16.6003 2.64854 15.9254C2.38577 15.4843 2.15714 15.0223 1.96522 14.5425C1.76203 14.034 1.59948 13.5064 1.48269 12.9622C1.33841 12.2926 1.26294 11.5976 1.26294 10.8861C1.26294 10.3894 1.29965 9.90179 1.37085 9.4249C1.52947 8.36183 1.85867 7.35307 2.33027 6.42455C2.90073 5.30173 3.68002 4.29774 4.61895 3.46023C6.45652 1.81936 8.90638 0.818278 11.596 0.818278C12.0225 0.818278 12.4425 0.843719 12.8547 0.892723C13.5 0.969218 14.1263 1.10377 14.729 1.29005L15.5586 0.702512C15.6993 0.603309 15.8834 0.58982 16.0369 0.667509L17.5151 1.41452C17.6691 1.49238 17.7674 1.64844 17.7703 1.82022L17.7896 2.82676C19.3439 3.96291 20.5586 5.51584 21.2593 7.31533L21.685 7.40241C21.8537 7.4369 21.9898 7.56155 22.0383 7.72666L22.5046 9.31596C22.5536 9.48159 22.5068 9.66002 22.3835 9.77971V9.77971Z" fill="#73FF9A"/>
<path d="M22.3836 9.7801L21.9075 10.2435C21.9133 10.3301 21.9181 10.4166 21.9212 10.5027C21.9263 10.6302 21.929 10.758 21.929 10.8865C21.929 11.2912 21.9045 11.6907 21.8565 12.0833C21.7996 12.5549 21.7088 13.0169 21.5867 13.4662C21.411 14.1153 21.1697 14.7391 20.8708 15.3295C19.1893 18.6555 15.6785 20.9455 11.6179 20.9542L10.415 22.1995C10.2956 22.3236 10.1172 22.3709 9.95155 22.3233L6.72701 21.3917C6.5619 21.344 6.43692 21.2086 6.4014 21.0399L6.13794 19.7749C6.94386 19.9436 7.77966 20.0324 8.63595 20.0324C15.3418 20.0324 20.778 14.5956 20.778 7.88977C20.778 7.24708 20.7284 6.61634 20.6321 6.00098C20.8721 6.42187 21.082 6.86068 21.2594 7.31572L21.685 7.4028C21.8537 7.43729 21.9898 7.56194 22.0383 7.72705L22.5046 9.31635C22.5536 9.48197 22.5068 9.6604 22.3836 9.7801V9.7801Z" fill="#3CFF5B"/>
<path d="M6.12339 7.92449C6.12339 8.33889 5.95555 8.71385 5.68406 8.98534C5.41275 9.25682 5.03762 9.42466 4.62322 9.42466H1.37085C1.52947 8.3616 1.85867 7.35283 2.33027 6.42432H4.62322C5.45202 6.42432 6.12339 7.0962 6.12339 7.92449Z" fill="#3CFF5B"/>
<path d="M12.8548 0.892634C12.0315 1.59577 10.4096 2.3561 8.4658 2.88353C7.01771 3.27625 5.65891 3.46714 4.6189 3.46014C6.45681 1.81927 8.90667 0.818359 11.5959 0.818359C12.0226 0.818359 12.4426 0.843459 12.8548 0.892634Z" fill="#218D00"/>
<path d="M21.929 10.8862C21.929 11.2908 21.9044 11.6904 21.8564 12.0829C21.7996 12.5545 21.7087 13.0166 21.5866 13.4658H19.1122C19.0738 13.465 19.0357 13.4646 18.9973 13.4646C17.884 13.4646 16.8145 13.906 16.0254 14.6945C15.2378 15.4827 14.1691 15.9254 13.0545 15.9254H2.64852C2.38574 15.4844 2.15711 15.0223 1.96519 14.5425C1.76201 14.0341 1.59946 13.5064 1.48267 12.9623H13.0545C14.1691 12.9623 15.2378 12.5192 16.0254 11.731C16.8145 10.9425 17.884 10.501 18.9973 10.501C19.0357 10.501 19.0738 10.5015 19.1122 10.5023H21.9211C21.9263 10.6299 21.929 10.7576 21.929 10.8862V10.8862Z" fill="#DE0000"/>
<path d="M21.929 10.8863C21.929 11.2909 21.9044 11.6905 21.8564 12.083C21.7996 12.5546 21.7087 13.0167 21.5866 13.4659H19.4243C19.9039 12.5411 20.2671 11.5471 20.4961 10.5024H21.9211C21.9263 10.63 21.929 10.7577 21.929 10.8863V10.8863Z" fill="#FF7373"/>
<path d="M21.8563 12.0834C21.7165 13.2368 21.3763 14.3301 20.8706 15.3296H19.1121C18.7926 15.3209 18.4766 15.3489 18.1685 15.4111C17.3633 15.5728 16.6159 15.9684 16.0253 16.5588C15.6311 16.9531 15.1673 17.2608 14.6624 17.4697C14.1572 17.6791 13.6117 17.7897 13.0544 17.7897H4.07465C3.17243 16.8573 2.4512 15.7572 1.96509 14.543H13.0544C14.169 14.543 15.2377 14.1001 16.0253 13.3121C16.8144 12.5236 17.8839 12.082 18.9972 12.082C19.0356 12.082 19.0737 12.0825 19.1121 12.0834H21.8563Z" fill="#3CFF5B"/>
<path d="M21.8565 12.0828C21.7166 13.2362 21.3765 14.3294 20.8708 15.329H19.1122C18.7928 15.3203 18.4767 15.3483 18.1687 15.4104C18.955 14.4155 19.5888 13.2944 20.0341 12.0828H21.8565Z" fill="#04FF4A"/>
<path d="M11.235 9.57812C11.235 10.4112 10.5596 11.0867 9.72631 11.0867C8.89324 11.0867 8.21777 10.4112 8.21777 9.57812C8.21777 8.74488 8.89324 8.06958 9.72631 8.06958C10.5596 8.06958 11.235 8.74488 11.235 9.57812Z" fill="#04FF4A"/>
<path d="M11.2347 9.57763C11.2347 10.411 10.5594 11.0865 9.72636 11.0865C9.5703 11.0865 9.41987 11.0628 9.27832 11.0187C9.89249 10.8277 10.3383 10.2546 10.3383 9.57763C10.3383 8.90045 9.89249 8.32794 9.27832 8.13688C9.41987 8.09283 9.5703 8.06909 9.72636 8.06909C10.5594 8.06909 11.2347 8.74439 11.2347 9.57763Z" fill="#DD0000"/>
<path d="M8.82994 5.83172C8.82994 6.35659 8.40444 6.78209 7.87957 6.78209C7.3547 6.78209 6.9292 6.35659 6.9292 5.83172C6.9292 5.30685 7.3547 4.88135 7.87957 4.88135C8.40444 4.88135 8.82994 5.30685 8.82994 5.83172Z" fill="#04FF4A"/>
<path d="M8.82992 5.83155C8.82992 6.35659 8.40425 6.78192 7.87972 6.78192C7.75644 6.78192 7.63845 6.75819 7.53003 6.71499C7.88194 6.576 8.13054 6.2328 8.13054 5.83155C8.13054 5.4303 7.88194 5.08727 7.53003 4.94828C7.63845 4.90491 7.75644 4.88135 7.87972 4.88135C8.40425 4.88135 8.82992 5.30668 8.82992 5.83155Z" fill="#DD0000"/>
<path d="M12.527 17.7893C12.527 18.1296 12.2511 18.4055 11.9108 18.4055C11.5704 18.4055 11.2944 18.1296 11.2944 17.7893C11.2944 17.4489 11.5704 17.1731 11.9108 17.1731C12.2511 17.1731 12.527 17.4489 12.527 17.7893V17.7893Z" fill="#04FF4A"/>
<path d="M17.0524 5.49774C17.0524 5.83804 16.7765 6.11396 16.436 6.11396C16.0957 6.11396 15.8198 5.83804 15.8198 5.49774C15.8198 5.15727 16.0957 4.88135 16.436 4.88135C16.7765 4.88135 17.0524 5.15727 17.0524 5.49774Z" fill="#04FF4A"/>
<path d="M12.5236 3.10886H12.528H12.5295C12.7099 3.10886 12.8565 2.96322 12.8574 2.78257C12.8582 2.60158 12.7122 2.45405 12.5311 2.45337H12.5266C12.526 2.45337 12.5256 2.45337 12.5249 2.45337C12.3446 2.45337 12.1981 2.59902 12.1973 2.77966C12.1962 2.96066 12.3424 3.10818 12.5236 3.10886Z" fill="black"/>
<path d="M22.8194 9.22367L22.3528 7.6342C22.27 7.35178 22.0393 7.13972 21.7507 7.08098L21.4984 7.02942C20.7916 5.30471 19.6261 3.79976 18.114 2.65951L18.0983 1.81432C18.0927 1.51996 17.9262 1.25462 17.6632 1.12178L16.1849 0.374593C15.922 0.241752 15.6097 0.264974 15.3694 0.435037L14.6704 0.930029C13.6756 0.638395 12.6423 0.4907 11.5958 0.4907C9.41791 0.4907 7.32337 1.1269 5.53856 2.33049C3.79371 3.5071 2.45984 5.14182 1.68124 7.05759C1.61294 7.22543 1.69371 7.41667 1.86138 7.4848C2.02922 7.55292 2.22046 7.47216 2.28859 7.30449C2.36457 7.11752 2.4467 6.93346 2.53378 6.7523H4.6232C5.26964 6.7523 5.79554 7.27819 5.79554 7.92464C5.79554 8.23779 5.67362 8.53232 5.45217 8.75361C5.23088 8.97507 4.93651 9.09698 4.6232 9.09698H1.75979C1.78608 8.95885 1.81442 8.82105 1.84687 8.68446C1.8887 8.50825 1.77976 8.33152 1.60372 8.28969C1.42768 8.24803 1.25079 8.3568 1.20896 8.533C1.02694 9.30017 0.93457 10.0919 0.93457 10.8862C0.93457 12.5607 1.3307 14.1598 2.11221 15.6391C2.17094 15.7504 2.28466 15.814 2.4023 15.814C2.45404 15.814 2.50629 15.8017 2.55512 15.7759C2.71528 15.6914 2.77641 15.493 2.69189 15.3328C2.6113 15.1801 2.53566 15.0258 2.46377 14.8702H13.0545C14.2645 14.8702 15.4019 14.399 16.2571 13.5434C16.9784 12.8227 17.9771 12.4093 18.9971 12.4093C19.0331 12.4093 19.0685 12.4096 19.1045 12.4105C19.1071 12.4106 19.1098 12.4106 19.1124 12.4106H21.4792C21.3343 13.3141 21.0613 14.1847 20.6704 15.0014H19.1168C17.8799 14.97 16.668 15.4521 15.7936 16.3265C15.4318 16.6883 15.009 16.9709 14.537 17.1663C14.0646 17.3618 13.5658 17.461 13.0546 17.461H12.7963C12.6628 17.1015 12.3163 16.8447 11.911 16.8447C11.5056 16.8447 11.1592 17.1015 11.0257 17.461H4.21494C3.99144 17.2229 3.77886 16.9742 3.57891 16.7138C3.46861 16.5702 3.26286 16.5432 3.11909 16.6537C2.97567 16.764 2.94869 16.9697 3.05899 17.1133C3.80993 18.0905 4.7195 18.9231 5.76429 19.5897L6.08034 21.1064C6.14044 21.3948 6.35354 21.6246 6.63629 21.7062L9.86083 22.6376C9.93374 22.6588 10.008 22.6691 10.0816 22.6691C10.2933 22.6691 10.4992 22.584 10.651 22.4268L11.7582 21.2802C13.5565 21.2536 15.3237 20.7835 16.8783 19.9171C17.0364 19.829 17.0931 19.6294 17.005 19.4713C16.9169 19.3132 16.7173 19.2564 16.559 19.3445C15.0614 20.1792 13.3524 20.6222 11.6171 20.6257C11.5285 20.6259 11.4436 20.6621 11.382 20.726L10.1793 21.9716C10.1439 22.0081 10.0917 22.0221 10.0428 22.0079L6.81814 21.0763C6.7693 21.0622 6.73259 21.0226 6.72218 20.9727L6.37778 19.3195C6.35934 19.2316 6.30573 19.1549 6.2294 19.1076C5.75388 18.8129 5.30772 18.4815 4.89263 18.1168H11.0257C11.1592 18.4762 11.5055 18.733 11.911 18.733C12.3162 18.733 12.6626 18.4762 12.7963 18.1168H13.0545C13.6522 18.1168 14.2353 18.0009 14.7879 17.7721C15.3397 17.5436 15.8342 17.2132 16.2571 16.7903C17.006 16.0414 18.0438 15.6284 19.1036 15.6569C19.1066 15.657 19.1095 15.657 19.1124 15.657H20.3255C19.6833 16.7679 18.8122 17.7594 17.7416 18.5718C17.5973 18.6813 17.5692 18.8869 17.6786 19.0311C17.7431 19.1162 17.841 19.1607 17.94 19.1607C18.009 19.1607 18.0787 19.1391 18.1379 19.0942C19.3912 18.1431 20.4281 16.9105 21.1364 15.5297C21.88 14.0804 22.257 12.518 22.257 10.8862C22.257 10.7211 22.2524 10.5492 22.2435 10.3736L22.612 10.0147C22.823 9.80933 22.9024 9.50626 22.8194 9.22367V9.22367ZM11.911 18.0774C11.7518 18.0774 11.6224 17.9479 11.6224 17.789C11.6224 17.6298 11.7518 17.5004 11.911 17.5004C12.0699 17.5004 12.1994 17.6298 12.1994 17.789C12.1994 17.9479 12.0699 18.0774 11.911 18.0774ZM11.5958 1.14636C11.7022 1.14636 11.8084 1.14841 11.9144 1.15166C11.0258 1.68029 9.75582 2.19372 8.37978 2.56714C7.4067 2.83094 6.45103 3.00869 5.60174 3.08689C5.70146 3.01432 5.80254 2.94329 5.90516 2.87414C7.5812 1.7438 9.54905 1.14636 11.5958 1.14636ZM19.1163 11.755C19.0765 11.7541 19.0371 11.7536 18.9971 11.7536C17.7869 11.7536 16.6492 12.2245 15.7936 13.0798C15.0621 13.8116 14.0894 14.2147 13.0545 14.2147H2.18955C2.07567 13.9108 1.978 13.6023 1.89655 13.2898H13.0545C14.2645 13.2898 15.4019 12.8186 16.2571 11.9629C16.9784 11.2422 17.9771 10.8289 18.9973 10.8289C19.0331 10.8289 19.0686 10.8292 19.1047 10.8301C19.1072 10.8302 19.1098 10.8302 19.1125 10.8302H21.601C21.6012 10.8488 21.6015 10.8676 21.6015 10.8862C21.6015 11.1782 21.588 11.468 21.562 11.755H19.1163ZM22.1545 9.54502L21.6788 10.0082C21.6321 10.0538 21.601 10.1119 21.5875 10.1746H19.1163C19.0763 10.1735 19.0371 10.1732 18.9971 10.1732C17.7869 10.1732 16.6492 10.6441 15.7936 11.4992C15.0621 12.2312 14.0894 12.6342 13.0545 12.6342H1.74954C1.64368 12.0632 1.59023 11.4797 1.59023 10.8862C1.59023 10.5067 1.61311 10.1279 1.65785 9.75264H4.6232C5.1117 9.75264 5.57066 9.56243 5.91591 9.21718C6.26116 8.87211 6.4512 8.41297 6.4512 7.92464C6.4512 6.91672 5.63111 6.09663 4.6232 6.09663H2.88107C3.37829 5.23932 4.0051 4.46191 4.74374 3.78746C5.83378 3.77893 7.17909 3.57198 8.55138 3.19975C10.4055 2.69674 12.0339 1.96851 12.9536 1.23549C13.523 1.31079 14.0841 1.43373 14.6322 1.60345C14.7295 1.6335 14.8352 1.61677 14.9185 1.55769L15.7483 0.970155C15.7898 0.940786 15.8438 0.936688 15.8892 0.959739L17.3675 1.70692C17.4129 1.7298 17.4416 1.77573 17.4426 1.82662L17.4614 2.83282C17.4635 2.93527 17.5132 3.03089 17.5958 3.09133C18.1666 3.50846 18.6865 3.97989 19.1489 4.49725C18.7161 6.2474 17.1256 7.5017 15.3069 7.5017H11.893C11.7121 7.5017 11.5652 7.64854 11.5652 7.82953C11.5652 8.01052 11.7121 8.15736 11.893 8.15736H15.3069C17.2674 8.15736 18.9997 6.90614 19.6482 5.10374C20.1882 5.81558 20.6284 6.59845 20.954 7.43443C20.9945 7.53824 21.0848 7.61439 21.1941 7.63659L21.6196 7.72333C21.6694 7.73357 21.7094 7.77011 21.7237 7.81895L22.1904 9.40842C22.2047 9.45708 22.1909 9.5095 22.1545 9.54502V9.54502Z" fill="black"/>
<path d="M9.72644 7.74121C8.71374 7.74121 7.88989 8.56506 7.88989 9.57775C7.88989 10.5903 8.71374 11.4141 9.72644 11.4141C10.739 11.4141 11.5628 10.5903 11.5628 9.57775C11.5628 8.56506 10.739 7.74121 9.72644 7.74121ZM9.72644 10.7585C9.07521 10.7585 8.54556 10.2288 8.54556 9.57775C8.54556 8.92653 9.07521 8.39688 9.72644 8.39688C10.3775 8.39688 10.9071 8.92653 10.9071 9.57775C10.9071 10.2288 10.3775 10.7585 9.72644 10.7585Z" fill="black"/>
<path d="M9.15773 5.83192C9.15773 5.12708 8.58436 4.55371 7.87952 4.55371C7.17468 4.55371 6.60132 5.12708 6.60132 5.83192C6.60132 6.53675 7.17468 7.11012 7.87952 7.11012C8.58436 7.11012 9.15773 6.53675 9.15773 5.83192ZM7.87952 6.45463C7.53615 6.45463 7.25698 6.17529 7.25698 5.83192C7.25698 5.48872 7.53632 5.20938 7.87952 5.20938C8.22272 5.20938 8.50206 5.48872 8.50206 5.83192C8.50206 6.17529 8.22272 6.45463 7.87952 6.45463Z" fill="black"/>
<path d="M16.436 4.55371C15.9156 4.55371 15.4919 4.97733 15.4919 5.49794C15.4919 6.01837 15.9154 6.44199 16.436 6.44199C16.9566 6.44199 17.3801 6.01837 17.3801 5.49794C17.3801 4.97733 16.9566 4.55371 16.436 4.55371V4.55371ZM16.436 5.78633C16.277 5.78633 16.1476 5.6569 16.1476 5.49794C16.1476 5.3388 16.277 5.20938 16.436 5.20938C16.5951 5.20938 16.7244 5.3388 16.7244 5.49794C16.7244 5.6569 16.5951 5.78633 16.436 5.78633Z" fill="black"/>
<path d="M14.3436 8.68433H12.8876C12.7065 8.68433 12.5598 8.831 12.5598 9.01216C12.5598 9.19315 12.7065 9.33999 12.8876 9.33999H14.3436C14.5248 9.33999 14.6714 9.19315 14.6714 9.01216C14.6714 8.831 14.5248 8.68433 14.3436 8.68433Z" fill="black"/>
<path d="M11.9613 3.78872H11.9659H11.9675C12.1478 3.78872 12.2943 3.64307 12.2953 3.46243C12.2961 3.28143 12.15 3.13391 11.969 3.13306H11.9644C11.9639 3.13306 11.9634 3.13306 11.9628 3.13306C11.7825 3.13306 11.6359 3.27887 11.635 3.45935C11.6342 3.64051 11.7803 3.78787 11.9613 3.78872Z" fill="black"/>
<path d="M10.4493 19.3252H10.4509C10.6312 19.3252 10.7777 19.1795 10.7787 18.9989C10.7795 18.8179 10.6334 18.6704 10.4524 18.6697H10.4478C10.4473 18.6697 10.4468 18.6697 10.4462 18.6697C10.2659 18.6697 10.1193 18.8153 10.1184 18.996C10.1176 19.177 10.2635 19.3245 10.4447 19.3252H10.4493Z" fill="black"/>
<path d="M12.8571 9.66113H12.8525C12.6713 9.66113 12.5247 9.80797 12.5247 9.98897C12.5247 10.17 12.6713 10.3168 12.8525 10.3168H12.8571C13.0381 10.3168 13.1849 10.17 13.1849 9.98897C13.1849 9.80797 13.0381 9.66113 12.8571 9.66113Z" fill="black"/>
<path d="M10.0843 20.9394C9.73293 20.749 9.31716 20.5773 8.8821 20.4431C8.3171 20.2686 7.76474 20.1685 7.2846 20.1533C7.1031 20.1466 6.95233 20.2897 6.9467 20.4707C6.94106 20.6517 7.08312 20.803 7.26411 20.8086C7.68039 20.8218 8.18631 20.9143 8.68882 21.0695C9.08324 21.1913 9.45786 21.3456 9.77186 21.5159C9.82155 21.5427 9.87499 21.5555 9.92775 21.5555C10.0442 21.5555 10.1569 21.4933 10.2163 21.3839C10.3025 21.2246 10.2435 21.0256 10.0843 20.9394V20.9394Z" fill="black"/>
<path d="M16.8323 2.84663C17.0133 2.84663 17.1601 2.69979 17.1601 2.5188C17.1601 2.33764 17.0133 2.19097 16.8323 2.19097C16.3037 2.19097 15.8094 1.81037 15.6779 1.67702C15.5509 1.54811 15.3432 1.54657 15.2143 1.67378C15.0854 1.80081 15.084 2.00844 15.2111 2.13735C15.4528 2.38254 16.103 2.84663 16.8323 2.84663Z" fill="black"/>
<path d="M21.4748 8.15758C21.477 7.97659 21.3321 7.82804 21.1511 7.82599C20.9692 7.82241 20.8215 7.96874 20.8193 8.1499C20.8142 8.57932 20.8958 9.17574 21.3143 9.57819C21.3778 9.63931 21.4598 9.66971 21.5416 9.66971C21.6276 9.66971 21.7135 9.63607 21.7779 9.56914C21.9034 9.43869 21.8993 9.23123 21.7688 9.10573C21.5062 8.85303 21.4719 8.40328 21.4748 8.15758Z" fill="black"/>
</svg>
