<svg width="22" height="22" viewBox="0 0 22 22" fill="none" xmlns="http://www.w3.org/2000/svg">
<g clip-path="url(#clip0_17506_22804)">
<path d="M2.06287 21.4976H1.5083C1.16853 21.4976 0.893066 21.2222 0.893066 20.8824V20.3278C0.893066 18.8436 1.27201 17.3719 1.98888 16.0717C2.70321 14.7762 3.74119 13.6719 4.99065 12.8782C5.23387 12.7236 5.55183 12.7586 5.75555 12.9625L9.42817 16.6351C9.63194 16.8389 9.66696 17.1568 9.51246 17.4C8.71872 18.6495 7.61442 19.6875 6.31894 20.4018C5.01879 21.1187 3.54706 21.4976 2.06287 21.4976V21.4976Z" fill="#FFE137"/>
<path d="M1.50829 21.4976H2.06287C3.54706 21.4976 5.01878 21.1187 6.31898 20.4018C7.61445 19.6875 8.71876 18.6495 9.51249 17.4C9.66704 17.1568 9.63201 16.8389 9.42821 16.6351L7.5919 14.7988L1.07324 21.3174C1.1846 21.4288 1.33841 21.4976 1.50829 21.4976V21.4976Z" fill="#FFC808"/>
<path d="M14.1177 20.4894C14.085 20.4894 14.052 20.4868 14.0192 20.4815C13.8239 20.4498 13.6559 20.3262 13.5674 20.1493L11.7589 16.5322C11.6255 16.2655 11.7026 15.9417 11.9417 15.7636L17.2871 11.7834C17.4668 11.6496 17.705 11.6241 17.909 11.7167C18.113 11.8094 18.2505 12.0057 18.2679 12.229C18.4685 14.8024 17.5372 17.3247 15.7128 19.1491L14.5527 20.3092C14.4364 20.4254 14.2795 20.4894 14.1177 20.4894V20.4894Z" fill="#48FB21"/>
<path d="M6.13339 10.6971C6.04041 10.6971 5.9464 10.676 5.85855 10.6321L2.24146 8.82349C2.06456 8.73506 1.94098 8.56697 1.90931 8.37174C1.87765 8.17655 1.94172 7.97799 2.08158 7.83817L3.24171 6.67808C5.06608 4.85366 7.58854 3.92261 10.1617 4.12297C10.3851 4.1404 10.5814 4.27785 10.6741 4.48186C10.7668 4.68587 10.7412 4.92409 10.6074 5.10378L6.62718 10.4492C6.50778 10.6096 6.32276 10.6971 6.13339 10.6971Z" fill="#21FB2D"/>
<path d="M21.1411 7.24398C19.5712 7.15851 18.0979 6.50287 16.9929 5.39783C15.8878 4.29279 15.2322 2.81955 15.1467 1.24955L15.1355 1.04468C13.103 1.6536 11.2207 2.75921 9.67665 4.30325L9.64617 4.33376C7.25833 6.72161 5.44634 9.53557 4.26062 12.6975C4.17592 12.9235 4.23105 13.178 4.40163 13.3486L9.04201 17.989C9.15948 18.1065 9.31682 18.1692 9.47715 18.1692C9.54962 18.1692 9.62275 18.1564 9.69306 18.13C12.855 16.9443 15.6689 15.1324 18.0568 12.7445L18.0874 12.7138C19.6314 11.1699 20.7369 9.28763 21.3458 7.25514L21.1411 7.24398Z" fill="#0D540B"/>
<path d="M9.04214 17.9891C9.15961 18.1066 9.31694 18.1693 9.47727 18.1693C9.54975 18.1693 9.62288 18.1565 9.69318 18.1301C12.8551 16.9444 15.6691 15.1325 18.057 12.7446L18.0876 12.714C19.6316 11.17 20.7371 9.28775 21.346 7.25526L21.1412 7.2441C19.5712 7.15863 18.098 6.50299 16.9929 5.39795L6.72192 15.6689L9.04214 17.9891Z" fill="#0D540B"/>
<path d="M21.6834 1.20262C21.6376 0.950539 21.4403 0.753213 21.1882 0.707398C18.992 0.308029 16.7659 0.486816 14.7104 1.18027L14.7366 1.65978C14.8221 3.22974 15.4777 4.70298 16.5827 5.80806C17.6878 6.91306 19.161 7.56874 20.731 7.65421L21.2105 7.68034C21.9039 5.62497 22.0827 3.39884 21.6834 1.20262V1.20262Z" fill="#21FB2D"/>
<path d="M16.5828 5.80809C17.6878 6.91309 19.161 7.56877 20.731 7.65424L21.2106 7.68037C21.904 5.625 22.0828 3.39892 21.6835 1.20265C21.6605 1.07661 21.5998 0.964228 21.5132 0.877686L16.5828 5.80809Z" fill="#48FB21"/>
<path d="M13.8277 11.2292C13.1156 11.2292 12.446 10.9519 11.9425 10.4484C11.439 9.94488 11.1616 9.27535 11.1616 8.56323C11.1616 7.85112 11.4389 7.18158 11.9425 6.67807C12.446 6.17452 13.1156 5.89722 13.8277 5.89722C14.5398 5.89722 15.2093 6.17452 15.7128 6.67807C16.2164 7.18158 16.4937 7.85112 16.4937 8.56323C16.4937 9.27535 16.2164 9.94488 15.7128 10.4484C15.2093 10.9519 14.5398 11.2292 13.8277 11.2292Z" fill="#21FB2D"/>
<path d="M5.41697 17.5891C5.25951 17.5891 5.10205 17.529 4.98196 17.4089C4.74169 17.1686 4.74169 16.7791 4.98196 16.5388L10.2023 11.3184C10.4426 11.0781 10.8321 11.0781 11.0724 11.3184C11.3127 11.5586 11.3127 11.9482 11.0724 12.1884L5.85198 17.4089C5.73185 17.529 5.57439 17.5891 5.41697 17.5891V17.5891Z" fill="#21FB2D"/>
<path d="M11.9426 10.4483C12.4461 10.9518 13.1157 11.2292 13.8278 11.2292C14.5399 11.2292 15.2094 10.9518 15.7129 10.4483C16.2165 9.94479 16.4938 9.27525 16.4938 8.56314C16.4938 7.85103 16.2165 7.18149 15.7129 6.67798L11.9426 10.4483Z" fill="#48FB21"/>
<path d="M4.98193 17.4089C5.10207 17.529 5.25953 17.5891 5.41695 17.5891C5.57436 17.5891 5.73186 17.529 5.85196 17.4089L11.0724 12.1884C11.3127 11.9482 11.3127 11.5586 11.0724 11.3184C11.0724 11.3184 11.0724 11.3184 11.0723 11.3184L4.98193 17.4089Z" fill="#48FB21"/>
<path d="M4.43562 12.4532C4.13113 13.0622 4.43562 13.3901 4.43562 13.3901C1.59555 15.2054 -0.294179 20.9384 1.27398 21.5602C4.58484 22.8732 9.03236 18.0454 9.03236 18.0454C9.17242 18.1423 9.53179 18.1774 9.93999 18.0454L12.0773 17.0792C12.3408 17.655 12.9791 19.0116 13.4241 19.8314C13.9804 20.8561 14.5953 20.212 14.6246 20.212C18.5186 17.6355 18.2844 12.4532 18.3137 12.4532C22.2663 8.29567 21.9087 2.40081 21.9087 1.46331C21.9087 0.8645 21.3586 0.71247 21.3586 0.71247C13.6118 -0.599182 9.93999 4.13808 9.93999 4.13808C5.46037 4.1088 2.67889 7.24163 2.12263 7.79793C1.67762 8.24296 1.93721 8.60796 2.12263 8.73484L5.31399 10.3744C5.14807 10.8136 4.74011 11.8442 4.43562 12.4532Z" stroke="black" stroke-width="0.5"/>
<path d="M13.8277 9.99878C13.4442 9.99878 13.0837 9.84948 12.8126 9.57833C12.5414 9.30721 12.3921 8.94669 12.3921 8.56323C12.3921 8.17978 12.5414 7.81929 12.8126 7.54814C13.0837 7.27698 13.4442 7.12769 13.8277 7.12769C14.2111 7.12769 14.5716 7.27698 14.8428 7.54814C15.1139 7.81925 15.2632 8.17978 15.2632 8.56323C15.2632 8.94669 15.1139 9.30717 14.8428 9.57833C14.5716 9.84948 14.2111 9.99878 13.8277 9.99878Z" fill="#84D6FF"/>
<path d="M12.8125 9.57829C13.0836 9.84944 13.4441 9.99874 13.8276 9.99874C14.2111 9.99874 14.5715 9.84944 14.8427 9.57829C15.1138 9.30718 15.2631 8.94665 15.2631 8.56319C15.2631 8.17974 15.1138 7.81925 14.8427 7.5481L12.8125 9.57829Z" fill="#37C3FF"/>
</g>
<defs>
<clipPath id="clip0_17506_22804">
<rect width="21" height="21" fill="white" transform="translate(0.893066 0.479004)"/>
</clipPath>
</defs>
</svg>
