<svg width="18" height="25" viewBox="0 0 18 25" fill="none" xmlns="http://www.w3.org/2000/svg">
<path d="M13.7024 4.53685L14.8341 3.40531C14.0539 2.62516 13.1278 2.00632 12.1085 1.5841C11.0891 1.16189 9.99665 0.94458 8.89336 0.94458C7.79006 0.94458 6.69757 1.16189 5.67826 1.5841C4.65895 2.00632 3.73278 2.62516 2.95264 3.40531L4.08418 4.5369L13.7024 4.53685Z" fill="#41F50C"/>
<path d="M4.08394 14.1553L2.95239 15.2868C3.73254 16.067 4.65871 16.6858 5.67802 17.108C6.69733 17.5302 7.78982 17.7475 8.89311 17.7475C9.99641 17.7475 11.0889 17.5302 12.1082 17.108C13.1275 16.6858 14.0537 16.067 14.8338 15.2868L13.7022 14.1553H4.08394Z" fill="#B97A0A"/>
<path d="M14.834 3.40527L13.7023 4.53682H4.08397L2.95243 3.40527C2.17228 4.18542 1.55343 5.11159 1.13122 6.1309C0.70901 7.15021 0.491699 8.2427 0.491699 9.34599C0.491699 10.4493 0.70901 11.5418 1.13122 12.5611C1.55343 13.5804 2.17228 14.5066 2.95243 15.2867L4.08397 14.1552H13.7023L14.834 15.2867C16.4095 13.7111 17.2947 11.5742 17.2947 9.34597C17.2947 7.11778 16.4095 4.98085 14.834 3.40527Z" fill="#41F50C"/>
<path d="M8.89321 16.1473C12.6494 16.1473 15.6944 13.1023 15.6944 9.34609C15.6944 5.58991 12.6494 2.54492 8.89321 2.54492C5.13703 2.54492 2.09204 5.58991 2.09204 9.34609C2.09204 13.1023 5.13703 16.1473 8.89321 16.1473Z" fill="#3B8686"/>
<path d="M8.89311 15.2867C12.1741 15.2867 14.8338 12.627 14.8338 9.34599C14.8338 6.06503 12.1741 3.40527 8.89311 3.40527C5.61214 3.40527 2.95239 6.06503 2.95239 9.34599C2.95239 12.627 5.61214 15.2867 8.89311 15.2867Z" fill="#41F50C"/>
<path d="M12.4445 6.99581L8.893 4.94531L5.375 6.97646L8.893 9.16574L12.4445 6.99581Z" fill="#D78E0C"/>
<path d="M5.37506 6.97656L5.34155 6.99592V11.0968L8.89306 13.1473V9.16584L5.37506 6.97656Z" fill="#ECAB2C"/>
<path d="M8.89307 9.16577V13.1472L12.4446 11.0968V6.99585L8.89307 9.16577Z" fill="#B97A0A"/>
<path d="M13.0938 10.4766H4.69231C4.13993 10.4766 3.69214 10.9244 3.69214 11.4767V23.0787C3.69214 23.6311 4.13993 24.0789 4.69231 24.0789H13.0938C13.6461 24.0789 14.0939 23.6311 14.0939 23.0787V11.4767C14.0939 10.9244 13.6461 10.4766 13.0938 10.4766Z" fill="#D6D5D0"/>
<path d="M5.29224 11.9968H12.4935V17.7578H5.29224V11.9968Z" fill="#92D1F7"/>
<path d="M5.29224 20.8784H10.4931V22.4787H5.29224V20.8784Z" fill="#41F50C"/>
<path d="M10.4932 20.8784H12.4935V22.4787H10.4932V20.8784Z" fill="#41F50C"/>
<path d="M9.47205 16.4356L8.67441 16.8342L8.49288 16.9287V16.4776H7.62573L8.30835 16.1226C8.31035 16.1216 8.31185 16.1206 8.31385 16.1196L9.11399 15.7195C9.20895 15.672 9.31889 15.6642 9.41961 15.6978C9.52034 15.7314 9.6036 15.8036 9.65108 15.8985C9.69856 15.9935 9.70638 16.1034 9.6728 16.2042C9.63923 16.3049 9.56701 16.3882 9.47205 16.4356V16.4356Z" fill="#ECEBE6"/>
<path d="M9.29299 14.0773H8.09278L6.89258 15.2775V16.4777H8.49285V17.7579H11.7226L11.2096 16.2264C11.0036 15.6085 10.6141 15.0682 10.0931 14.6774V13.6772L9.29299 14.0773Z" fill="#ECEBE6"/>
<path d="M11.7225 17.758L11.0934 17.7475L10.8119 15.9517L10.0933 14.6775C10.6143 15.0681 11.0038 15.6084 11.2095 16.2263L11.7225 17.758Z" fill="#ECEBE6"/>
<path d="M11.7225 17.7578L11.0934 17.7473L11.0384 17.3967C10.8886 16.441 10.5685 15.5199 10.0933 14.6772C10.6143 15.0678 11.0038 15.6082 11.2095 16.226L11.7225 17.7578Z" fill="#5292C1"/>
<path d="M15.1166 3.05277C11.6848 -0.378919 6.10106 -0.378919 2.66942 3.05277C1.01884 4.70337 0.0915527 6.94205 0.0915527 9.27634C0.0915527 11.6106 1.01884 13.8493 2.66942 15.4999C2.86745 15.698 3.07669 15.8872 3.29202 16.0654V23.0788C3.29245 23.45 3.44011 23.8059 3.70261 24.0684C3.96512 24.3309 4.32103 24.4786 4.69226 24.479H13.0937C13.4649 24.4786 13.8208 24.3309 14.0833 24.0684C14.3458 23.8059 14.4935 23.45 14.4939 23.0788V16.0664L14.4959 16.0648C14.7101 15.8877 14.919 15.6976 15.1166 15.5C16.7671 13.8494 17.6944 11.6107 17.6944 9.27644C17.6944 6.94215 16.7671 4.70337 15.1166 3.05277ZM14.8265 14.6444L14.5418 14.3597C14.5268 14.3449 14.5107 14.3314 14.4936 14.3192V13.8034C15.5682 12.4739 16.1346 10.8054 16.0918 9.09649C16.0489 7.38756 15.3995 5.7496 14.2598 4.47557L14.8268 3.90857C16.1575 5.37979 16.8943 7.29283 16.8943 9.27659C16.8943 11.2603 16.1572 13.1732 14.8265 14.6444ZM8.89294 8.83361L6.03815 7.18538L8.89294 5.5372L11.7477 7.18538L8.89294 8.83361ZM5.74149 7.93806L8.49287 9.52643V10.0765H5.74149V7.93806ZM9.293 9.52643L12.0444 7.93791V10.0765H9.293V9.52643ZM12.6445 6.77906L9.09297 4.72871C9.03214 4.69362 8.96316 4.67515 8.89294 4.67515C8.82271 4.67515 8.75373 4.69362 8.6929 4.72871L5.14139 6.77906C5.08057 6.81417 5.03007 6.86468 4.99496 6.92549C4.95985 6.98631 4.94136 7.0553 4.94136 7.12552V10.0765H4.69221C4.32098 10.077 3.96507 10.2246 3.70256 10.4871C3.44006 10.7496 3.2924 11.1055 3.29197 11.4768V12.3781C2.75279 11.4036 2.4772 10.3052 2.49243 9.1916C2.50767 8.07797 2.8132 6.98759 3.37884 6.02819C3.94448 5.06878 4.75065 4.27357 5.7177 3.7211C6.68474 3.16864 7.7792 2.87805 8.89294 2.87805C10.0067 2.87805 11.1011 3.16864 12.0682 3.7211C13.0352 4.27357 13.8414 5.06878 14.407 6.02819C14.9727 6.98759 15.2782 8.07797 15.2934 9.1916C15.3087 10.3052 15.0331 11.4036 14.4939 12.3781V11.4768C14.4935 11.1055 14.3458 10.7496 14.0833 10.4871C13.8208 10.2246 13.4649 10.077 13.0937 10.0765H12.8445V7.12567C12.8445 7.05545 12.826 6.98646 12.7909 6.92564C12.7558 6.86483 12.7053 6.81417 12.6445 6.77906ZM14.2608 3.34262L13.6941 3.90942C12.3728 2.73038 10.6638 2.07876 8.89294 2.07876C7.12205 2.07876 5.41308 2.73038 4.09176 3.90942L3.52511 3.34277C6.56339 0.590998 11.2225 0.590848 14.2608 3.34262ZM2.95912 3.90837L3.52606 4.47557C2.38631 5.74956 1.73692 7.38745 1.69404 9.09633C1.65115 10.8052 2.21756 12.4736 3.29197 13.8032V14.3116L2.95912 14.6444C1.6284 13.1732 0.891565 11.2601 0.891565 9.27639C0.891565 7.29263 1.6284 5.37959 2.95912 3.90837ZM13.6938 23.0788C13.6936 23.2379 13.6303 23.3904 13.5178 23.5029C13.4053 23.6154 13.2528 23.6787 13.0937 23.6789H4.69221C4.53311 23.6787 4.38057 23.6154 4.26807 23.5029C4.15556 23.3904 4.09228 23.2379 4.09211 23.0788V11.4768C4.09228 11.3177 4.15556 11.1651 4.26807 11.0526C4.38057 10.9401 4.53311 10.8768 4.69221 10.8767H13.0937C13.2528 10.8768 13.4053 10.9401 13.5178 11.0526C13.6303 11.1651 13.6936 11.3177 13.6938 11.4768V23.0788Z" fill="black"/>
<path d="M12.4936 11.5967H5.2924C5.1863 11.5967 5.08454 11.6388 5.00951 11.7139C4.93448 11.7889 4.89233 11.8906 4.89233 11.9967V17.7577C4.89233 17.8638 4.93448 17.9656 5.00951 18.0406C5.08454 18.1157 5.1863 18.1578 5.2924 18.1578H12.4936C12.5997 18.1578 12.7015 18.1157 12.7765 18.0406C12.8516 17.9656 12.8937 17.8638 12.8937 17.7577V11.9967C12.8937 11.8906 12.8516 11.7889 12.7765 11.7139C12.7015 11.6388 12.5997 11.5967 12.4936 11.5967V11.5967ZM8.25856 14.4772H9.29309C9.35521 14.4772 9.41647 14.4627 9.47202 14.4349L9.69316 14.3243V14.6772C9.69316 14.7393 9.70762 14.8006 9.7354 14.8561C9.76317 14.9117 9.8035 14.96 9.85319 14.9973C10.3096 15.3386 10.6505 15.8116 10.8301 16.3525L11.1384 17.2777H8.89302V16.7248L9.47202 16.4353C9.51943 16.412 9.56177 16.3796 9.59659 16.3399C9.63142 16.3002 9.65804 16.2541 9.67493 16.204C9.69182 16.154 9.69864 16.1011 9.695 16.0485C9.69135 15.9958 9.67732 15.9443 9.6537 15.8971C9.63009 15.8499 9.59736 15.8078 9.5574 15.7733C9.51744 15.7388 9.47105 15.7125 9.42089 15.696C9.37073 15.6795 9.31781 15.6731 9.26517 15.6772C9.21252 15.6812 9.1612 15.6957 9.11416 15.7196L8.39849 16.0775H7.29275V15.443L8.25856 14.4772ZM12.0936 17.3577H12.0086L11.5892 16.0997C11.3804 15.4702 11.001 14.911 10.4933 14.4843V13.677C10.4933 13.6088 10.4759 13.5418 10.4427 13.4822C10.4094 13.4227 10.3616 13.3726 10.3035 13.3367C10.2455 13.3009 10.1793 13.2804 10.1112 13.2774C10.0431 13.2743 9.97529 13.2887 9.9143 13.3192L9.19862 13.677H8.25846L7.5755 12.9941C7.50047 12.919 7.3987 12.8769 7.2926 12.8769C7.18649 12.8769 7.08473 12.919 7.0097 12.9941C6.93467 13.0691 6.89252 13.1709 6.89252 13.277C6.89252 13.3831 6.93467 13.4848 7.0097 13.5599L7.52709 14.0771L6.60978 14.9944C6.57263 15.0316 6.54316 15.0757 6.52306 15.1242C6.50295 15.1728 6.49261 15.2248 6.49261 15.2773V16.4775C6.49261 16.5836 6.53476 16.6854 6.60979 16.7604C6.68481 16.8354 6.78657 16.8776 6.89268 16.8776H8.09288V17.3577H5.69247V12.3968H12.0936V17.3577Z" fill="black"/>
<path d="M12.4936 20.4783H5.2924C5.1863 20.4783 5.08454 20.5204 5.00951 20.5954C4.93448 20.6705 4.89233 20.7722 4.89233 20.8783V22.4786C4.89233 22.5847 4.93448 22.6865 5.00951 22.7615C5.08454 22.8365 5.1863 22.8787 5.2924 22.8787H12.4936C12.5997 22.8787 12.7015 22.8365 12.7765 22.7615C12.8516 22.6865 12.8937 22.5847 12.8937 22.4786V20.8783C12.8937 20.7722 12.8516 20.6705 12.7765 20.5954C12.7015 20.5204 12.5997 20.4783 12.4936 20.4783ZM5.69247 21.2784H10.0932V22.0785H5.69247V21.2784ZM12.0936 22.0785H10.8934V21.2784H12.0936V22.0785Z" fill="black"/>
<path d="M7.99269 19.6781C8.09879 19.6781 8.20055 19.6359 8.27558 19.5609C8.35061 19.4859 8.39276 19.3841 8.39276 19.278C8.39276 19.1719 8.35061 19.0701 8.27558 18.9951C8.20055 18.9201 8.09879 18.8779 7.99269 18.8779H6.8925C6.7864 18.8779 6.68464 18.9201 6.60961 18.9951C6.53458 19.0701 6.49243 19.1719 6.49243 19.278C6.49243 19.3841 6.53458 19.4859 6.60961 19.5609C6.68464 19.6359 6.7864 19.6781 6.8925 19.6781H7.99269Z" fill="black"/>
<path d="M12.4935 18.8779H9.69304C9.58693 18.8779 9.48517 18.9201 9.41015 18.9951C9.33512 19.0701 9.29297 19.1719 9.29297 19.278C9.29297 19.3841 9.33512 19.4859 9.41015 19.5609C9.48517 19.6359 9.58693 19.6781 9.69304 19.6781H12.4935C12.5996 19.6781 12.7014 19.6359 12.7764 19.5609C12.8514 19.4859 12.8936 19.3841 12.8936 19.278C12.8936 19.1719 12.8514 19.0701 12.7764 18.9951C12.7014 18.9201 12.5996 18.8779 12.4935 18.8779Z" fill="black"/>
<path d="M8.49292 15.4275C8.65864 15.4275 8.79297 15.2932 8.79297 15.1274C8.79297 14.9617 8.65864 14.8274 8.49292 14.8274C8.32721 14.8274 8.19287 14.9617 8.19287 15.1274C8.19287 15.2932 8.32721 15.4275 8.49292 15.4275Z" fill="black"/>
</svg>
