<svg width="16" height="29" viewBox="0 0 16 29" fill="none" xmlns="http://www.w3.org/2000/svg">
<rect x="2.05713" y="2.479" width="11.6716" height="24" rx="5.83582" fill="#6BED0E" stroke="black" stroke-width="4"/>
<path d="M9.1719 14.6055H9.7634V11.648H8.58041L7.79175 10.8594H9.96056C10.2867 10.8594 10.5521 11.1247 10.5521 11.4509V14.6055H11.1436L10.1577 15.5913L9.1719 14.6055Z" fill="white"/>
<path d="M6.80604 15.5913C6.47987 15.5913 6.21454 15.326 6.21454 14.9998V11.8452H5.62305L6.60887 10.8594L7.5947 11.8452H7.0032V14.8027H8.18619L8.96503 15.5813L8.9787 15.5913H6.80604Z" fill="white"/>
<path d="M10.1577 15.7884C10.1073 15.7884 10.0568 15.7691 10.0183 15.7306L9.03252 14.7448C8.9761 14.6884 8.95916 14.6037 8.98977 14.5299C9.02019 14.4562 9.0922 14.4082 9.17192 14.4082H9.56625V11.8451H8.58042C8.52815 11.8451 8.47799 11.8243 8.44102 11.7873L7.65236 10.9987C7.59594 10.9423 7.5791 10.8575 7.60962 10.7838C7.64013 10.7101 7.71205 10.6621 7.79176 10.6621H9.96058C10.3955 10.6621 10.7492 11.0158 10.7492 11.4508V14.4082H11.1436C11.2233 14.4082 11.2953 14.4562 11.3257 14.5299C11.3563 14.6037 11.3394 14.6884 11.283 14.7448L10.2971 15.7306C10.2586 15.7691 10.2082 15.7884 10.1577 15.7884V15.7884ZM9.64789 14.8026L10.1577 15.3124L10.6676 14.8026H10.5521C10.4431 14.8026 10.3549 14.7144 10.3549 14.6054V11.4508C10.3549 11.2334 10.178 11.0564 9.96058 11.0564H8.26773L8.66206 11.4508H9.56625C9.78363 11.4508 9.96058 11.6277 9.96058 11.8451V14.6054C9.96058 14.7144 9.87239 14.8026 9.76341 14.8026H9.64789ZM8.97475 15.7884H6.80594C6.37108 15.7884 6.01728 15.4347 6.01728 14.9997V12.0423H5.62295C5.54323 12.0423 5.47132 11.9943 5.4408 11.9206C5.41028 11.8468 5.42713 11.7621 5.48355 11.7057L6.46937 10.7199C6.54639 10.6429 6.67116 10.6429 6.74817 10.7199L7.71253 11.6841C7.76288 11.7199 7.79571 11.7787 7.79571 11.8451C7.79571 11.9547 7.70319 12.0484 7.59652 12.0423C7.59594 12.0423 7.59527 12.0423 7.5946 12.0423H7.20027V14.6054H8.18609C8.23837 14.6054 8.28853 14.6262 8.32549 14.6632L9.11415 15.4518C9.17057 15.5082 9.18751 15.593 9.1569 15.6667C9.12648 15.7405 9.05447 15.7884 8.97475 15.7884ZM6.09892 11.6479H6.21444C6.32333 11.6479 6.41161 11.7361 6.41161 11.8451V14.9997C6.41161 15.2171 6.58846 15.3941 6.80594 15.3941H8.49878L8.10445 14.9997H7.20027C6.98279 14.9997 6.80594 14.8228 6.80594 14.6054V11.8451C6.80594 11.7361 6.89422 11.6479 7.0031 11.6479H7.11863L6.60877 11.1381L6.09892 11.6479Z" fill="white"/>
<path d="M6.54606 25.6564H8.97337C10.3805 25.6564 10.3826 23.4641 8.97337 23.4641H6.54606C5.13901 23.4641 5.13693 25.6564 6.54606 25.6564ZM6.54606 24.2844H8.97337C9.32993 24.2844 9.32993 24.8361 8.97337 24.8361H6.54606C6.18955 24.8361 6.18955 24.2844 6.54606 24.2844Z" fill="#060606"/>
<rect x="0.0571289" y="4.03125" width="15.0448" height="0.626866" fill="black"/>
<mask id="path-7-inside-1_17506_22761" fill="white">
<rect x="0.0571289" y="0.479004" width="15.6716" height="28" rx="3"/>
</mask>
<rect x="0.0571289" y="0.479004" width="15.6716" height="28" rx="3" fill="black" stroke="black" stroke-width="8" mask="url(#path-7-inside-1_17506_22761)"/>
<rect x="0.684082" y="1.52368" width="14.4179" height="25.9104" rx="3" fill="#6BED0E"/>
<path d="M6.54606 25.6564H8.97337C10.3805 25.6564 10.3826 23.4641 8.97337 23.4641H6.54606C5.13901 23.4641 5.13693 25.6564 6.54606 25.6564ZM6.54606 24.2844H8.97337C9.32993 24.2844 9.32993 24.8361 8.97337 24.8361H6.54606C6.18955 24.8361 6.18955 24.2844 6.54606 24.2844Z" fill="#060606"/>
<circle cx="7.57952" cy="13.6432" r="3.99163" fill="black" stroke="black" stroke-width="3"/>
<path d="M7.62909 18.2789C10.1619 18.2789 12.2152 16.2257 12.2152 13.6928C12.2152 11.16 10.1619 9.10669 7.62909 9.10669C5.09624 9.10669 3.04297 11.16 3.04297 13.6928C3.04297 16.2257 5.09624 18.2789 7.62909 18.2789Z" fill="#D0EE7F"/>
<path d="M7.62919 9.10669C7.19576 9.10669 6.77689 9.16812 6.37939 9.28047C8.30452 9.82476 9.71572 11.5934 9.71572 13.6927C9.71572 15.7921 8.30452 17.5607 6.37939 18.105C6.77689 18.2174 7.19576 18.2788 7.62919 18.2788C10.162 18.2788 12.2153 16.2255 12.2153 13.6927C12.2153 11.1599 10.162 9.10669 7.62919 9.10669V9.10669Z" fill="#AEE617"/>
<path d="M8.15718 14.8841H8.66776V12.3312H7.6466L6.96582 11.6504H8.83796C9.11951 11.6504 9.34854 11.8794 9.34854 12.161V14.8841H9.85912L9.00815 15.7351L8.15718 14.8841Z" fill="#009FFF"/>
<path d="M6.11492 15.7351C5.83336 15.7351 5.60433 15.506 5.60433 15.2245V12.5014H5.09375L5.94472 11.6504L6.79569 12.5014H6.28511V15.0543H7.30628L7.97858 15.7264L7.99038 15.7351H6.11492Z" fill="#009FFF"/>
<mask id="path-15-inside-2_17506_22761" fill="white">
<path d="M9.00825 15.9053C8.9647 15.9053 8.92116 15.8887 8.88792 15.8554L8.03694 15.0044C7.98825 14.9557 7.97362 14.8826 8.00005 14.819C8.02631 14.7553 8.08847 14.7139 8.15728 14.7139H8.49767V12.5014H7.64669C7.60157 12.5014 7.55827 12.4834 7.52636 12.4515L6.84558 11.7708C6.79689 11.7221 6.78234 11.6489 6.80869 11.5853C6.83503 11.5216 6.89711 11.4802 6.96592 11.4802H8.83805C9.21351 11.4802 9.51883 11.7855 9.51883 12.161V14.7139H9.85922C9.92803 14.7139 9.99019 14.7553 10.0165 14.819C10.0429 14.8826 10.0283 14.9557 9.97955 15.0044L9.12858 15.8554C9.09534 15.8887 9.05179 15.9053 9.00825 15.9053ZM8.56814 15.0543L9.00825 15.4944L9.44836 15.0543H9.34864C9.25457 15.0543 9.17844 14.9782 9.17844 14.8841V12.161C9.17844 11.9734 9.0257 11.8206 8.83805 11.8206H7.37678L7.71717 12.161H8.49767C8.68531 12.161 8.83805 12.3137 8.83805 12.5014V14.8841C8.83805 14.9782 8.76193 15.0543 8.66786 15.0543H8.56814ZM7.98708 15.9053H6.11494C5.73957 15.9053 5.43417 15.6 5.43417 15.2245V12.6716H5.09378C5.02497 12.6716 4.96289 12.6302 4.93655 12.5665C4.9102 12.5029 4.92475 12.4298 4.97345 12.3811L5.82442 11.5301C5.8909 11.4636 5.9986 11.4636 6.06508 11.5301L6.89752 12.3624C6.94099 12.3934 6.96932 12.444 6.96932 12.5014C6.96932 12.596 6.88946 12.6769 6.79738 12.6716H6.79572H6.45533V14.8841H7.30631C7.35143 14.8841 7.39473 14.9021 7.42664 14.934L8.10742 15.6147C8.15611 15.6634 8.17074 15.7366 8.14431 15.8002C8.11805 15.8639 8.05589 15.9053 7.98708 15.9053ZM5.50464 12.3312H5.60436C5.69835 12.3312 5.77456 12.4073 5.77456 12.5014V15.2245C5.77456 15.4121 5.92722 15.5649 6.11494 15.5649H7.57622L7.23583 15.2245H6.45533C6.2676 15.2245 6.11494 15.0718 6.11494 14.8841V12.5014C6.11494 12.4073 6.19115 12.3312 6.28514 12.3312H6.38486L5.94475 11.8911L5.50464 12.3312Z"/>
</mask>
<path d="M9.00825 15.9053C8.9647 15.9053 8.92116 15.8887 8.88792 15.8554L8.03694 15.0044C7.98825 14.9557 7.97362 14.8826 8.00005 14.819C8.02631 14.7553 8.08847 14.7139 8.15728 14.7139H8.49767V12.5014H7.64669C7.60157 12.5014 7.55827 12.4834 7.52636 12.4515L6.84558 11.7708C6.79689 11.7221 6.78234 11.6489 6.80869 11.5853C6.83503 11.5216 6.89711 11.4802 6.96592 11.4802H8.83805C9.21351 11.4802 9.51883 11.7855 9.51883 12.161V14.7139H9.85922C9.92803 14.7139 9.99019 14.7553 10.0165 14.819C10.0429 14.8826 10.0283 14.9557 9.97955 15.0044L9.12858 15.8554C9.09534 15.8887 9.05179 15.9053 9.00825 15.9053ZM8.56814 15.0543L9.00825 15.4944L9.44836 15.0543H9.34864C9.25457 15.0543 9.17844 14.9782 9.17844 14.8841V12.161C9.17844 11.9734 9.0257 11.8206 8.83805 11.8206H7.37678L7.71717 12.161H8.49767C8.68531 12.161 8.83805 12.3137 8.83805 12.5014V14.8841C8.83805 14.9782 8.76193 15.0543 8.66786 15.0543H8.56814ZM7.98708 15.9053H6.11494C5.73957 15.9053 5.43417 15.6 5.43417 15.2245V12.6716H5.09378C5.02497 12.6716 4.96289 12.6302 4.93655 12.5665C4.9102 12.5029 4.92475 12.4298 4.97345 12.3811L5.82442 11.5301C5.8909 11.4636 5.9986 11.4636 6.06508 11.5301L6.89752 12.3624C6.94099 12.3934 6.96932 12.444 6.96932 12.5014C6.96932 12.596 6.88946 12.6769 6.79738 12.6716H6.79572H6.45533V14.8841H7.30631C7.35143 14.8841 7.39473 14.9021 7.42664 14.934L8.10742 15.6147C8.15611 15.6634 8.17074 15.7366 8.14431 15.8002C8.11805 15.8639 8.05589 15.9053 7.98708 15.9053ZM5.50464 12.3312H5.60436C5.69835 12.3312 5.77456 12.4073 5.77456 12.5014V15.2245C5.77456 15.4121 5.92722 15.5649 6.11494 15.5649H7.57622L7.23583 15.2245H6.45533C6.2676 15.2245 6.11494 15.0718 6.11494 14.8841V12.5014C6.11494 12.4073 6.19115 12.3312 6.28514 12.3312H6.38486L5.94475 11.8911L5.50464 12.3312Z" fill="#009FFF"/>
<path d="M8.88792 15.8554L8.18081 16.5625L8.18081 16.5625L8.88792 15.8554ZM8.03694 15.0044L8.74405 14.2973L8.74405 14.2973L8.03694 15.0044ZM8.00005 14.819L8.92362 15.2024L8.92447 15.2003L8.00005 14.819ZM8.49767 14.7139V15.7139H9.49767V14.7139H8.49767ZM8.49767 12.5014H9.49767V11.5014H8.49767V12.5014ZM7.52636 12.4515L6.81925 13.1586L6.81925 13.1586L7.52636 12.4515ZM6.84558 11.7708L7.55269 11.0636L7.55269 11.0636L6.84558 11.7708ZM9.51883 14.7139H8.51883V15.7139H9.51883V14.7139ZM10.0165 14.819L9.09202 15.2003L9.09288 15.2024L10.0165 14.819ZM9.12858 15.8554L8.42147 15.1483L8.42147 15.1483L9.12858 15.8554ZM8.56814 15.0543V14.0543H6.15392L7.86103 15.7614L8.56814 15.0543ZM9.00825 15.4944L8.30114 16.2015L9.00825 16.9086L9.71536 16.2015L9.00825 15.4944ZM9.44836 15.0543L10.1555 15.7614L11.8626 14.0543H9.44836V15.0543ZM7.37678 11.8206V10.8206H4.96256L6.66967 12.5277L7.37678 11.8206ZM7.71717 12.161L7.01006 12.8681L7.30295 13.161H7.71717V12.161ZM5.43417 12.6716H6.43417V11.6716H5.43417V12.6716ZM4.97345 12.3811L5.68055 13.0882L5.68055 13.0882L4.97345 12.3811ZM5.82442 11.5301L6.53152 12.2372L6.53152 12.2372L5.82442 11.5301ZM6.06508 11.5301L5.35798 12.2372L5.35801 12.2372L6.06508 11.5301ZM6.89752 12.3624L6.19045 13.0696L6.24967 13.1288L6.31791 13.1773L6.89752 12.3624ZM6.79738 12.6716L6.85505 11.6732L6.82624 11.6716H6.79738V12.6716ZM6.45533 12.6716V11.6716H5.45533V12.6716H6.45533ZM6.45533 14.8841H5.45533V15.8841H6.45533V14.8841ZM7.42664 14.934L6.71953 15.6411L6.71953 15.6411L7.42664 14.934ZM8.10742 15.6147L8.81452 14.9076L8.81452 14.9076L8.10742 15.6147ZM8.14431 15.8002L7.22074 15.4168L7.21989 15.4189L8.14431 15.8002ZM5.50464 12.3312L4.79753 11.6241L3.09042 13.3312H5.50464V12.3312ZM7.57622 15.5649V16.5649H9.99044L8.28333 14.8578L7.57622 15.5649ZM7.23583 15.2245L7.94294 14.5174L7.65005 14.2245H7.23583V15.2245ZM6.38486 12.3312V13.3312H8.79908L7.09197 11.6241L6.38486 12.3312ZM5.94475 11.8911L6.65186 11.184L5.94475 10.4769L5.23764 11.184L5.94475 11.8911ZM9.00825 14.9053C9.21928 14.9053 9.43334 14.9866 9.59502 15.1483L8.18081 16.5625C8.40898 16.7907 8.71013 16.9053 9.00825 16.9053V14.9053ZM9.59502 15.1483L8.74405 14.2973L7.32984 15.7115L8.18081 16.5625L9.59502 15.1483ZM8.74405 14.2973C8.98076 14.534 9.05282 14.8912 8.92362 15.2024L7.07647 14.4355C6.89443 14.8741 6.99573 15.3774 7.32984 15.7116L8.74405 14.2973ZM8.92447 15.2003C8.79553 15.5129 8.49146 15.7139 8.15728 15.7139V13.7139C7.68547 13.7139 7.25708 13.9977 7.07562 14.4376L8.92447 15.2003ZM8.15728 15.7139H8.49767V13.7139H8.15728V15.7139ZM9.49767 14.7139V12.5014H7.49767V14.7139H9.49767ZM8.49767 11.5014H7.64669V13.5014H8.49767V11.5014ZM7.64669 11.5014C7.86704 11.5014 8.07803 11.589 8.23347 11.7444L6.81925 13.1586C7.03852 13.3779 7.3361 13.5014 7.64669 13.5014V11.5014ZM8.23347 11.7444L7.55269 11.0636L6.13848 12.4779L6.81925 13.1586L8.23347 11.7444ZM7.55269 11.0636C7.79009 11.301 7.86086 11.6579 7.73269 11.9677L5.88468 11.2029C5.70382 11.6399 5.80368 12.1431 6.13848 12.4779L7.55269 11.0636ZM7.73269 11.9677C7.60402 12.2786 7.30087 12.4802 6.96592 12.4802V10.4802C6.49334 10.4802 6.06604 10.7646 5.88468 11.2029L7.73269 11.9677ZM6.96592 12.4802H8.83805V10.4802H6.96592V12.4802ZM8.83805 12.4802C8.66123 12.4802 8.51883 12.3378 8.51883 12.161H10.5188C10.5188 11.2333 9.7658 10.4802 8.83805 10.4802V12.4802ZM8.51883 12.161V14.7139H10.5188V12.161H8.51883ZM9.51883 15.7139H9.85922V13.7139H9.51883V15.7139ZM9.85922 15.7139C9.52504 15.7139 9.22096 15.5129 9.09202 15.2003L10.9409 14.4376C10.7594 13.9977 10.331 13.7139 9.85922 13.7139V15.7139ZM9.09288 15.2024C8.96368 14.8912 9.03574 14.534 9.27245 14.2973L10.6867 15.7115C11.0208 15.3774 11.1221 14.8741 10.94 14.4355L9.09288 15.2024ZM9.27245 14.2973L8.42147 15.1483L9.83569 16.5625L10.6867 15.7115L9.27245 14.2973ZM8.42147 15.1483C8.58316 14.9866 8.79722 14.9053 9.00825 14.9053V16.9053C9.30637 16.9053 9.60752 16.7907 9.83569 16.5625L8.42147 15.1483ZM7.86103 15.7614L8.30114 16.2015L9.71536 14.7873L9.27524 14.3472L7.86103 15.7614ZM9.71536 16.2015L10.1555 15.7614L8.74125 14.3472L8.30114 14.7873L9.71536 16.2015ZM9.44836 14.0543H9.34864V16.0543H9.44836V14.0543ZM9.34864 14.0543C9.80685 14.0543 10.1784 14.4259 10.1784 14.8841H8.17844C8.17844 15.5305 8.70228 16.0543 9.34864 16.0543V14.0543ZM10.1784 14.8841V12.161H8.17844V14.8841H10.1784ZM10.1784 12.161C10.1784 11.4211 9.57798 10.8206 8.83805 10.8206V12.8206C8.47342 12.8206 8.17844 12.5256 8.17844 12.161H10.1784ZM8.83805 10.8206H7.37678V12.8206H8.83805V10.8206ZM6.66967 12.5277L7.01006 12.8681L8.42427 11.4539L8.08388 11.1135L6.66967 12.5277ZM7.71717 13.161H8.49767V11.161H7.71717V13.161ZM8.49767 13.161C8.13303 13.161 7.83805 12.866 7.83805 12.5014H9.83805C9.83805 11.7615 9.2376 11.161 8.49767 11.161V13.161ZM7.83805 12.5014V14.8841H9.83805V12.5014H7.83805ZM7.83805 14.8841C7.83805 14.4259 8.20965 14.0543 8.66786 14.0543V16.0543C9.31422 16.0543 9.83805 15.5305 9.83805 14.8841H7.83805ZM8.66786 14.0543H8.56814V16.0543H8.66786V14.0543ZM7.98708 14.9053H6.11494V16.9053H7.98708V14.9053ZM6.11494 14.9053C6.29177 14.9053 6.43417 15.0476 6.43417 15.2245H4.43417C4.43417 16.1523 5.18737 16.9053 6.11494 16.9053V14.9053ZM6.43417 15.2245V12.6716H4.43417V15.2245H6.43417ZM5.43417 11.6716H5.09378V13.6716H5.43417V11.6716ZM5.09378 11.6716C5.42874 11.6716 5.73188 11.8732 5.86055 12.1842L4.01255 12.9489C4.19391 13.3872 4.6212 13.6716 5.09378 13.6716V11.6716ZM5.86055 12.1842C5.98872 12.4939 5.91796 12.8508 5.68055 13.0882L4.26634 11.674C3.93154 12.0088 3.83169 12.5119 4.01255 12.9489L5.86055 12.1842ZM5.68055 13.0882L6.53152 12.2372L5.11731 10.823L4.26634 11.674L5.68055 13.0882ZM6.53152 12.2372C6.20748 12.5612 5.68202 12.5612 5.35798 12.2372L6.77219 10.823C6.31518 10.366 5.57432 10.366 5.11731 10.823L6.53152 12.2372ZM5.35801 12.2372L6.19045 13.0696L7.60459 11.6553L6.77215 10.8229L5.35801 12.2372ZM6.31791 13.1773C6.10943 13.029 5.96932 12.7819 5.96932 12.5014H7.96932C7.96932 12.1062 7.77254 11.7577 7.47714 11.5476L6.31791 13.1773ZM5.96932 12.5014C5.96932 12.0752 6.32045 11.6424 6.85505 11.6732L6.73972 13.6699C7.45847 13.7114 7.96932 13.1168 7.96932 12.5014H5.96932ZM6.79738 11.6716H6.79572V13.6716H6.79738V11.6716ZM6.79572 11.6716H6.45533V13.6716H6.79572V11.6716ZM5.45533 12.6716V14.8841H7.45533V12.6716H5.45533ZM6.45533 15.8841H7.30631V13.8841H6.45533V15.8841ZM7.30631 15.8841C7.08595 15.8841 6.87497 15.7965 6.71953 15.6411L8.13374 14.2269C7.91448 14.0076 7.61691 13.8841 7.30631 13.8841V15.8841ZM6.71953 15.6411L7.40031 16.3219L8.81452 14.9076L8.13374 14.2269L6.71953 15.6411ZM7.40031 16.3219C7.1636 16.0851 7.09154 15.728 7.22074 15.4168L9.06789 16.1837C9.24993 15.7451 9.14863 15.2417 8.81452 14.9076L7.40031 16.3219ZM7.21989 15.4189C7.34883 15.1063 7.6529 14.9053 7.98708 14.9053V16.9053C8.45888 16.9053 8.88728 16.6215 9.06874 16.1816L7.21989 15.4189ZM5.50464 13.3312H5.60436V11.3312H5.50464V13.3312ZM5.60436 13.3312C5.14638 13.3312 4.77456 12.9599 4.77456 12.5014H6.77456C6.77456 11.8547 6.25032 11.3312 5.60436 11.3312V13.3312ZM4.77456 12.5014V15.2245H6.77456V12.5014H4.77456ZM4.77456 15.2245C4.77456 15.9643 5.37477 16.5649 6.11494 16.5649V14.5649C6.47966 14.5649 6.77456 14.86 6.77456 15.2245H4.77456ZM6.11494 16.5649H7.57622V14.5649H6.11494V16.5649ZM8.28333 14.8578L7.94294 14.5174L6.52873 15.9316L6.86912 16.272L8.28333 14.8578ZM7.23583 14.2245H6.45533V16.2245H7.23583V14.2245ZM6.45533 14.2245C6.82005 14.2245 7.11494 14.5196 7.11494 14.8841H5.11494C5.11494 15.6239 5.71516 16.2245 6.45533 16.2245V14.2245ZM7.11494 14.8841V12.5014H5.11494V14.8841H7.11494ZM7.11494 12.5014C7.11494 12.9599 6.74312 13.3312 6.28514 13.3312V11.3312C5.63918 11.3312 5.11494 11.8547 5.11494 12.5014H7.11494ZM6.28514 13.3312H6.38486V11.3312H6.28514V13.3312ZM7.09197 11.6241L6.65186 11.184L5.23764 12.5982L5.67776 13.0383L7.09197 11.6241ZM5.23764 11.184L4.79753 11.6241L6.21175 13.0383L6.65186 12.5982L5.23764 11.184Z" fill="black" mask="url(#path-15-inside-2_17506_22761)"/>
</svg>
