<svg width="42" height="42" viewBox="0 0 42 42" fill="none" xmlns="http://www.w3.org/2000/svg">
<g clip-path="url(#clip0_16874_18282)">
<path d="M21.8913 39.6019C11.3204 39.6019 2.7509 30.9254 2.7509 20.2223C2.7509 9.51921 11.3204 0.842651 21.8913 0.842651C32.4623 0.842651 41.0317 9.51921 41.0317 20.2223C41.0317 30.9254 32.4623 39.6019 21.8913 39.6019Z" fill="#41F50C"/>
<path d="M21.8914 35.3889C13.6185 35.3889 6.91193 28.5985 6.91193 20.2222C6.91193 11.8459 13.6185 5.05554 21.8914 5.05554C30.1643 5.05554 36.8708 11.8459 36.8708 20.2222C36.8708 28.5985 30.1643 35.3889 21.8914 35.3889Z" fill="#1EC951"/>
<path d="M21.8914 35.3889C13.6185 35.3889 6.91193 28.5985 6.91193 20.2222C6.91193 11.8459 13.6185 5.05554 21.8914 5.05554C30.1643 5.05554 36.8708 11.8459 36.8708 20.2222C36.8708 28.5985 30.1643 35.3889 21.8914 35.3889Z" fill="#1EC951"/>
<path d="M21.8915 32.8611L30.2134 27.8056L26.8846 14.3241L21.8915 7.58337L16.8983 14.3241L13.5695 27.8056L21.8915 32.8611Z" fill="#41F50C"/>
<path d="M31.8776 20.2223C31.8768 15.8888 30.442 11.6806 27.8022 8.26962C25.1623 4.85863 21.4698 2.44162 17.3142 1.40455C20.133 0.701914 23.0727 0.65765 25.9108 1.27511C28.749 1.89257 31.4112 3.15558 33.6961 4.96855C35.981 6.78153 37.8287 9.09698 39.0993 11.7397C40.37 14.3824 41.0303 17.2831 41.0303 20.2223C41.0303 23.1615 40.37 26.0622 39.0993 28.7049C37.8287 31.3476 35.981 33.663 33.6961 35.476C31.4112 37.289 28.749 38.552 25.9108 39.1695C23.0727 39.7869 20.133 39.7427 17.3142 39.04C21.4698 38.003 25.1623 35.5859 27.8022 32.1749C30.442 28.764 31.8768 24.5557 31.8776 20.2223Z" fill="#1EC951"/>
<path d="M31.8777 20.2222C31.8801 17.3988 31.2717 14.6092 30.0953 12.0493C28.919 9.48945 27.2032 7.22152 25.0685 5.40491C28.4113 6.13848 31.4054 8.00869 33.5526 10.7045C35.6998 13.4002 36.8708 16.759 36.8708 20.2222C36.8708 23.6854 35.6998 27.0443 33.5526 29.74C31.4054 32.4358 28.4113 34.306 25.0685 35.0396C27.2032 33.2229 28.919 30.955 30.0953 28.3951C31.2717 25.8353 31.8801 23.0456 31.8777 20.2222Z" fill="#41F50C"/>
<path d="M21.8914 0C25.8416 0 29.7031 1.18601 32.9876 3.40806C36.2721 5.63011 38.832 8.78838 40.3437 12.4835C41.8554 16.1786 42.2509 20.2447 41.4802 24.1674C40.7096 28.0901 38.8074 31.6934 36.0142 34.5215C33.2209 37.3496 29.6622 39.2756 25.7879 40.0559C21.9136 40.8362 17.8977 40.4357 14.2482 38.9051C10.5987 37.3745 7.4794 34.7826 5.28479 31.4571C3.09017 28.1316 1.91879 24.2218 1.91879 20.2222C1.92485 14.8608 4.03105 9.7208 7.77532 5.92973C11.5196 2.13865 16.5962 0.00613272 21.8914 0V0ZM21.8914 38.7593C25.5124 38.7593 29.0521 37.6721 32.0629 35.6352C35.0737 33.5983 37.4203 30.7032 38.806 27.316C40.1917 23.9288 40.5543 20.2017 39.8478 16.6058C39.1414 13.01 37.3977 9.70701 34.8373 7.11456C32.2768 4.52211 29.0146 2.75662 25.4632 2.04137C21.9117 1.32611 18.2305 1.69321 14.8851 3.09623C11.5398 4.49926 8.6804 6.8752 6.66867 9.9236C4.65694 12.972 3.58318 16.5559 3.58318 20.2222C3.58866 25.1368 5.51932 29.8486 8.95159 33.3238C12.3839 36.7989 17.0374 38.7537 21.8914 38.7593Z" fill="black"/>
<path d="M21.8915 4.21289C25.0187 4.21289 28.0757 5.15182 30.676 6.91094C33.2762 8.67006 35.3028 11.1704 36.4995 14.0957C37.6963 17.021 38.0094 20.2399 37.3993 23.3454C36.7892 26.4509 35.2833 29.3035 33.072 31.5424C30.8607 33.7814 28.0433 35.3061 24.9762 35.9238C21.909 36.5415 18.7298 36.2245 15.8406 35.0128C12.9514 33.8011 10.482 31.7491 8.74457 29.1164C7.00716 26.4837 6.07983 23.3885 6.07983 20.2222C6.08459 15.9777 7.75199 11.9085 10.7162 8.90722C13.6804 5.90595 17.6994 4.21771 21.8915 4.21289ZM21.8915 34.5462C24.6895 34.5462 27.4248 33.7061 29.7513 32.1322C32.0778 30.5582 33.8911 28.3211 34.9618 25.7037C36.0326 23.0864 36.3128 20.2063 35.7669 17.4277C35.221 14.6491 33.8736 12.0968 31.8951 10.0935C29.9166 8.09024 27.3958 6.72601 24.6515 6.17331C21.9072 5.62061 19.0626 5.90428 16.4776 6.98843C13.8925 8.07259 11.683 9.90854 10.1285 12.2641C8.57394 14.6197 7.74421 17.3891 7.74421 20.2222C7.7484 24.0198 9.24025 27.6608 11.8925 30.3461C14.5447 33.0315 18.1407 34.542 21.8915 34.5462Z" fill="black"/>
<path d="M16.0908 14.1196C16.1177 14.0107 16.1659 13.9083 16.2326 13.8185L21.2257 7.07771C21.3065 6.97815 21.4081 6.89795 21.5232 6.84289C21.6383 6.78783 21.764 6.75928 21.8913 6.75928C22.0186 6.75928 22.1443 6.78783 22.2594 6.84289C22.3745 6.89795 22.4761 6.97815 22.5569 7.07771L27.55 13.8185C27.6167 13.9083 27.6649 14.0107 27.6919 14.1196L31.0206 27.6015C31.0638 27.7767 31.0503 27.9613 30.982 28.1281C30.9138 28.2949 30.7944 28.4351 30.6415 28.528L22.3196 33.5836C22.1902 33.6622 22.0422 33.7037 21.8913 33.7037C21.7404 33.7037 21.5924 33.6622 21.463 33.5836L13.1411 28.528C12.9882 28.4351 12.8688 28.2949 12.8006 28.1281C12.7323 27.9613 12.7188 27.7767 12.762 27.6015L16.0908 14.1196ZM21.0591 10.1111L17.8161 14.4895L18.8621 18.0201L21.0591 13.2932V10.1111ZM22.7235 13.2932L24.9204 18.0201L25.9665 14.4895L22.7235 10.1111V13.2932ZM21.8913 15.4604L19.5783 20.4369L21.5119 26.963H22.2707L24.2043 20.4369L21.8913 15.4604ZM18.517 22.7203L16.545 26.963H19.7741L18.517 22.7203ZM24.0085 26.963H27.2376L25.2656 22.7203L24.0085 26.963ZM23.5092 28.6482L22.6971 31.3891L27.2085 28.6482H23.5092ZM20.2734 28.6482H16.5741L21.0855 31.3891L20.2734 28.6482ZM14.5554 27.2864L17.8009 20.3035L16.9712 17.5031L14.5554 27.2864ZM26.8115 17.5031L25.9817 20.3034L29.2273 27.2864L26.8115 17.5031Z" fill="black"/>
</g>
<defs>
<clipPath id="clip0_16874_18282">
<rect width="41.4816" height="42" fill="white" transform="matrix(-1 0 0 1 41.864 0)"/>
</clipPath>
</defs>
</svg>
