<svg width="31" height="31" viewBox="0 0 31 31" fill="none" xmlns="http://www.w3.org/2000/svg">
<path d="M1.7019 14.385L14.5044 29.3999L27.307 14.385L1.7019 14.385Z" fill="#28DF17"/>
<path d="M27.3069 14.385L14.5043 29.4002L13.9116 28.7051L26.0132 14.385H27.3069Z" fill="#27F713"/>
<path d="M9.78149 14.385L14.5045 29.3999L19.2275 14.385L9.78149 14.385Z" fill="#0CE140"/>
<path d="M24.0486 8.81055L4.96026 8.81055L1.7019 14.3851L27.307 14.3851L24.0486 8.81055Z" fill="#0CE140"/>
<path d="M14.5045 8.81055L9.78149 14.3851H14.5045L19.2275 14.3851L14.5045 8.81055Z" fill="#17B208"/>
<path d="M4.96026 8.81055L9.78146 14.3851L1.7019 14.3851L4.96026 8.81055Z" fill="#17B208"/>
<path d="M24.0487 8.81055L19.2275 14.3851L27.3071 14.3851L24.0487 8.81055Z" fill="#17B208"/>
<path d="M27.3069 14.3851H26.013L23.2769 9.70315L24.0489 8.81055L27.3069 14.3851Z" fill="#0ABC2D"/>
<path d="M22.4169 1.99383C22.1452 2.61914 21.669 3.4201 20.8711 4.00498C20.6829 4.14295 20.6829 4.4284 20.8711 4.56637C21.669 5.1513 22.1452 5.95226 22.4169 6.57751C22.5391 6.85873 22.9389 6.85873 23.0611 6.57751C23.3328 5.95221 23.809 5.15125 24.6069 4.56637C24.795 4.4284 24.795 4.14295 24.6069 4.00498C23.809 3.42004 23.3328 2.61908 23.0611 1.99383C22.9388 1.71267 22.5391 1.71267 22.4169 1.99383Z" fill="#1CDC0A"/>
<path d="M27.4231 5.80443C27.196 6.32706 26.798 6.99646 26.1311 7.48536C25.9739 7.60066 25.9739 7.83923 26.1311 7.95454C26.798 8.44343 27.196 9.11283 27.4231 9.63546C27.5252 9.87047 27.8594 9.87047 27.9615 9.63546C28.1886 9.11283 28.5867 8.44343 29.2535 7.95454C29.4108 7.83923 29.4108 7.60066 29.2535 7.48536C28.5867 6.99646 28.1886 6.32706 27.9615 5.80443C27.8594 5.56942 27.5253 5.56942 27.4231 5.80443Z" fill="#1CDC0A"/>
<path d="M24.6071 4.56656C23.8094 5.15111 23.3328 5.95202 23.0611 6.57726C22.939 6.85882 22.5391 6.85882 22.4171 6.57726C22.3394 6.39893 22.2455 6.20701 22.1323 6.00942C22.4165 5.51351 22.5434 4.9848 23.1138 4.56656C23.3021 4.42837 23.3021 4.14314 23.1138 4.00495C22.5434 3.58621 22.4165 3.05751 22.1323 2.56159C22.2455 2.36394 22.3393 2.17208 22.4171 1.99375C22.5391 1.7127 22.939 1.7127 23.0611 1.99375C23.3327 2.61894 23.8094 3.4199 24.6071 4.00495C24.7954 4.14314 24.7954 4.42837 24.6071 4.56656Z" fill="#0F7005"/>
<path d="M29.2538 7.95445C28.5869 8.44357 28.1885 9.11307 27.9617 9.6356C27.8595 9.87078 27.5252 9.87078 27.423 9.6356C27.3375 9.43745 27.227 9.21847 27.0862 8.99632C27.3156 8.63181 27.4277 8.2585 27.8418 7.95445C27.9987 7.8392 27.9987 7.6009 27.8418 7.48515C27.4278 7.18166 27.3156 6.80829 27.0862 6.44383C27.227 6.22118 27.3375 6.00271 27.423 5.80456C27.5252 5.56938 27.8595 5.56938 27.9617 5.80456C28.1885 6.32702 28.5869 6.99659 29.2538 7.48515C29.4108 7.6009 29.4108 7.8392 29.2538 7.95445Z" fill="#0F7005"/>
<path d="M24.4086 8.60006C24.3352 8.47445 24.19 8.39355 24.0487 8.39355C24.0454 8.39355 4.96023 8.39355 4.96023 8.39355C4.95889 8.39355 4.95767 8.39378 4.95633 8.39383C4.8153 8.39528 4.67578 8.47484 4.60301 8.59583C4.60262 8.5965 4.60206 8.59711 4.60167 8.59778L3.47923 10.49C3.36176 10.688 3.42706 10.9437 3.62505 11.0611C3.8232 11.1786 4.07881 11.1133 4.19623 10.9153L5.02347 9.52084L8.86977 13.9682L2.4284 13.9682L3.24595 12.5695C3.36215 12.3707 3.29517 12.1154 3.0964 11.9992C2.89775 11.883 2.64236 11.95 2.52616 12.1487C2.51024 12.176 1.98193 13.0798 1.73372 13.5044C1.6237 13.6927 1.51369 13.8809 1.40367 14.0691C1.29555 14.2541 1.2215 14.4535 1.37851 14.6471C1.38073 14.6498 1.3824 14.6528 1.38469 14.6555C1.38469 14.6555 14.1715 29.652 14.1872 29.6704C14.3461 29.8567 14.6609 29.8588 14.8216 29.6704L20.3585 23.1765L20.537 22.9739C20.6892 22.8011 20.6725 22.5377 20.4996 22.3855C20.3269 22.2334 20.0635 22.2502 19.9114 22.4229L19.7308 22.628C19.7294 22.6296 19.7278 22.6313 19.7265 22.633L15.517 27.5699L19.5333 14.8019L26.4037 14.8019L21.1475 20.9664C20.9981 21.1416 21.019 21.4047 21.1942 21.5541C21.3694 21.7034 21.6324 21.6825 21.7819 21.5074L27.6241 14.6555C27.6258 14.6536 27.627 14.6514 27.6286 14.6494C27.6761 14.5914 27.7064 14.5264 27.7191 14.4591C27.7368 14.3646 27.7199 14.2655 27.6668 14.1747C27.6652 14.1719 24.4086 8.60006 24.4086 8.60006ZM5.87187 9.22725L13.6049 9.22725L9.77824 13.744L5.87187 9.22725ZM14.5044 9.45525L18.3279 13.9681H10.681L14.5044 9.45525ZM2.60511 14.8019L9.47559 14.8019L13.4918 27.5699L2.60511 14.8019ZM14.5044 28.0107L10.3495 14.8019L18.6594 14.8019L14.5044 28.0107ZM19.2307 13.744L15.404 9.22725L23.137 9.22725L19.2307 13.744ZM20.1391 13.9681L23.9828 9.52373L26.5805 13.9681L20.1391 13.9681Z" fill="black"/>
<path d="M20.6248 4.90267C21.3646 5.44501 21.7999 6.20316 22.0348 6.74377C22.1566 7.02416 22.4331 7.20539 22.7391 7.20539C23.0452 7.20539 23.3217 7.02416 23.4435 6.74377C23.6784 6.20321 24.1137 5.44501 24.8535 4.90267C25.0486 4.75963 25.165 4.52902 25.165 4.28583C25.165 4.04258 25.0486 3.81196 24.8535 3.66893C24.1137 3.12659 23.6784 2.36839 23.4435 1.82782C23.3216 1.54744 23.0452 1.36621 22.7391 1.36621C22.4331 1.36621 22.1566 1.54744 22.0348 1.82782C21.7999 2.36833 21.3646 3.12659 20.6247 3.66893C20.4297 3.81196 20.3132 4.04258 20.3132 4.28583C20.3133 4.52902 20.4297 4.75963 20.6248 4.90267ZM22.7392 2.29423C23.0187 2.8977 23.5014 3.68447 24.2865 4.28572C23.5014 4.88702 23.0186 5.67378 22.7392 6.27721C22.4597 5.67373 21.9768 4.88697 21.1918 4.28572C21.9769 3.68441 22.4596 2.89776 22.7392 2.29423Z" fill="black"/>
<path d="M29.5 7.14925C28.894 6.70506 28.5368 6.08243 28.3438 5.63835C28.2312 5.37901 27.9754 5.21143 27.6924 5.21143C27.6924 5.21143 27.6924 5.21143 27.6923 5.21143C27.4093 5.21143 27.1536 5.37901 27.0408 5.63835C26.8479 6.08243 26.4907 6.70506 25.8847 7.1493C25.7042 7.2817 25.5964 7.49505 25.5964 7.72004C25.5964 7.94503 25.7042 8.15838 25.8848 8.29078C26.4907 8.73497 26.8479 9.3576 27.0409 9.80162C27.1536 10.061 27.4094 10.2286 27.6924 10.2285C27.9754 10.2285 28.2312 10.061 28.3438 9.80162C28.5369 9.3576 28.8941 8.73497 29.5 8.29072C29.6805 8.15833 29.7883 7.94497 29.7883 7.72004C29.7883 7.49505 29.6805 7.28164 29.5 7.14925ZM27.6923 9.22631C27.4575 8.7539 27.0827 8.18021 26.5099 7.71998C27.0828 7.25976 27.4575 6.68607 27.6923 6.21366C27.9272 6.68613 28.3019 7.25976 28.8748 7.72004C28.3019 8.18026 27.9272 8.7539 27.6923 9.22631Z" fill="black"/>
</svg>
