<svg width="30" height="31" viewBox="0 0 30 31" fill="none" xmlns="http://www.w3.org/2000/svg">
<g clip-path="url(#clip0_16874_18374)">
<path d="M25.5552 24.6319L20.7563 22.1061L23.3258 24.6853L19.6829 27.5656L16.8512 22.9951L17.3223 26.9876L12.6789 27.0022L13.1209 23.0435L10.3183 27.5656L6.67547 24.6853L9.24981 22.1013L4.44121 24.6319L2.51294 19.6484L12.4069 17.0645L12.9266 18.4099L12.9509 18.3857L13.5823 18.8859L13.6649 18.167L16.2781 18.1573L16.3703 18.9247L17.0504 18.3857L17.0747 18.4099L17.5943 17.0645L27.4883 19.6484L25.5552 24.6319Z" fill="#FC9707"/>
<path d="M25.5569 24.6304C26.9317 25.1638 28.4789 24.4846 29.0137 23.1061C29.547 21.7314 28.864 20.1827 27.4893 19.6494C26.1145 19.116 24.5658 19.799 24.0325 21.1737C23.4978 22.5522 24.1821 24.0971 25.5569 24.6304Z" fill="#C57408"/>
<path opacity="0.2" d="M29.057 22.9707C28.819 22.2373 28.2653 21.6107 27.4882 21.3096C26.1136 20.7753 24.5642 21.4601 24.0347 22.8347C24.0153 22.8832 24.0007 22.9318 23.9862 22.9804C23.7967 22.4121 23.7967 21.7759 24.0347 21.1736C24.5642 19.799 26.1136 19.1142 27.4882 19.6484C28.819 20.1633 29.5039 21.6302 29.057 22.9707Z" fill="black"/>
<path d="M19.6836 27.564C20.4787 28.5693 21.9373 28.742 22.9453 27.9447C23.9505 27.1495 24.121 25.6883 23.3259 24.683C22.5307 23.6777 21.0694 23.5072 20.0642 24.3023C19.0562 25.0997 18.8884 26.5587 19.6836 27.564Z" fill="#C57408"/>
<path opacity="0.2" d="M22.9469 27.9445C22.8351 28.0319 22.7137 28.1096 22.5923 28.1776C23.0197 27.3859 22.9615 26.3853 22.3689 25.6373C21.6597 24.7436 20.4309 24.5105 19.4595 25.0302C19.6003 24.7533 19.8043 24.5056 20.0617 24.3016C21.0671 23.505 22.5292 23.6799 23.3257 24.6853C24.1223 25.6859 23.9523 27.1479 22.9469 27.9445Z" fill="black"/>
<path d="M4.44326 24.6304C3.06853 25.1638 1.52133 24.4846 0.986528 23.1061C0.453195 21.7314 1.13619 20.1827 2.51093 19.6494C3.88573 19.116 5.4344 19.799 5.96766 21.1737C6.50246 22.5522 5.81806 24.0971 4.44326 24.6304Z" fill="#C57408"/>
<path opacity="0.2" d="M4.44111 24.6318C3.85338 24.86 3.23658 24.8649 2.67798 24.6901C2.73625 24.6755 2.79451 24.6561 2.85285 24.6318C4.22745 24.0975 4.91225 22.5529 4.37798 21.1736C4.07198 20.3866 3.43571 19.8281 2.68771 19.5902C4.01858 19.1724 5.45625 19.8573 5.96631 21.1736C6.50058 22.5529 5.81571 24.0975 4.44111 24.6318Z" fill="black"/>
<path d="M10.3167 27.564C9.52157 28.5693 8.06303 28.742 7.05503 27.9447C6.04977 27.1495 5.8793 25.6883 6.67443 24.683C7.46963 23.6777 8.9309 23.5072 9.9361 24.3023C10.9442 25.0997 11.1119 26.5587 10.3167 27.564Z" fill="#C57408"/>
<path opacity="0.2" d="M10.3184 27.5656C9.71129 28.333 8.72043 28.6147 7.83643 28.3476C8.28816 28.2262 8.70583 27.959 9.01669 27.5656C9.81329 26.5601 9.64329 25.0982 8.63783 24.3016C8.39496 24.1121 8.12783 23.9761 7.85096 23.8984C8.54556 23.6896 9.32263 23.8158 9.93469 24.3016C10.945 25.0982 11.1102 26.5601 10.3184 27.5656Z" fill="black"/>
<path d="M17.3221 26.9866C17.3263 28.2684 16.2931 29.3122 15.0078 29.3165C13.7261 29.3207 12.6823 28.2837 12.678 27.0018C12.6737 25.7199 13.7105 24.6761 14.9923 24.6719C16.2776 24.6677 17.3178 25.7046 17.3221 26.9866Z" fill="#C57408"/>
<path opacity="0.2" d="M17.3222 26.9875C17.327 28.2698 16.2924 29.3141 15.0053 29.3141C14.7382 29.3141 14.4856 29.2704 14.2476 29.1879C15.1656 28.8818 15.8213 28.0075 15.8164 26.9875C15.8116 25.9723 15.1607 25.1077 14.2476 24.7969C14.4807 24.7143 14.7284 24.6707 14.9907 24.6707C16.2779 24.6658 17.3174 25.7053 17.3222 26.9875Z" fill="black"/>
<path d="M13.8607 -0.797607C18.5759 0.916926 19.261 7.18679 19.261 7.18679C19.6531 5.76099 21.1502 5.83226 21.1502 5.83226C19.8313 9.82446 21.3997 12.5691 21.3997 12.5691C22.3621 10.1809 24.4064 11.2961 24.4064 11.2961C24.4064 11.2961 23.3348 11.8145 23.2157 14.5208C23.0967 17.2271 20.0296 20.7991 15.0002 20.7991C9.9708 20.7991 6.90373 17.2271 6.78466 14.5208C6.66559 11.8145 5.59399 11.2961 5.59399 11.2961C5.59399 11.2961 7.63826 10.1809 8.60066 12.5691C8.60066 12.5691 10.1691 9.82446 8.85019 5.83226C8.85019 5.83226 10.3473 5.76099 10.7394 7.18679C10.7394 7.18679 11.0602 4.15699 13.0563 2.76686C15.0525 1.37673 13.8607 -0.797607 13.8607 -0.797607Z" fill="#FACB00"/>
<path opacity="0.2" d="M14.204 0.438485C14.1506 -0.265782 13.8591 -0.800049 13.8591 -0.800049C17.2057 0.419085 18.522 3.93082 19.0028 5.86395C18.9981 5.86475 18.9933 5.86562 18.9886 5.86648C18.0985 6.02828 17.2033 5.56315 16.9091 4.70768C16.436 3.33202 15.6117 1.65782 14.204 0.438485Z" fill="black"/>
<path opacity="0.2" d="M19.1728 6.607C19.236 6.97133 19.2602 7.185 19.2602 7.185C19.6536 5.7618 21.1497 5.82986 21.1497 5.82986C20.3968 8.10786 20.5862 9.98273 20.8874 11.1679C20.8828 11.1697 20.8782 11.1715 20.8737 11.1733C20.007 11.523 19.0427 11.0049 18.9328 10.0769C18.8206 9.13073 18.8356 7.9522 19.1728 6.607Z" fill="black"/>
<path opacity="0.2" d="M24.4042 11.2941C24.4042 11.2941 23.3357 11.8138 23.2142 14.5192C23.0976 17.2246 20.0279 20.7996 15.0007 20.7996C14.7045 20.7996 14.413 20.785 14.1265 20.7656C18.6339 20.377 21.3491 17.0644 21.4656 14.5193C21.5821 11.8139 22.6556 11.2942 22.6556 11.2942C22.6556 11.2942 22.6022 11.265 22.505 11.2262C23.4279 10.7598 24.4042 11.2941 24.4042 11.2941Z" fill="black"/>
<path d="M18.2808 17.5147C18.2808 19.3289 16.8109 20.7989 14.9967 20.7989C13.1897 20.7989 11.7197 19.3289 11.7197 17.5147C11.7197 15.7005 14.9967 8.5564 14.9967 8.5564C14.9967 8.5564 18.2808 15.7005 18.2808 17.5147Z" fill="#FD4746"/>
<path d="M16.7525 19.0448C16.7525 20.0139 15.9673 20.7991 14.9983 20.7991C14.033 20.7991 13.2478 20.0139 13.2478 19.0448C13.2478 18.0757 14.9983 14.2595 14.9983 14.2595C14.9983 14.2595 16.7525 18.0757 16.7525 19.0448Z" fill="#FACB00"/>
<path d="M24.8416 24.6654C25.0215 24.7852 25.2156 24.8887 25.4252 24.9701H25.4254C26.992 25.5777 28.7505 24.792 29.3534 23.2378C29.96 21.6742 29.1848 19.9163 27.6211 19.3096C27.4118 19.2284 27.1988 19.174 26.9855 19.1411L22.2054 17.8918C23.0634 16.7982 23.5334 15.5907 23.5798 14.5366C23.685 12.1401 24.565 11.6245 24.565 11.624C24.6878 11.5645 24.7673 11.4414 24.7706 11.3048C24.7739 11.1684 24.7006 11.0416 24.5808 10.9764C24.5403 10.9541 23.5769 10.4387 22.5751 10.7992C22.1209 10.9619 21.7393 11.271 21.4341 11.7213C21.0793 10.7062 20.6166 8.60875 21.496 5.94655C21.5316 5.83842 21.5147 5.71982 21.4502 5.62589C21.3856 5.53195 21.2811 5.47389 21.1672 5.46842C20.7377 5.44635 19.9864 5.58842 19.4476 6.13535C19.0335 4.23469 17.7326 0.22262 13.985 -1.14018C13.8427 -1.19258 13.6833 -1.14991 13.5849 -1.03538C13.4862 -0.920846 13.4687 -0.756713 13.5406 -0.623646C13.5823 -0.546113 14.5452 1.28575 12.8478 2.46782C11.4652 3.43095 10.839 5.08802 10.5682 6.15149C10.0282 5.59109 9.26885 5.44495 8.83292 5.46842C8.71905 5.47389 8.61452 5.53195 8.54998 5.62589C8.48545 5.71982 8.46865 5.83842 8.50445 5.94655C9.38385 8.60875 8.92111 10.7062 8.56631 11.7213C8.26111 11.2709 7.87952 10.9619 7.42558 10.7992C6.42165 10.439 5.45998 10.9538 5.41938 10.9764C5.30291 11.0399 5.23485 11.1644 5.23438 11.2972C5.23391 11.43 5.31025 11.555 5.42652 11.6196C5.43532 11.6246 6.31518 12.1402 6.42045 14.537C6.46685 15.5909 6.93678 16.7984 7.79485 17.8918C7.74618 17.9042 2.42798 19.2907 2.37918 19.3096C0.815514 19.9162 0.0403145 21.6742 0.646914 23.2378C1.25031 24.7933 3.00978 25.5772 4.57511 24.9701H4.57538C4.62398 24.9512 4.46545 25.0603 7.30151 23.5378C7.25285 23.5866 6.35978 24.4827 6.41645 24.4258C5.53231 25.3729 5.55731 27.2246 6.82911 28.2304C7.98811 29.1472 9.69985 28.9614 10.6212 27.761C11.1058 27.0024 11.5678 26.244 12.5787 24.6058C12.5744 24.6417 12.3137 26.9668 12.3138 27.0031C12.3188 28.4816 13.5232 29.6809 15.0007 29.6809H15.0092C16.4938 29.676 17.6915 28.472 17.6866 26.9855C17.6864 26.9522 17.4082 24.6101 17.404 24.5772C17.6882 25.0378 19.3714 27.7566 19.3977 27.79C19.9273 28.4595 20.714 28.8086 21.5075 28.8086C22.0912 28.8086 22.6788 28.6198 23.1712 28.2304C24.335 27.3099 24.5324 25.621 23.6116 24.4568C23.5223 24.3438 22.7475 23.5856 22.6986 23.5374L24.8416 24.6654ZM21.6661 18.5038L25.181 19.4224C24.5232 19.747 23.9786 20.3056 23.6929 21.0417C23.4072 21.778 23.4325 22.5578 23.6994 23.2412L20.9735 21.8064L19.3596 20.1869C20.2734 19.7336 21.0411 19.1495 21.6661 18.5038ZM28.6741 22.9741C28.2154 24.1566 26.883 24.7461 25.6993 24.2938L25.2365 24.0502C24.3627 23.4614 23.9755 22.328 24.3722 21.3054C24.7686 20.2829 25.8183 19.7072 26.8597 19.8612L27.3672 19.9939C28.5514 20.4595 29.1331 21.7912 28.6741 22.9741ZM6.28025 11.4429C6.53805 11.3898 6.86178 11.371 7.17958 11.4851C7.63825 11.6494 8.00278 12.06 8.26271 12.7051C8.31491 12.8346 8.43658 12.9228 8.57598 12.9323C8.71972 12.9437 8.84778 12.8709 8.91705 12.7497C8.98131 12.6373 10.4136 10.0628 9.36032 6.25869C9.73125 6.35995 10.2056 6.61989 10.388 7.28322C10.434 7.45162 10.5905 7.56662 10.7686 7.54955C10.943 7.53555 11.0826 7.39942 11.1014 7.22535C11.1044 7.19669 11.4318 4.34189 13.2643 3.06569C14.5903 2.14215 14.7105 0.83942 14.4945 -0.12038C18.2617 1.85782 18.8927 7.16962 18.8989 7.22655C18.9181 7.40015 19.058 7.53582 19.2324 7.54982C19.4058 7.56335 19.566 7.45189 19.6123 7.28322C19.7928 6.62722 20.2671 6.36609 20.639 6.26269C19.5878 10.0649 21.0192 12.6372 21.0834 12.7496C21.1527 12.8708 21.2814 12.9434 21.4245 12.9322C21.564 12.9228 21.6856 12.8345 21.7378 12.705C21.9968 12.0623 22.3594 11.6525 22.8154 11.487C23.1358 11.37 23.4615 11.3886 23.7202 11.4424C23.355 11.917 22.9257 12.8246 22.8518 14.5046C22.777 16.2081 21.3385 18.4416 18.7962 19.6214L18.7725 19.5976C18.7694 19.6116 18.7615 19.6241 18.758 19.638C18.3908 19.8062 18.0043 19.9555 17.5921 20.0748C18.2423 19.4156 18.645 18.5117 18.645 17.5148C18.645 15.6426 15.4632 8.69882 15.3278 8.40409C15.2682 8.27482 15.139 8.19209 14.9967 8.19209C14.9967 8.19209 14.9967 8.19209 14.9964 8.19209C14.8542 8.19209 14.7249 8.27509 14.6656 8.40462C14.5304 8.69915 11.3554 15.6427 11.3554 17.5148C11.3554 18.5112 11.7569 19.4148 12.4052 20.0739C9.11438 19.1198 7.23452 16.461 7.14858 14.5047C7.07452 12.8251 6.64551 11.9175 6.28025 11.4429ZM16.7116 24.9256C16.2464 24.54 15.6498 24.3077 15.0001 24.3077C14.9972 24.3077 14.994 24.3077 14.9911 24.3077C14.338 24.3099 13.7398 24.5466 13.275 24.9372L13.7055 21.0774C14.67 21.1942 15.357 21.188 16.257 21.0826L16.7116 24.9256ZM13.612 19.0448C13.612 18.4972 14.3647 16.5989 14.9987 15.1505C15.6338 16.5989 16.3882 18.4974 16.3882 19.0448C16.3882 20.881 13.612 20.9148 13.612 19.0448ZM17.0325 19.6038C17.0819 19.4245 17.1168 19.2395 17.1168 19.0448C17.1168 18.0254 15.5122 14.5054 15.3293 14.1072C15.2698 13.978 15.1405 13.8952 14.9982 13.8952H14.998C14.8557 13.8952 14.7264 13.9782 14.6671 14.1078C14.4845 14.5057 12.8834 18.0258 12.8834 19.0448C12.8834 19.2405 12.9186 19.4264 12.9684 19.6064C12.4238 19.0756 12.0838 18.3348 12.0838 17.5149C12.0838 16.243 13.9556 11.7786 14.997 9.44082C16.0405 11.7784 17.9162 16.243 17.9162 17.5149C17.9163 18.3332 17.5768 19.073 17.0325 19.6038ZM1.32611 22.9741C0.867581 21.7924 1.44745 20.46 2.63298 19.9939L3.12791 19.8645C4.25225 19.6916 5.25445 20.3426 5.62805 21.3054C6.02478 22.3278 5.63745 23.4615 4.76378 24.0502L4.30118 24.2938C3.11725 24.7463 1.78485 24.1569 1.32611 22.9741ZM6.30078 23.2413C6.56765 22.5579 6.59298 21.778 6.30731 21.0417C6.02171 20.3057 5.47725 19.747 4.81945 19.4224L8.33405 18.5038C8.95898 19.1494 9.72665 19.7336 10.6406 20.1869L9.02645 21.8066L6.30078 23.2413ZM7.28111 27.6588C6.43825 26.992 6.28811 25.7697 6.95438 24.918C7.06825 24.8339 7.51391 24.1656 8.49991 24.1656C8.93845 24.1656 9.36132 24.312 9.71018 24.588C10.4394 25.1648 10.6436 26.1594 10.2591 26.9655L10.0233 27.3459C9.35218 28.1848 8.12385 28.326 7.28111 27.6588ZM11.114 25.586C10.9916 24.9872 10.6778 24.4244 10.1622 24.0165C9.66085 23.62 9.04738 23.4318 8.41605 23.4512L11.3557 20.5012C11.8617 20.6992 12.4058 20.8567 12.9842 20.9695L12.7667 22.919L11.114 25.586ZM15.0068 28.9524C15.0046 28.9524 15.0028 28.9524 15.0006 28.9524C13.9278 28.9524 13.0536 28.0843 13.0436 27.0123L13.0934 26.566C13.2892 25.6949 14.064 25.0394 14.9936 25.0363H15.0002C15.9275 25.0363 16.7038 25.6864 16.9045 26.5548L16.9571 26.9988C16.9544 28.0826 16.0822 28.9489 15.0068 28.9524ZM16.9781 20.9782C17.5711 20.8651 18.1272 20.7036 18.6445 20.5012L21.5841 23.4511C20.9534 23.4314 20.3393 23.62 19.838 24.0164C19.3224 24.4244 19.0086 24.9872 18.8862 25.5859L17.2016 22.8674L16.9781 20.9782ZM22.7191 27.6588C21.8749 28.3262 20.6478 28.1843 19.9769 27.3459L19.7411 26.9655C19.3566 26.1594 19.5608 25.1648 20.29 24.588C21.0062 24.021 22.0151 24.023 22.7312 24.6024L23.0458 24.918C23.7106 25.7678 23.5637 26.9907 22.7191 27.6588Z" fill="black"/>
</g>
<defs>
<clipPath id="clip0_16874_18374">
<rect width="30" height="30" fill="white" transform="translate(0 0.881592)"/>
</clipPath>
</defs>
</svg>
