<svg width="21" height="37" viewBox="0 0 21 37" fill="none" xmlns="http://www.w3.org/2000/svg">
<path d="M13.7819 15.5296L13.03 15.7679L13.7819 16.0062L19.2322 17.7335L13.7819 19.4607L13.03 19.699L13.7819 19.9374L19.2322 21.6646L10.3838 24.4689L1.53551 21.6646L6.98575 19.9374L7.73774 19.699L6.98575 19.4607L1.53553 17.7335L6.98575 16.0062L7.73774 15.7679L6.98575 15.5296L1.12487 13.6722L10.3838 1.70959L19.6428 13.6722L13.7819 15.5296Z" fill="#38F700" stroke="black" stroke-width="0.5"/>
<path d="M10.3083 27.3282L10.3838 27.3521L10.4594 27.3282L19.3171 24.5209L10.3838 35.1916L1.45064 24.5209L10.3083 27.3282Z" fill="#38F700" stroke="black" stroke-width="0.5"/>
<path d="M10.6343 16.5274V2.03259L19.6433 13.6722L10.6343 16.5274Z" fill="#218D00" stroke="black" stroke-width="0.5"/>
<path d="M10.6343 27.2729L19.3175 24.5209L10.6343 34.893V27.2729Z" fill="#218D00" stroke="black" stroke-width="0.5"/>
<path d="M10.3083 17.1067L10.3838 17.1307L10.4594 17.1067L13.8575 16.0297L19.2322 17.733L10.3839 20.5373C6.62045 19.3445 6.05115 19.1641 3.16715 18.2501C2.69376 18.1001 2.15801 17.9303 1.53554 17.733L6.91022 16.0297L10.3083 17.1067Z" fill="#A5FF8B" stroke="black" stroke-width="0.5"/>
<path d="M10.3083 21.0384L10.3838 21.0623L10.4594 21.0384L13.8575 19.9614L19.2322 21.6647L10.3838 24.469L1.53551 21.6647L6.91022 19.9614L10.3083 21.0384Z" fill="#A5FF8B" stroke="black" stroke-width="0.5"/>
<path d="M4.38673 9.54418L4.38674 9.54416C4.50497 9.39123 4.46663 9.20619 4.34056 9.10875L4.34056 9.10875C4.21585 9.01235 4.02748 9.01914 3.90742 9.17374C3.80523 9.30614 3.8296 9.49621 3.96186 9.5985L4.38673 9.54418ZM4.38673 9.54418C4.28449 9.67646 4.09433 9.70085 3.9619 9.59853L4.38673 9.54418Z" fill="#218D00" stroke="black" stroke-width="0.5"/>
<path d="M10.2926 21.0885L10.2926 21.0885C10.3116 21.0946 10.3277 21.1011 10.3405 21.1068C10.3431 21.1064 10.346 21.1059 10.3491 21.1054C10.4524 21.087 10.6858 21.0219 11.2671 20.8415C11.8761 20.6525 12.8484 20.3431 14.4173 19.8438C15.8068 19.4015 17.6642 18.8104 20.1514 18.0222L20.1515 18.0222C20.4317 17.9334 20.4318 17.5336 20.1514 17.4447L17.0727 16.4691L17.0727 16.4691C16.9133 16.4186 16.743 16.5068 16.6925 16.6663C16.6419 16.8258 16.7302 16.996 16.8897 17.0466L18.3052 17.4951L19.0572 17.7334L18.3052 17.9718L10.4595 20.4581L10.384 20.482L10.3085 20.4581L2.46291 17.9718L1.7109 17.7334L2.46291 17.4951L6.83514 16.1095L6.91067 16.0856L6.98619 16.1095C7.82299 16.3747 8.45275 16.5769 8.93033 16.7302C9.46697 16.9025 9.81143 17.013 10.0415 17.082C10.2636 17.1486 10.3552 17.1688 10.402 17.1731C10.4077 17.1736 10.4111 17.1741 10.4145 17.1742C10.4231 17.1742 10.4317 17.1713 10.4756 17.1574C13.2448 16.2798 15.2328 15.6564 16.6638 15.2076C17.8694 14.8296 18.6796 14.5755 19.2286 14.3978C19.8349 14.2016 20.1026 14.1047 20.2305 14.0419C20.2715 14.0217 20.2877 14.0099 20.2923 14.0061C20.2929 14.0052 20.2937 14.0039 20.2948 14.0019C20.2973 13.9977 20.3 13.9927 20.3048 13.9838L20.3055 13.9826C20.3098 13.9747 20.3156 13.9641 20.3221 13.9527L20.3222 13.9526C20.3474 13.9085 20.3585 13.8692 20.3617 13.8238L20.3617 13.8236C20.3629 13.8067 20.3653 13.7892 20.3674 13.7759C20.3612 13.7632 20.3495 13.7408 20.3278 13.7056C20.225 13.5384 19.9768 13.1988 19.393 12.4365C18.782 11.6386 17.8134 10.3902 16.2809 8.41488C14.9018 6.63745 13.0662 4.27147 10.6236 1.11562L10.6234 1.11536C10.5191 0.980209 10.3211 0.960999 10.1927 1.06633L10.1925 1.06654C10.1888 1.0695 10.1853 1.07226 10.182 1.07475C10.1767 1.08092 10.167 1.09241 10.151 1.11228C10.0872 1.19094 9.95094 1.36518 9.64227 1.76323C9.33487 2.15963 8.8584 2.77556 8.11598 3.73528C7.37119 4.69806 6.35875 6.00682 4.98087 7.78703C4.87848 7.91933 4.90273 8.10958 5.03497 8.21195C5.16737 8.31438 5.35759 8.29009 5.45994 8.15784L5.45995 8.15783L9.63341 2.76569L10.0811 2.18726V2.91871V16.1134V16.4548L9.75558 16.3517L1.55463 13.7528L1.21329 13.6446L1.43245 13.3614L2.95286 11.397C2.95287 11.397 2.95287 11.397 2.95287 11.397C3.05525 11.2647 3.031 11.0745 2.89877 10.9721L10.2926 21.0885ZM10.2926 21.0885L6.98619 20.0407L6.91067 20.0168L6.83514 20.0407L2.46291 21.4263L1.71089 21.6646L2.46291 21.9029L10.3086 24.3893L10.3841 24.4132L10.4596 24.3893L18.3053 21.9029L19.0572 21.6646L18.3053 21.4263L17.2393 21.0885C17.2393 21.0885 17.2393 21.0885 17.2393 21.0885C17.0799 21.0379 16.9916 20.8676 17.0421 20.7082L17.0421 20.7082M10.2926 21.0885L17.0421 20.7082M0.497414 14.0191L0.497658 14.0194C0.505317 14.0268 0.516813 14.0385 0.520821 14.0426L0.52222 14.044L0.497414 14.0191ZM0.497414 14.0191C0.461467 13.9842 0.43697 13.9441 0.421616 13.8985C0.394129 13.8165 0.396935 13.8056 0.402482 13.7842C0.414388 13.7384 0.455607 13.6518 0.592433 13.458C0.755558 13.2269 1.01997 12.8892 1.44042 12.3523C1.71386 12.003 2.0533 11.5695 2.47379 11.0262M0.497414 14.0191L2.47379 11.0262M5.90803 15.7679L5.15601 16.0062L0.616734 17.4447C0.336339 17.5336 0.336559 17.9334 0.616704 18.0222L0.616733 18.0222L5.15608 19.4607L5.90811 19.699L5.15608 19.9373L0.616733 21.3759C0.336339 21.4647 0.336559 21.8646 0.616704 21.9533L0.616734 21.9533L10.2926 25.0197L10.2926 25.0197C10.3116 25.0257 10.3277 25.0322 10.3405 25.038C10.3431 25.0375 10.346 25.0371 10.3491 25.0365C10.4524 25.0181 10.6858 24.953 11.2671 24.7727C11.876 24.5837 12.8484 24.2742 14.4171 23.775C15.8066 23.3327 17.6641 22.7416 20.1514 21.9533C20.4317 21.8645 20.4316 21.4647 20.1514 21.3759L17.4225 20.511L5.90803 15.7679ZM5.90803 15.7679L5.15601 15.5296M5.90803 15.7679L5.15601 15.5296M5.15601 15.5296C4.02481 15.1711 3.17031 14.9017 2.52309 14.6977M5.15601 15.5296L2.52309 14.6977M17.0421 20.7082C17.0925 20.549 17.2626 20.4606 17.4224 20.511L17.0421 20.7082ZM2.47379 11.0262C2.57614 10.894 2.76641 10.8698 2.89873 10.9721L2.47379 11.0262ZM2.52309 14.6977C1.77769 14.4627 1.30721 14.3144 1.00558 14.2164M2.52309 14.6977L1.00558 14.2164M1.00558 14.2164C0.719439 14.1235 0.599562 14.0803 0.542653 14.0545M1.00558 14.2164L0.542653 14.0545M0.542653 14.0545C0.532147 14.0497 0.526067 14.0465 0.523023 14.0448L0.542653 14.0545ZM20.5391 14.0769C20.5836 13.9992 20.6053 13.9233 20.6111 13.8416L10.4832 17.416C10.5047 17.4109 10.5258 17.4037 10.5511 17.3957C19.9545 14.4157 20.3641 14.3619 20.5041 14.1389C20.5159 14.1201 20.5258 14.1 20.5391 14.0769ZM10.687 16.1134V16.4548L11.0125 16.3517L19.2135 13.7528L19.5548 13.6446L19.3356 13.3614L11.1347 2.76569L10.687 2.18726V2.91871V16.1134Z" fill="#218D00" stroke="black" stroke-width="0.5"/>
<path d="M19.9684 23.7345L19.9685 23.7345C20.2552 23.6435 20.4856 23.9867 20.2922 24.2177C17.6623 27.3591 15.7461 29.6482 14.3494 31.3167C13.0805 32.8325 12.2404 33.836 11.6837 34.5009C11.099 35.1992 10.8272 35.5236 10.6994 35.6754C10.6355 35.7513 10.609 35.7824 10.5976 35.7956C10.5969 35.7961 10.5963 35.7968 10.5957 35.7974C10.4581 35.9315 10.2406 35.8935 10.1575 35.7826L10.1577 35.7824L10.1492 35.7721L0.476025 24.2177L0.476018 24.2177C0.282776 23.9869 0.512505 23.6435 0.799793 23.7345C0.799795 23.7345 0.799796 23.7345 0.799798 23.7345L10.3086 26.7479L10.3841 26.7719L10.4596 26.7479L19.9684 23.7345ZM10.0812 27.4945V27.3114L9.90672 27.2561L2.42613 24.8854L1.60798 24.6261L2.15891 25.2842L9.6395 34.2198L10.0812 34.7474V34.0593V27.4945ZM10.687 34.0592V34.7473L11.1287 34.2197L18.6092 25.2842L19.1601 24.6261L18.342 24.8854L10.8615 27.2561L10.687 27.3114V27.4944V34.0592Z" fill="#218D00" stroke="black" stroke-width="0.5"/>
</svg>
