<svg width="24" height="27" viewBox="0 0 24 27" fill="none" xmlns="http://www.w3.org/2000/svg">
<path d="M10.213 1.99456C11.9821 -0.938307 13.8937 1.04683 14.592 2.40948C14.0256 2.40948 13.5569 2.97979 13.5569 2.97979C12.2912 0.97217 11.2459 1.49993 11.2168 1.52902C8.74369 2.66376 8.05993 10.5924 8.05993 10.6069C8.2927 5.5879 9.95117 2.41645 10.213 1.99456Z" fill="#7FF900" stroke="black" stroke-width="0.2"/>
<path d="M13.4425 17.6772C14.2105 17.2605 15.1313 16.701 16.1014 16.0491C17.7156 15.0101 19.4777 13.7582 20.4369 12.6727C20.4369 12.6727 20.4369 12.6727 20.4369 12.6727C22.6293 10.6533 24.1762 8.52765 23.5097 7.05721C23.0349 6.00976 21.3566 5.34055 16.2793 6.88843L16.4654 8.02228C17.8135 7.48401 20.8736 6.35309 22.5495 7.37726C22.5566 7.36308 24.528 8.74477 20.4369 12.6727C19.1122 13.8929 17.5517 15.0744 16.1014 16.0491C15.0731 16.7109 14.1048 17.2863 13.4425 17.6772Z" fill="#7FF900"/>
<path d="M13.4425 17.6772C17.2589 15.6066 24.8483 10.0104 23.5097 7.05721C23.0349 6.00976 21.3566 5.34055 16.2793 6.88843L16.4654 8.02228C17.8135 7.48401 20.8736 6.35309 22.5495 7.37726C22.5566 7.36308 24.528 8.74477 20.4369 12.6727C18.8667 14.4497 15.1446 16.6728 13.4425 17.6772Z" stroke="black" stroke-width="0.2"/>
<path d="M15.3339 10.3579C14.592 9.89627 13.6505 9.37241 12.6041 8.85143C10.903 7.96189 8.94369 7.04902 7.52598 6.75187C7.52598 6.75187 7.52597 6.75187 7.52597 6.75186C4.68673 5.84437 2.07432 5.55056 1.12561 6.85683C0.449797 7.78735 0.697752 9.57707 4.5532 13.2253L5.29517 12.6517C4.16083 11.746 1.81668 9.49638 1.87847 7.53325C1.86263 7.5341 2.08911 5.13738 7.52597 6.75186C9.24153 7.3002 11.0399 8.07259 12.6041 8.85143C13.6878 9.41812 14.6667 9.97535 15.3339 10.3579Z" fill="#7FF900"/>
<path d="M15.3339 10.3579C11.6473 8.06405 3.03101 4.2333 1.12561 6.85683C0.449797 7.78735 0.697752 9.57707 4.5532 13.2253L5.29517 12.6517C4.16083 11.746 1.81668 9.49638 1.87847 7.53325C1.86263 7.5341 2.08912 5.13737 7.52598 6.75187C9.84684 7.23833 13.6193 9.37486 15.3339 10.3579Z" stroke="black" stroke-width="0.2"/>
<path d="M9.99275 13.4584C9.99275 14.6542 10.9877 15.6279 12.2204 15.6279C13.4531 15.6279 14.4481 14.6542 14.4481 13.4584C14.4481 12.2626 13.4531 11.289 12.2204 11.289C10.9877 11.289 9.99275 12.2626 9.99275 13.4584Z" fill="#7FF900" stroke="black" stroke-width="0.2"/>
<path d="M13.6879 3.78388C13.6879 4.29651 14.116 4.71679 14.6499 4.71679C15.1838 4.71679 15.6119 4.29651 15.6119 3.78388C15.6119 3.27125 15.1838 2.85098 14.6499 2.85098C14.116 2.85098 13.6879 3.27125 13.6879 3.78388Z" fill="#7FF900" stroke="black" stroke-width="0.2"/>
<path d="M1.67131 16.1787C1.67131 16.6913 2.09938 17.1116 2.63331 17.1116C3.16725 17.1116 3.59531 16.6913 3.59531 16.1787C3.59531 15.666 3.16725 15.2458 2.63331 15.2458C2.09938 15.2458 1.67131 15.666 1.67131 16.1787Z" fill="#7FF900" stroke="black" stroke-width="0.2"/>
<path d="M18.4306 20.3977C18.4306 20.9103 18.8587 21.3306 19.3926 21.3306C19.9265 21.3306 20.3546 20.9103 20.3546 20.3977C20.3546 19.885 19.9265 19.4647 19.3926 19.4647C18.8587 19.4647 18.4306 19.885 18.4306 20.3977Z" fill="#7FF900" stroke="black" stroke-width="0.2"/>
<path d="M16.1818 18.757C17.011 12.7342 16.4594 7.46844 15.6011 4.87891C15.6011 4.87891 15.3338 5.02044 15.0865 5.09318C14.8391 5.16592 14.383 5.16703 14.383 5.16703C14.8631 7.25223 16.1736 11.0861 15.2716 18.4328L16.1818 18.757Z" fill="#7FF900" stroke="black" stroke-width="0.2"/>
<path d="M18.0801 20.6516C17.9171 20.3141 18.1201 19.7376 18.2559 19.5969C12.0439 17.9239 9.08045 15.4786 6.44727 13.6165L5.75586 14.2219C11.6914 19.0518 18.0801 20.6516 18.0801 20.6516Z" fill="#7FF900" stroke="black" stroke-width="0.2"/>
<path d="M3.0254 14.8822C3.39916 14.9099 3.85038 15.5107 3.90428 15.6986C8.45914 11.1554 12.0692 9.77117 14.9985 8.42184L14.7496 7.34136C7.59902 10.0668 3.0254 14.8822 3.0254 14.8822Z" fill="#7FF900" stroke="black" stroke-width="0.2"/>
<path d="M16.7886 11.2761C16.9451 11.3791 17.1111 11.4915 17.2848 11.6123C20.0849 13.5709 21.8666 15.8603 21.8804 15.8878C25.0955 20.2231 20.6154 19.929 20.6154 19.929C20.7317 20.1617 20.6935 20.6868 20.588 20.9055C21.7082 20.9928 23.4574 20.6654 23.6552 19.583C24.0257 16.9897 19.8345 13.3865 17.2848 11.6123C17.1228 11.499 16.9573 11.3868 16.7886 11.2761Z" fill="#7FF900"/>
<path d="M16.7886 11.2761C19.2423 12.8909 24.0509 16.8131 23.6552 19.583C23.4574 20.6654 21.7082 20.9928 20.588 20.9055C20.6935 20.6868 20.7317 20.1617 20.6154 19.929C20.6154 19.929 25.0955 20.2231 21.8804 15.8878C21.8658 15.8587 19.8728 13.2983 16.7886 11.2761Z" stroke="black" stroke-width="0.2"/>
<path d="M16.0215 20.2726L15.0684 19.9328C14.5301 22.6387 12.8664 27.3836 10.3874 24.6602C10.4159 24.6697 9.2981 23.3223 8.56657 19.8739C9.69628 19.4958 10.8674 19.0283 11.8131 18.5064C11.8131 18.5064 10.4421 19.1889 8.55241 19.8066C8.52218 19.662 8.49263 19.5137 8.46388 19.3617C8.0749 16.9944 7.93578 14.5247 7.95287 12.7858C7.95416 12.681 7.95582 12.5754 7.95788 12.469C7.95562 12.5716 7.95394 12.6773 7.95287 12.7858C7.91976 15.4923 8.14184 17.6592 8.46388 19.3617C8.48854 19.5117 8.5142 19.6614 8.54088 19.8104C7.50037 20.15 6.30346 20.4697 5.09193 20.6449C2.48784 20.86 2.13764 20.0503 1.97867 19.743C1.54223 18.8992 2.4707 17.4914 2.4707 17.4914C2.20898 17.4914 1.48633 17.1594 1.39258 16.7726C1.39258 16.7726 -1.57104 21.6752 4.84461 20.8341C5.54879 20.7417 7.01135 20.3935 8.55314 19.8784C9.09574 22.8691 10.0548 25.5948 11.624 26.3332C13.7655 27.341 15.4687 22.9495 16.0215 20.2726Z" fill="#7FF900"/>
<path d="M16.0215 20.2726L15.0684 19.9328C14.5301 22.6387 12.8664 27.3836 10.3874 24.6602C10.431 24.6747 7.7833 21.5033 7.95788 12.469C7.87059 16.4309 8.65618 24.9366 11.624 26.3332C13.7655 27.341 15.4687 22.9495 16.0215 20.2726ZM11.8131 18.5064C9.5727 19.743 6.06664 20.6738 4.84461 20.8341C-1.57104 21.6752 1.39258 16.7726 1.39258 16.7726C1.48633 17.1594 2.20898 17.4914 2.4707 17.4914C2.4707 17.4914 1.54223 18.8992 1.97867 19.743C2.13764 20.0503 2.48784 20.86 5.09193 20.6449C8.5107 20.1503 11.8131 18.5064 11.8131 18.5064Z" stroke="black" stroke-width="0.2"/>
</svg>
