<svg width="29" height="29" viewBox="0 0 29 29" fill="none" xmlns="http://www.w3.org/2000/svg">
<g clip-path="url(#clip0_16874_18399)">
<path d="M22.0319 16.1179L18.8813 24.1827C18.4181 26.6945 17.9878 28.5074 17.9878 28.5074H11.9563C11.9563 28.5074 11.3443 25.9299 10.7947 22.6646L8.47705 16.1179L10.5503 10.3555C10.6131 10.2264 10.6815 10.1083 10.7559 10.0011C11.0299 9.60791 11.4575 9.28963 11.9798 9.04736H17.9642C18.486 9.28963 18.9136 9.60791 19.1876 10.0011C19.4413 10.3653 19.6273 10.8619 19.7569 11.458L22.0319 16.1179Z" fill="#EEF0F5"/>
<path d="M22.0319 16.1179L18.8814 24.1827C18.4182 26.6945 17.9878 28.5074 17.9878 28.5074H16.5068C16.5107 28.4959 16.5134 28.4844 16.5156 28.4729C16.6337 27.856 16.9536 26.1728 17.3025 24.2877C16.818 21.5085 16.5046 18.2507 17.413 17.1439C17.6186 16.8939 17.9457 16.6943 18.3449 16.5456C17.7389 15.8313 17.2626 14.8568 17.2883 13.698C17.3107 12.6529 17.6438 11.7856 18.2273 11.196C18.0977 10.6202 17.915 10.14 17.6684 9.7851C17.4693 9.49908 17.1893 9.25354 16.8503 9.04736H17.9643C18.486 9.28963 18.9136 9.60791 19.1876 10.0011C19.4414 10.3653 19.6273 10.8619 19.7569 11.458L22.0319 16.1179Z" fill="#DAE1EA"/>
<path d="M24.1237 28.5073H19.8395C19.8395 28.5073 17.2954 19.4204 18.9874 17.3598C19.1925 17.1098 19.5195 16.9102 19.9193 16.7615L22.7007 16.7669L24.0657 16.7697C24.4551 16.9173 24.7745 17.1142 24.9763 17.3598C26.6678 19.4204 24.1237 28.5073 24.1237 28.5073V28.5073Z" fill="#EEF0F5"/>
<path d="M24.1236 28.5072H22.7565C22.7565 28.5072 25.3005 19.4203 23.609 17.3597C23.4072 17.1141 23.0879 16.9172 22.6985 16.7696L22.7007 16.7668L24.0657 16.7696C24.4551 16.9172 24.7744 17.1141 24.9762 17.3597C26.6677 19.4203 24.1236 28.5072 24.1236 28.5072V28.5072Z" fill="#DAE1EA"/>
<path d="M9.52325 28.5074H4.60793C4.60793 28.5074 1.68926 18.0817 3.62957 15.7176C3.87621 15.4174 4.27488 15.1811 4.76106 15.0083H9.37012C9.85629 15.1811 10.255 15.4174 10.5011 15.7176C12.4419 18.0817 9.52325 28.5074 9.52325 28.5074Z" fill="#EEF0F5"/>
<path d="M9.52324 28.5074H7.77324C7.77324 28.5074 10.6919 18.0817 8.75105 15.7176C8.50496 15.4174 8.10629 15.1811 7.62012 15.0083H9.37012C9.85629 15.1811 10.255 15.4174 10.5011 15.7176C12.4419 18.0817 9.52324 28.5074 9.52324 28.5074Z" fill="#DAE1EA"/>
<path d="M10.6745 11.7244C10.6745 14.5747 8.05772 16.4352 7.06569 16.4352C6.90272 16.4352 6.696 16.3848 6.46413 16.2886C5.26756 15.7904 3.40436 14.0579 3.45741 11.6216C3.5028 9.52703 4.62499 8.05047 6.46413 7.78961C6.65717 7.76227 6.85788 7.74805 7.06569 7.74805C9.25866 7.74805 10.6231 9.30773 10.6734 11.6216C10.674 11.656 10.6745 11.6905 10.6745 11.7244V11.7244Z" fill="#A4CE39"/>
<path d="M10.6745 11.7244C10.6745 14.5747 8.0577 16.4352 7.06567 16.4352C6.9027 16.4352 6.69599 16.3848 6.46411 16.2886C7.64372 15.7975 9.47137 14.1066 9.47137 11.7244C9.47137 11.6905 9.47083 11.656 9.47028 11.6216C9.42489 9.52758 8.3027 8.05102 6.46411 7.78961C6.65716 7.76227 6.85786 7.74805 7.06567 7.74805C9.25864 7.74805 10.6231 9.30773 10.6734 11.6216C10.674 11.656 10.6745 11.6905 10.6745 11.7244Z" fill="#68C044"/>
<path d="M19.0492 5.82022C19.0492 9.04022 16.0928 11.1424 14.9717 11.1424C14.7929 11.1424 14.5681 11.0894 14.3154 10.986C12.9647 10.4369 10.8351 8.47311 10.8953 5.70428C10.9472 3.32975 12.2247 1.6574 14.3154 1.37139C14.526 1.3424 14.7447 1.32764 14.9717 1.32764C17.4496 1.32764 18.9912 3.09022 19.0481 5.70428C19.0492 5.74311 19.0492 5.78193 19.0492 5.82022V5.82022Z" fill="#A4CE39"/>
<path d="M19.0492 5.82022C19.0492 9.04022 16.0928 11.1424 14.9717 11.1424C14.7929 11.1424 14.5681 11.0894 14.3154 10.986C15.6471 10.444 17.7367 8.52725 17.7367 5.82022C17.7367 5.78193 17.7367 5.74311 17.7356 5.70428C17.6842 3.32975 16.4067 1.6574 14.3154 1.37139C14.526 1.3424 14.7447 1.32764 14.9717 1.32764C17.4496 1.32764 18.9912 3.09022 19.0481 5.70428C19.0492 5.74311 19.0492 5.78193 19.0492 5.82022V5.82022Z" fill="#68C044"/>
<path d="M25.1021 14.002C25.1021 16.4668 22.8397 18.0757 21.9817 18.0757C21.8411 18.0757 21.6623 18.0325 21.4621 17.9488C20.4274 17.5189 18.8164 16.0205 18.8623 13.9139C18.9017 12.1032 19.8724 10.8268 21.4621 10.6015C21.6289 10.5775 21.8017 10.5654 21.9817 10.5654C23.8777 10.5654 25.0573 11.9135 25.101 13.9139C25.1016 13.9435 25.1021 13.9725 25.1021 14.002Z" fill="#A4CE39"/>
<path d="M25.1022 14.002C25.1022 16.4668 22.8397 18.0757 21.9817 18.0757C21.8411 18.0757 21.6623 18.0325 21.4622 17.9488C22.4821 17.525 24.0631 16.0626 24.0631 14.002C24.0631 13.9725 24.0625 13.9435 24.062 13.9139C24.0226 12.1032 23.0519 10.8268 21.4622 10.6015C21.629 10.5775 21.8018 10.5654 21.9817 10.5654C23.8777 10.5654 25.0573 11.9135 25.1011 13.9139C25.1016 13.9435 25.1022 13.9725 25.1022 14.002V14.002Z" fill="#68C044"/>
<path d="M13.0814 5.08013C12.8934 4.9537 12.6385 5.00357 12.5121 5.19148C12.3856 5.37944 12.4354 5.63428 12.6234 5.76072L13.544 6.38011C13.6142 6.42736 13.6938 6.45 13.7726 6.45C13.9045 6.45 14.034 6.38645 14.1132 6.26877C14.2396 6.08081 14.1898 5.82596 14.0019 5.69952L13.0814 5.08013Z" fill="black"/>
<path d="M16.862 5.08016L15.9415 5.69955C15.7535 5.82599 15.7037 6.08088 15.8301 6.26879C15.9093 6.38648 16.0389 6.45002 16.1708 6.45002C16.2495 6.45002 16.3292 6.42738 16.3994 6.38013L17.3199 5.76074C17.5079 5.63431 17.5577 5.37941 17.4313 5.1915C17.3049 5.0036 17.05 4.95367 16.862 5.08016Z" fill="black"/>
<path d="M6.23328 11.5783L5.41849 11.0301C5.23053 10.9037 4.97568 10.9535 4.84919 11.1414C4.72275 11.3294 4.77257 11.5842 4.96054 11.7107L5.77532 12.2589C5.8456 12.3062 5.92517 12.3288 6.00392 12.3288C6.13582 12.3288 6.26538 12.2653 6.34457 12.1476C6.47106 11.9596 6.42124 11.7048 6.23328 11.5783V11.5783Z" fill="black"/>
<path d="M8.71209 11.0301L7.8973 11.5783C7.70934 11.7048 7.65952 11.9597 7.78596 12.1476C7.86515 12.2653 7.9947 12.3288 8.12661 12.3288C8.20536 12.3288 8.28498 12.3062 8.3552 12.2589L9.16999 11.7107C9.35795 11.5842 9.40777 11.3293 9.28134 11.1414C9.1549 10.9535 8.90005 10.9036 8.71209 11.0301V11.0301Z" fill="black"/>
<path d="M21.2933 13.8307L20.5889 13.3568C20.401 13.2303 20.1461 13.2801 20.0196 13.4681C19.8932 13.6561 19.943 13.9109 20.1309 14.0373L20.8354 14.5113C20.9057 14.5586 20.9852 14.5812 21.064 14.5812C21.1959 14.5812 21.3254 14.5177 21.4046 14.4C21.5311 14.2121 21.4812 13.9572 21.2933 13.8307V13.8307Z" fill="black"/>
<path d="M23.3742 13.3567L22.6698 13.8307C22.4818 13.9572 22.432 14.2121 22.5584 14.4C22.6376 14.5176 22.7672 14.5812 22.8991 14.5812C22.9778 14.5812 23.0574 14.5586 23.1277 14.5113L23.8321 14.0373C24.02 13.9109 24.0699 13.656 23.9434 13.4681C23.8169 13.2802 23.5621 13.2303 23.3742 13.3567V13.3567Z" fill="black"/>
<path d="M4.29482 25.4982C4.24642 25.2769 4.02761 25.1367 3.80651 25.1851C3.58525 25.2335 3.44508 25.4521 3.49343 25.6734C3.86355 27.3661 4.20934 28.6055 4.21278 28.6178C4.26348 28.799 4.4282 28.9175 4.60752 28.9175C4.6441 28.9175 4.68135 28.9125 4.71832 28.9023C4.93646 28.8412 5.06378 28.6148 5.00269 28.3967C4.9993 28.3846 4.65991 27.1681 4.29482 25.4982Z" fill="black"/>
<path d="M24.68 13.2321C25.1192 13.8722 25.5359 14.786 25.5109 15.9301C25.487 17.0224 25.1507 17.9534 24.5383 18.6225C23.9051 19.3143 23.021 19.68 21.9815 19.68C21.2198 19.68 20.5415 19.4836 19.9842 19.1065C19.8585 19.4871 19.7045 19.8091 19.5241 20.0683C19.2927 20.4006 18.9687 20.6919 18.5576 20.9378C18.8032 21.3328 19.0033 21.7485 19.1495 22.1729C19.2233 22.387 19.1095 22.6205 18.8954 22.6943C18.6813 22.7681 18.4478 22.6543 18.374 22.4401C17.627 20.2723 15.6254 19.1027 14.9718 19.1027C14.5521 19.1027 13.6756 19.5426 12.878 20.3579C12.2734 20.9759 11.2652 22.2865 11.3054 24.1222C11.359 26.574 12.7638 28.0972 14.9718 28.0972C17.1797 28.0972 18.5846 26.574 18.6382 24.1221C18.6431 23.8956 18.8286 23.7176 19.0572 23.721C19.2837 23.726 19.4633 23.9135 19.4583 24.14C19.3949 27.0422 17.6338 28.9175 14.9718 28.9175C12.3098 28.9175 10.5487 27.0422 10.4853 24.14C10.4564 22.8198 10.888 21.7387 11.3859 20.9378C11.0836 20.757 10.8284 20.5515 10.6224 20.3232C10.4519 20.6849 10.2354 21.0109 9.97531 21.2951C9.2554 22.0817 8.24915 22.4974 7.06528 22.4974C5.8814 22.4974 4.8751 22.0817 4.15524 21.2951C3.4576 20.5328 3.0744 19.4704 3.04717 18.2228C3.0166 16.8239 3.56445 15.7259 4.10335 14.9899C3.77035 14.8175 3.5055 14.6127 3.31267 14.3778C2.37074 13.2305 2.30752 10.4065 3.12477 5.98433C3.16124 5.7868 3.33367 5.64866 3.52765 5.64866C3.55237 5.64866 3.57747 5.6509 3.60263 5.65555C3.82537 5.69673 3.97259 5.91067 3.93141 6.13341C2.92002 11.6058 3.50687 13.3216 3.94667 13.8573C4.09547 14.0385 4.3362 14.204 4.6506 14.3424C4.65356 14.3394 4.65651 14.3364 4.65941 14.3334C5.4456 13.5298 6.41242 12.99 7.06528 12.99C7.71814 12.99 8.68496 13.5298 9.47114 14.3334C9.47404 14.3364 9.477 14.3394 9.47989 14.3424C9.79429 14.2039 10.0351 14.0385 10.1839 13.8573C10.4619 13.5187 10.6411 12.9251 10.7167 12.0928C10.7361 11.8798 10.9149 11.7197 11.1247 11.7197C11.1371 11.7197 11.1497 11.7203 11.1622 11.7214C11.3878 11.7419 11.5541 11.9413 11.5336 12.1669C11.4416 13.18 11.2075 13.9032 10.8179 14.3778C10.6251 14.6126 10.3603 14.8174 10.0272 14.9898C10.5661 15.7259 11.114 16.8238 11.0834 18.2228C11.0747 18.6223 11.0295 19.0027 10.9491 19.3605C10.9946 19.4475 11.0427 19.5277 11.0926 19.5994C11.2671 19.85 11.5255 20.0736 11.8631 20.2666C12.0149 20.0784 12.1614 19.9172 12.2917 19.7841C13.1705 18.8858 14.2476 18.2822 14.9718 18.2822C15.5588 18.2822 16.4063 18.6906 17.1834 19.348C17.5116 19.6257 17.8127 19.9348 18.0805 20.2666C18.418 20.0736 18.6765 19.85 18.8509 19.5994C19.0376 19.3314 19.1915 18.9586 19.3094 18.4893C18.7702 17.8322 18.4745 16.9516 18.4521 15.93C18.4272 14.7858 18.8438 13.8721 19.2831 13.232C19.0294 13.0891 18.8242 12.923 18.6701 12.7353C17.879 11.7719 17.7823 9.58857 18.3745 6.06089C18.4004 5.90657 18.4271 5.75306 18.4544 5.60086C18.0074 3.19423 17.5926 1.44024 17.5884 1.42247C17.536 1.20207 17.6723 0.980972 17.8927 0.928691C17.9246 0.921089 17.9564 0.91748 17.9878 0.91748C18.1735 0.91748 18.3417 1.04446 18.3865 1.23303C18.3895 1.24566 18.5989 2.13061 18.8802 3.50267C19.1789 2.17075 19.4405 1.23177 19.4446 1.21717C19.4953 1.03599 19.66 0.91748 19.8393 0.91748C19.8759 0.91748 19.9131 0.922457 19.9501 0.932738C20.1682 0.993824 20.2955 1.22018 20.2345 1.43827C20.2282 1.4608 19.5996 3.7177 19.1834 6.19668C18.4715 10.438 18.9534 11.7878 19.3041 12.2148C19.4141 12.3489 19.5864 12.4736 19.8094 12.5818C19.8272 12.563 19.8447 12.5449 19.8618 12.5274C20.5513 11.8227 21.4031 11.3492 21.9815 11.3492C22.5599 11.3492 23.4117 11.8227 24.1012 12.5274C24.1183 12.5449 24.1358 12.563 24.1536 12.5817C24.3766 12.4735 24.5489 12.3486 24.6589 12.2148C25.0093 11.788 25.491 10.4394 24.7806 6.20292C24.3648 3.72344 23.7348 1.46075 23.7285 1.43816C23.6675 1.22007 23.7948 0.993715 24.0129 0.932629C24.0499 0.922348 24.0871 0.91737 24.1237 0.91737C24.3031 0.91737 24.4678 1.03593 24.5185 1.21706C24.5249 1.23997 25.1653 3.53909 25.5885 6.06079C26.1807 9.58851 26.084 11.7717 25.2929 12.7353C25.1389 12.923 24.9337 13.0891 24.68 13.2321V13.2321ZM8.88478 14.9071C8.14459 14.1506 7.37519 13.8103 7.06528 13.8103C6.75536 13.8103 5.98596 14.1506 5.24577 14.9071C4.71585 15.4487 3.8321 16.5974 3.8672 18.2049C3.91402 20.3467 5.13945 21.6772 7.06528 21.6772C8.9911 21.6772 10.2165 20.3467 10.2633 18.2049C10.2985 16.5974 9.41471 15.4487 8.88478 14.9071ZM21.9815 12.1697C21.7233 12.1697 21.0768 12.4586 20.4482 13.1011C19.9961 13.5631 19.2423 14.5427 19.2722 15.9121C19.312 17.7302 20.3501 18.8596 21.9815 18.8596C23.6129 18.8596 24.651 17.7302 24.6908 15.9121C24.7207 14.5427 23.9669 13.5631 23.5148 13.1011C22.8862 12.4586 22.2398 12.1697 21.9815 12.1697Z" fill="black"/>
<path d="M11.2109 22.6668C11.3762 21.6197 11.5055 20.5453 11.5552 19.5447C11.5665 19.3184 11.3922 19.1259 11.166 19.1147C10.9398 19.1047 10.7472 19.2777 10.736 19.5039C10.5477 23.2881 9.1422 28.3461 9.12809 28.3968C9.067 28.6149 9.19437 28.8413 9.41252 28.9024C9.44949 28.9126 9.48667 28.9176 9.52326 28.9176C9.70258 28.9176 9.8673 28.7991 9.91799 28.6179C9.95015 28.5031 10.3781 26.9636 10.7912 24.9584C11.1993 27.0883 11.5525 28.5825 11.5572 28.6021C11.602 28.7907 11.7703 28.9177 11.9559 28.9177C11.9873 28.9177 12.0191 28.9141 12.051 28.9065C12.2714 28.8542 12.4076 28.6331 12.3554 28.4127C12.3492 28.3871 11.7489 25.8472 11.2109 22.6668V22.6668Z" fill="black"/>
<path d="M5.27495 21.1653C5.07282 19.6148 5.06768 18.8396 5.06763 18.8201V18.8197C5.06746 18.5933 4.88388 18.4099 4.65747 18.4099C4.43096 18.4099 4.24731 18.5935 4.24731 18.8201C4.24731 18.9483 4.26629 22.0366 5.91616 28.6072C5.96292 28.7933 6.13004 28.9176 6.31368 28.9176C6.34671 28.9176 6.38035 28.9135 6.41387 28.9051C6.63355 28.8499 6.76693 28.6271 6.71181 28.4074C5.86497 25.0349 5.46302 22.6077 5.27495 21.1653V21.1653Z" fill="black"/>
<path d="M23.4213 23.6304C23.1984 23.5901 22.985 23.7381 22.9447 23.961C22.6918 25.3598 22.3794 26.858 22.0164 28.4141C21.965 28.6347 22.1021 28.8552 22.3227 28.9067C22.3541 28.914 22.3854 28.9175 22.4162 28.9175C22.6026 28.9175 22.7712 28.7897 22.8153 28.6004C23.1814 27.031 23.4965 25.5191 23.7519 24.1069C23.7922 23.884 23.6443 23.6707 23.4213 23.6304V23.6304Z" fill="black"/>
<path d="M23.6412 22.6971C23.8405 22.6971 24.0152 22.5517 24.0461 22.3486C24.1809 21.4631 24.2287 20.9979 24.2307 20.9786C24.2536 20.7532 24.0895 20.552 23.8641 20.529C23.6386 20.5059 23.4375 20.6702 23.4146 20.8955C23.4141 20.9001 23.3664 21.3626 23.2352 22.2252C23.2011 22.4491 23.355 22.6582 23.579 22.6924C23.5999 22.6956 23.6207 22.6971 23.6412 22.6971Z" fill="black"/>
</g>
<defs>
<clipPath id="clip0_16874_18399">
<rect width="28" height="28" fill="white" transform="translate(0.262695 0.91748)"/>
</clipPath>
</defs>
</svg>
