<svg width="24" height="23" viewBox="0 0 24 23" fill="none" xmlns="http://www.w3.org/2000/svg">
<path d="M12.9928 9.27777L12.9927 11.5903H10.7931L10.7932 9.27768H11.5264V8.54446C11.5264 8.13934 11.1983 7.81123 10.7932 7.81123H8.9601C8.15026 7.81123 7.49365 7.15462 7.49365 6.34479C7.49365 5.53495 8.15026 4.87834 8.9601 4.87834H14.8259C15.231 4.87834 15.5591 4.55023 15.5591 4.14512C15.5591 3.74001 15.231 3.4119 14.8259 3.4119H12.9929C12.183 3.4119 11.5264 2.75529 11.5264 1.94545V0.479004H12.2596L12.2596 1.94554C12.2596 2.35065 12.5878 2.67876 12.9929 2.67876H14.8259C15.6358 2.67876 16.2924 3.33537 16.2924 4.14521C16.2924 4.95504 15.6358 5.61165 14.8259 5.61165H8.9601C8.55499 5.61165 8.22687 5.93976 8.22687 6.34487C8.22687 6.74999 8.55499 7.0781 8.9601 7.0781H10.7932C11.603 7.0781 12.2596 7.73471 12.2596 8.54454V9.27777H12.9928Z" fill="white"/>
<path d="M6.12562 10.8963L6.12551 10.8963C4.88287 11.0299 3.68362 11.6842 2.76407 12.6004C1.84464 13.5165 1.18577 14.7133 1.04766 15.9561C0.684978 19.1104 2.94821 21.9613 6.10241 22.3243C7.38836 22.4722 8.68617 22.1817 9.78651 21.5002L9.78654 21.5003L9.79121 21.4972C10.2904 21.1724 10.8599 20.9722 11.4524 20.9133C11.5967 20.9005 11.7436 20.8942 11.8931 20.8942C12.0353 20.8942 12.1761 20.8991 12.3152 20.9092C12.9161 20.9662 13.4944 21.1684 14.0001 21.4985L14.0001 21.4985L14.0055 21.5019C16.7076 23.1695 20.2499 22.3309 21.9175 19.6288C22.5954 18.5305 22.8841 17.2359 22.7366 15.9539C22.5987 14.712 21.9398 13.5157 21.0203 12.6C20.1007 11.6841 18.9014 11.0299 17.6587 10.8963L17.6587 10.8963C17.4487 10.8738 17.2374 10.8623 17.0257 10.8623H6.76045C6.54831 10.8623 6.33632 10.8738 6.12562 10.8963Z" fill="#00FF26" stroke="black" stroke-width="0.5"/>
<path d="M14.458 17.7097C15.0654 17.7097 15.5578 17.2173 15.5578 16.6098C15.5578 16.0024 15.0654 15.51 14.458 15.51C13.8506 15.51 13.3582 16.0024 13.3582 16.6098C13.3582 17.2173 13.8506 17.7097 14.458 17.7097Z" fill="#EA3836"/>
<path d="M21.4568 13.4839C17.0442 18.4291 7.10644 20.2695 3.2251 20.8162C5.03946 22.3501 7.63582 22.5396 9.65369 21.2858C10.1868 20.939 10.7949 20.7252 11.4278 20.6626C11.581 20.6505 11.7364 20.6442 11.893 20.6442C12.0418 20.6442 12.1895 20.6493 12.3359 20.66C12.9782 20.7205 13.5963 20.9364 14.1366 21.2891C16.7213 22.8843 20.1095 22.0821 21.7046 19.4975C22.3532 18.4468 22.6293 17.2084 22.4881 15.982C22.37 15.0732 22.0141 14.2117 21.4568 13.4839Z" fill="#00FF26"/>
<path d="M6.02714 14.0452H7.49358V15.8782H9.32666V17.3447H7.49358V19.1777H6.02714V17.3447H4.19409V15.8782H6.02714V14.0452Z" fill="#383856"/>
<path d="M17.0241 15.5102C17.6316 15.5102 18.124 15.0178 18.124 14.4104C18.124 13.803 17.6316 13.3105 17.0241 13.3105C16.4167 13.3105 15.9243 13.803 15.9243 14.4104C15.9243 15.0178 16.4167 15.5102 17.0241 15.5102Z" fill="#91CECE"/>
<path d="M17.0241 19.9096C17.6316 19.9096 18.124 19.4172 18.124 18.8098C18.124 18.2024 17.6316 17.71 17.0241 17.71C16.4167 17.71 15.9243 18.2024 15.9243 18.8098C15.9243 19.4172 16.4167 19.9096 17.0241 19.9096Z" fill="#91CECE"/>
<path d="M19.5905 17.7097C20.198 17.7097 20.6904 17.2173 20.6904 16.6098C20.6904 16.0024 20.198 15.51 19.5905 15.51C18.9831 15.51 18.4907 16.0024 18.4907 16.6098C18.4907 17.2173 18.9831 17.7097 19.5905 17.7097Z" fill="#EA3836"/>
<path d="M11.1599 11.1122V9.64575H12.6264V11.1122" fill="#874D1B"/>
<path d="M15.029 15.675C15.1353 15.8462 15.1918 16.0435 15.1925 16.2448C15.1925 16.8523 14.7001 17.3446 14.0927 17.3446C13.8914 17.3439 13.6942 17.2874 13.5229 17.1811C13.836 17.6995 14.5106 17.8659 15.029 17.5528C15.5474 17.2397 15.7138 16.5652 15.4008 16.0468C15.3091 15.8946 15.1812 15.767 15.029 15.675Z" fill="#D62121"/>
<path d="M17.5954 13.4753C17.7017 13.6465 17.7582 13.8438 17.7589 14.0451C17.7589 14.6526 17.2665 15.1449 16.6591 15.1449C16.4578 15.1442 16.2606 15.0877 16.0894 14.9814C16.4024 15.4998 17.077 15.6662 17.5954 15.3531C18.1138 15.04 18.2802 14.3655 17.9671 13.8471C17.8755 13.695 17.7476 13.5674 17.5954 13.4753Z" fill="#83B2B7"/>
<path d="M20.1616 15.675C20.2679 15.8462 20.3243 16.0435 20.3251 16.2448C20.3251 16.8523 19.8327 17.3446 19.2252 17.3446C19.024 17.3439 18.8267 17.2874 18.6555 17.1811C18.9686 17.6995 19.6432 17.8659 20.1616 17.5528C20.68 17.2397 20.8464 16.5652 20.5333 16.0468C20.4417 15.8946 20.3137 15.767 20.1616 15.675Z" fill="#D62121"/>
<path d="M17.5954 17.8748C17.7017 18.0459 17.7582 18.2432 17.7589 18.4445C17.7589 19.052 17.2665 19.5443 16.6591 19.5443C16.4578 19.5436 16.2606 19.4871 16.0894 19.3808C16.4024 19.8992 17.077 20.0656 17.5954 19.7525C18.1138 19.4395 18.2802 18.7649 17.9671 18.2465C17.8755 18.0944 17.7476 17.9668 17.5954 17.8748Z" fill="#83B2B7"/>
<path d="M4.19409 16.9864V17.3446H6.02714V19.1777H7.49358V17.3446H9.32662V15.8782H8.71475C7.26666 16.8878 5.05858 16.989 4.19409 16.9864Z" fill="#202033"/>
<path d="M11.1599 11.0122V11.1123H12.6264V9.90796C12.277 10.4319 11.7601 10.8212 11.1599 11.0122Z" fill="#6B3713"/>
<path d="M9.32682 15.5115H7.86038V14.0451C7.86038 13.8427 7.69616 13.6785 7.49377 13.6785H6.02734C5.82495 13.6785 5.66073 13.8427 5.66073 14.0451V15.5115H4.19425C3.99186 15.5115 3.82764 15.6757 3.82764 15.8781V17.3446C3.82764 17.5469 3.99186 17.7112 4.19425 17.7112H5.66068V19.1776C5.66068 19.38 5.82491 19.5442 6.02729 19.5442H7.49373C7.69611 19.5442 7.86034 19.38 7.86034 19.1776V17.7112H9.32678C9.52916 17.7112 9.69339 17.547 9.69339 17.3446V15.8782C9.69343 15.6758 9.52916 15.5115 9.32682 15.5115ZM8.96021 16.978H7.49377C7.29139 16.978 7.12716 17.1422 7.12716 17.3446V18.811H6.39395V17.3446C6.39395 17.1422 6.22972 16.978 6.02734 16.978H4.56086V16.2448H6.02729C6.22968 16.2448 6.3939 16.0805 6.3939 15.8782V14.4117H7.12712V15.8782C7.12712 16.0805 7.29135 16.2448 7.49373 16.2448H8.96017V16.978H8.96021Z" fill="black"/>
<path d="M17.0258 15.8782C17.8356 15.8782 18.4922 15.2216 18.4922 14.4118C18.4922 13.6019 17.8356 12.9453 17.0258 12.9453C16.2159 12.9453 15.5593 13.6019 15.5593 14.4118C15.5593 15.2216 16.2159 15.8782 17.0258 15.8782ZM17.0258 13.6785C17.4309 13.6785 17.759 14.0066 17.759 14.4118C17.759 14.8169 17.4309 15.145 17.0258 15.145C16.6207 15.145 16.2925 14.8169 16.2925 14.4118C16.2925 14.0066 16.621 13.6785 17.0258 13.6785Z" fill="black"/>
<path d="M17.0258 17.3447C16.2159 17.3447 15.5593 18.0013 15.5593 18.8112C15.5593 19.621 16.2159 20.2776 17.0258 20.2776C17.8356 20.2776 18.4922 19.621 18.4922 18.8112C18.4922 18.0013 17.8356 17.3447 17.0258 17.3447ZM17.0258 19.5444C16.6207 19.5444 16.2925 19.2163 16.2925 18.8112C16.2925 18.4061 16.6207 18.0779 17.0258 18.0779C17.4309 18.0779 17.759 18.4061 17.759 18.8112C17.759 19.2163 17.4309 19.5444 17.0258 19.5444Z" fill="black"/>
<path d="M14.4594 15.145C13.6495 15.145 12.9929 15.8016 12.9929 16.6115C12.9929 17.4213 13.6495 18.0779 14.4594 18.0779C15.2692 18.0779 15.9258 17.4213 15.9258 16.6115C15.9258 15.8016 15.2692 15.145 14.4594 15.145ZM14.4594 17.3447C14.0542 17.3447 13.7261 17.0166 13.7261 16.6115C13.7261 16.2064 14.0542 15.8783 14.4594 15.8783C14.8645 15.8783 15.1926 16.2064 15.1926 16.6115C15.1926 17.0166 14.8644 17.3447 14.4594 17.3447Z" fill="black"/>
<path d="M19.5919 15.145C18.7821 15.145 18.1255 15.8016 18.1255 16.6115C18.1255 17.4213 18.7821 18.0779 19.5919 18.0779C20.4018 18.0779 21.0584 17.4213 21.0584 16.6115C21.0584 15.8016 20.4018 15.145 19.5919 15.145ZM19.5919 17.3447C19.1868 17.3447 18.8587 17.0166 18.8587 16.6115C18.8587 16.2064 19.1868 15.8783 19.5919 15.8783C19.997 15.8783 20.3251 16.2064 20.3251 16.6115C20.3251 17.0166 19.997 17.3447 19.5919 17.3447Z" fill="black"/>
</svg>
