<svg width="31" height="31" viewBox="0 0 31 31" fill="none" xmlns="http://www.w3.org/2000/svg">
<g clip-path="url(#clip0_16874_18398)">
<path d="M16.4058 8.6499V8.3999H16.1558H15.2495H14.3433H14.0933V8.6499V11.3687V11.6187H14.3433H15.2495H16.1558H16.4058V11.3687V8.6499Z" fill="#41F50C" stroke="black" stroke-width="0.5"/>
<path d="M12.7808 10.9155V10.6655H12.5308H11.6245H10.7183H10.4683V10.9155V14.5405V14.7905H10.7183H11.6245H12.5308H12.7808V14.5405V10.9155Z" fill="#41F50C" stroke="black" stroke-width="0.5"/>
<path d="M9.15576 12.2749V12.0249H8.90576H7.99951H7.09326H6.84326V12.2749V16.8062V17.0562H7.09326H7.99951H8.90576H9.15576V16.8062V12.2749Z" fill="#41F50C" stroke="black" stroke-width="0.5"/>
<path d="M27.8655 14.9445L27.8641 14.9449C27.6108 15.0222 27.3417 15.0788 27.068 15.123L26.9882 15.1359L26.931 15.193L23.7553 18.3687H19.7808H19.6558L19.5808 18.4687L16.937 21.9937H11.6245H11.5111L11.4364 22.0791L5.09262 29.3291L5.03076 29.3998V29.4937V29.9468V30.1968H5.28076H30.6558H30.9058V29.9468V13.5437V12.9323L30.4774 13.3685C29.7632 14.0958 28.8708 14.6442 27.8655 14.9445Z" fill="#41F50C" stroke="black" stroke-width="0.5"/>
<path d="M30.8341 13.7188L30.8346 13.7183C31.9973 12.5274 32.7183 10.8977 32.7183 9.10303C32.7183 5.4623 29.7652 2.50928 26.1245 2.50928C22.4838 2.50928 19.5308 5.4623 19.5308 9.10303C19.5308 12.7438 22.4838 15.6968 26.1245 15.6968C26.4735 15.6968 26.8125 15.6685 27.1461 15.6168L27.1476 15.6166C27.4356 15.5701 27.728 15.5091 28.0093 15.4233C29.097 15.0982 30.0622 14.5049 30.8341 13.7188Z" fill="#74DA0B" stroke="black" stroke-width="0.5"/>
<path d="M26.1245 13.8843C28.7651 13.8843 30.9058 11.7436 30.9058 9.10303C30.9058 6.46242 28.7651 4.32178 26.1245 4.32178C23.4839 4.32178 21.3433 6.46242 21.3433 9.10303C21.3433 11.7436 23.4839 13.8843 26.1245 13.8843Z" fill="#41F50C" stroke="black" stroke-width="0.5"/>
<mask id="path-7-inside-1_16874_18398" fill="white">
<path d="M26.5776 12.2749V11.3687C27.3271 11.3687 27.937 10.7587 27.937 10.0093C27.937 9.25981 27.3271 8.6499 26.5776 8.6499H25.6714C25.4213 8.6499 25.2183 8.4469 25.2183 8.19678C25.2183 7.94665 25.4213 7.74365 25.6714 7.74365H27.0308V8.19678H27.937V6.8374H26.5776V5.93115H25.6714V6.8374C24.9219 6.8374 24.312 7.44731 24.312 8.19678C24.312 8.94625 24.9219 9.55615 25.6714 9.55615H26.5776C26.8278 9.55615 27.0308 9.75915 27.0308 10.0093C27.0308 10.2594 26.8278 10.4624 26.5776 10.4624H25.2183V10.0093H24.312V11.3687H25.6714V12.2749H26.5776Z"/>
</mask>
<path d="M26.5776 12.2749V11.3687C27.3271 11.3687 27.937 10.7587 27.937 10.0093C27.937 9.25981 27.3271 8.6499 26.5776 8.6499H25.6714C25.4213 8.6499 25.2183 8.4469 25.2183 8.19678C25.2183 7.94665 25.4213 7.74365 25.6714 7.74365H27.0308V8.19678H27.937V6.8374H26.5776V5.93115H25.6714V6.8374C24.9219 6.8374 24.312 7.44731 24.312 8.19678C24.312 8.94625 24.9219 9.55615 25.6714 9.55615H26.5776C26.8278 9.55615 27.0308 9.75915 27.0308 10.0093C27.0308 10.2594 26.8278 10.4624 26.5776 10.4624H25.2183V10.0093H24.312V11.3687H25.6714V12.2749H26.5776Z" fill="#0E750E"/>
<path d="M26.5776 12.2749V13.2749H27.5776V12.2749H26.5776ZM26.5776 11.3687V10.3687H25.5776V11.3687H26.5776ZM27.0308 7.74365H28.0308V6.74365H27.0308V7.74365ZM27.0308 8.19678H26.0308V9.19678H27.0308V8.19678ZM27.937 8.19678V9.19678H28.937V8.19678H27.937ZM27.937 6.8374H28.937V5.8374H27.937V6.8374ZM26.5776 6.8374H25.5776V7.8374H26.5776V6.8374ZM26.5776 5.93115H27.5776V4.93115H26.5776V5.93115ZM25.6714 5.93115V4.93115H24.6714V5.93115H25.6714ZM25.6714 6.8374V7.8374H26.6714V6.8374H25.6714ZM25.2183 10.4624H24.2183V11.4624H25.2183V10.4624ZM25.2183 10.0093H26.2183V9.00928H25.2183V10.0093ZM24.312 10.0093V9.00928H23.312V10.0093H24.312ZM24.312 11.3687H23.312V12.3687H24.312V11.3687ZM25.6714 11.3687H26.6714V10.3687H25.6714V11.3687ZM25.6714 12.2749H24.6714V13.2749H25.6714V12.2749ZM27.5776 12.2749V11.3687H25.5776V12.2749H27.5776ZM26.5776 12.3687C27.8794 12.3687 28.937 11.311 28.937 10.0093H26.937C26.937 10.2065 26.7748 10.3687 26.5776 10.3687V12.3687ZM28.937 10.0093C28.937 8.70752 27.8794 7.6499 26.5776 7.6499V9.6499C26.7748 9.6499 26.937 9.81209 26.937 10.0093H28.937ZM26.5776 7.6499H25.6714V9.6499H26.5776V7.6499ZM25.6714 7.6499C25.9735 7.6499 26.2183 7.89462 26.2183 8.19678H24.2183C24.2183 8.99919 24.869 9.6499 25.6714 9.6499V7.6499ZM26.2183 8.19678C26.2183 8.49894 25.9735 8.74365 25.6714 8.74365V6.74365C24.869 6.74365 24.2183 7.39437 24.2183 8.19678H26.2183ZM25.6714 8.74365H27.0308V6.74365H25.6714V8.74365ZM26.0308 7.74365V8.19678H28.0308V7.74365H26.0308ZM27.0308 9.19678H27.937V7.19678H27.0308V9.19678ZM28.937 8.19678V6.8374H26.937V8.19678H28.937ZM27.937 5.8374H26.5776V7.8374H27.937V5.8374ZM27.5776 6.8374V5.93115H25.5776V6.8374H27.5776ZM26.5776 4.93115H25.6714V6.93115H26.5776V4.93115ZM24.6714 5.93115V6.8374H26.6714V5.93115H24.6714ZM25.6714 5.8374C24.3696 5.8374 23.312 6.89502 23.312 8.19678H25.312C25.312 7.99959 25.4742 7.8374 25.6714 7.8374V5.8374ZM23.312 8.19678C23.312 9.49853 24.3696 10.5562 25.6714 10.5562V8.55615C25.4742 8.55615 25.312 8.39396 25.312 8.19678H23.312ZM25.6714 10.5562H26.5776V8.55615H25.6714V10.5562ZM26.5776 10.5562C26.2755 10.5562 26.0308 10.3114 26.0308 10.0093H28.0308C28.0308 9.20687 27.38 8.55615 26.5776 8.55615V10.5562ZM26.0308 10.0093C26.0308 9.70712 26.2755 9.4624 26.5776 9.4624V11.4624C27.38 11.4624 28.0308 10.8117 28.0308 10.0093H26.0308ZM26.5776 9.4624H25.2183V11.4624H26.5776V9.4624ZM26.2183 10.4624V10.0093H24.2183V10.4624H26.2183ZM25.2183 9.00928H24.312V11.0093H25.2183V9.00928ZM23.312 10.0093V11.3687H25.312V10.0093H23.312ZM24.312 12.3687H25.6714V10.3687H24.312V12.3687ZM24.6714 11.3687V12.2749H26.6714V11.3687H24.6714ZM25.6714 13.2749H26.5776V11.2749H25.6714V13.2749Z" fill="black" mask="url(#path-7-inside-1_16874_18398)"/>
<mask id="path-9-inside-2_16874_18398" fill="white">
<path d="M31.1089 9.10303C31.1089 6.35482 28.8727 4.11865 26.1245 4.11865C23.3763 4.11865 21.1401 6.35482 21.1401 9.10303C21.1401 11.8512 23.3763 14.0874 26.1245 14.0874C28.8727 14.0874 31.1089 11.8512 31.1089 9.10303ZM22.0464 9.10303C22.0464 6.85417 23.8757 5.0249 26.1245 5.0249C28.3734 5.0249 30.2026 6.85417 30.2026 9.10303C30.2026 11.3519 28.3734 13.1812 26.1245 13.1812C23.8757 13.1812 22.0464 11.3519 22.0464 9.10303Z"/>
</mask>
<path d="M31.1089 9.10303C31.1089 6.35482 28.8727 4.11865 26.1245 4.11865C23.3763 4.11865 21.1401 6.35482 21.1401 9.10303C21.1401 11.8512 23.3763 14.0874 26.1245 14.0874C28.8727 14.0874 31.1089 11.8512 31.1089 9.10303ZM22.0464 9.10303C22.0464 6.85417 23.8757 5.0249 26.1245 5.0249C28.3734 5.0249 30.2026 6.85417 30.2026 9.10303C30.2026 11.3519 28.3734 13.1812 26.1245 13.1812C23.8757 13.1812 22.0464 11.3519 22.0464 9.10303Z" fill="#0E750E"/>
<path d="M32.1089 9.10303C32.1089 5.80254 29.425 3.11865 26.1245 3.11865V5.11865C28.3204 5.11865 30.1089 6.90711 30.1089 9.10303H32.1089ZM26.1245 3.11865C22.824 3.11865 20.1401 5.80254 20.1401 9.10303H22.1401C22.1401 6.90711 23.9286 5.11865 26.1245 5.11865V3.11865ZM20.1401 9.10303C20.1401 12.4035 22.824 15.0874 26.1245 15.0874V13.0874C23.9286 13.0874 22.1401 11.2989 22.1401 9.10303H20.1401ZM26.1245 15.0874C29.425 15.0874 32.1089 12.4035 32.1089 9.10303H30.1089C30.1089 11.2989 28.3204 13.0874 26.1245 13.0874V15.0874ZM23.0464 9.10303C23.0464 7.40645 24.4279 6.0249 26.1245 6.0249V4.0249C23.3234 4.0249 21.0464 6.30188 21.0464 9.10303H23.0464ZM26.1245 6.0249C27.8211 6.0249 29.2026 7.40645 29.2026 9.10303H31.2026C31.2026 6.30188 28.9257 4.0249 26.1245 4.0249V6.0249ZM29.2026 9.10303C29.2026 10.7996 27.8211 12.1812 26.1245 12.1812V14.1812C28.9257 14.1812 31.2026 11.9042 31.2026 9.10303H29.2026ZM26.1245 12.1812C24.4279 12.1812 23.0464 10.7996 23.0464 9.10303H21.0464C21.0464 11.9042 23.3234 14.1812 26.1245 14.1812V12.1812Z" fill="black" mask="url(#path-9-inside-2_16874_18398)"/>
<mask id="path-11-inside-3_16874_18398" fill="white">
<path d="M32.9214 9.10303C32.9214 5.35523 29.8723 2.30615 26.1245 2.30615C22.3767 2.30615 19.3276 5.35523 19.3276 9.10303C19.3276 11.9885 21.1379 14.4535 23.6804 15.4377L22.765 16.353H19.1219L15.95 19.978H10.5202L4.94817 26.0141L5.61381 26.629L10.9167 20.8843H16.3619L19.5338 17.2593H23.1407L24.6627 15.7372C25.0778 15.8288 25.5069 15.8795 25.9464 15.8908L23.6713 18.1655H19.5542L16.8354 21.7905H11.4188L4.82764 29.3233V30.3999H31.1089V13.7086C32.2299 12.496 32.9214 10.8806 32.9214 9.10303ZM20.2339 9.10303C20.2339 5.85503 22.8765 3.2124 26.1245 3.2124C29.3725 3.2124 32.0151 5.85503 32.0151 9.10303C32.0151 12.351 29.3725 14.9937 26.1245 14.9937C22.8765 14.9937 20.2339 12.351 20.2339 9.10303ZM27.4839 15.7631V29.4937H25.6714V17.4469L27.3321 15.7862C27.3824 15.7771 27.434 15.773 27.4839 15.7631ZM24.0465 19.0718L24.7651 18.3531V29.4937H22.9526V19.0718H24.0465ZM11.1714 29.4937H9.35889V25.5211L11.1714 23.4499V29.4937ZM12.0776 22.6968H13.8901V29.4937H12.0776V22.6968ZM14.7964 22.6968H16.6089V29.4937H14.7964V22.6968ZM17.5151 22.3945L19.3276 19.978V29.4937H17.5151V22.3945ZM20.2339 19.0718H22.0464V29.4937H20.2339V19.0718ZM8.45264 26.5569V29.4937H5.88296L8.45264 26.5569ZM28.3901 29.4937V15.5034C29.0467 15.2701 29.6562 14.9397 30.2026 14.5278V29.4937H28.3901Z"/>
</mask>
<path d="M32.9214 9.10303C32.9214 5.35523 29.8723 2.30615 26.1245 2.30615C22.3767 2.30615 19.3276 5.35523 19.3276 9.10303C19.3276 11.9885 21.1379 14.4535 23.6804 15.4377L22.765 16.353H19.1219L15.95 19.978H10.5202L4.94817 26.0141L5.61381 26.629L10.9167 20.8843H16.3619L19.5338 17.2593H23.1407L24.6627 15.7372C25.0778 15.8288 25.5069 15.8795 25.9464 15.8908L23.6713 18.1655H19.5542L16.8354 21.7905H11.4188L4.82764 29.3233V30.3999H31.1089V13.7086C32.2299 12.496 32.9214 10.8806 32.9214 9.10303ZM20.2339 9.10303C20.2339 5.85503 22.8765 3.2124 26.1245 3.2124C29.3725 3.2124 32.0151 5.85503 32.0151 9.10303C32.0151 12.351 29.3725 14.9937 26.1245 14.9937C22.8765 14.9937 20.2339 12.351 20.2339 9.10303ZM27.4839 15.7631V29.4937H25.6714V17.4469L27.3321 15.7862C27.3824 15.7771 27.434 15.773 27.4839 15.7631ZM24.0465 19.0718L24.7651 18.3531V29.4937H22.9526V19.0718H24.0465ZM11.1714 29.4937H9.35889V25.5211L11.1714 23.4499V29.4937ZM12.0776 22.6968H13.8901V29.4937H12.0776V22.6968ZM14.7964 22.6968H16.6089V29.4937H14.7964V22.6968ZM17.5151 22.3945L19.3276 19.978V29.4937H17.5151V22.3945ZM20.2339 19.0718H22.0464V29.4937H20.2339V19.0718ZM8.45264 26.5569V29.4937H5.88296L8.45264 26.5569ZM28.3901 29.4937V15.5034C29.0467 15.2701 29.6562 14.9397 30.2026 14.5278V29.4937H28.3901Z" fill="#0E750E"/>
<path d="M23.6804 15.4377L24.3875 16.1448L25.473 15.0593L24.0413 14.5051L23.6804 15.4377ZM22.765 16.353V17.353H23.1793L23.4721 17.0601L22.765 16.353ZM19.1219 16.353V15.353H18.6682L18.3693 15.6945L19.1219 16.353ZM15.95 19.978V20.978H16.4038L16.7026 20.6365L15.95 19.978ZM10.5202 19.978V18.978H10.0824L9.78546 19.2997L10.5202 19.978ZM4.94817 26.0141L4.21338 25.3358L3.53531 26.0703L4.26962 26.7487L4.94817 26.0141ZM5.61381 26.629L4.93526 27.3636L5.67008 28.0423L6.34861 27.3073L5.61381 26.629ZM10.9167 20.8843V19.8843H10.4789L10.1819 20.206L10.9167 20.8843ZM16.3619 20.8843V21.8843H16.8157L17.1145 21.5428L16.3619 20.8843ZM19.5338 17.2593V16.2593H19.08L18.7812 16.6008L19.5338 17.2593ZM23.1407 17.2593V18.2593H23.5549L23.8478 17.9664L23.1407 17.2593ZM24.6627 15.7372L24.8781 14.7607L24.343 14.6427L23.9556 15.0301L24.6627 15.7372ZM25.9464 15.8908L26.6535 16.598L28.3006 14.9512L25.9722 14.8912L25.9464 15.8908ZM23.6713 18.1655V19.1655H24.0854L24.3783 18.8727L23.6713 18.1655ZM19.5542 18.1655V17.1655H19.0542L18.7542 17.5655L19.5542 18.1655ZM16.8354 21.7905V22.7905H17.3354L17.6354 22.3905L16.8354 21.7905ZM11.4188 21.7905V20.7905H10.965L10.6662 21.132L11.4188 21.7905ZM4.82764 29.3233L4.07506 28.6648L3.82764 28.9475V29.3233H4.82764ZM4.82764 30.3999H3.82764V31.3999H4.82764V30.3999ZM31.1089 30.3999V31.3999H32.1089V30.3999H31.1089ZM31.1089 13.7086L30.3746 13.0297L30.1089 13.3172V13.7086H31.1089ZM27.4839 15.7631H28.4839V14.5433L27.2878 14.7825L27.4839 15.7631ZM27.4839 29.4937V30.4937H28.4839V29.4937H27.4839ZM25.6714 29.4937H24.6714V30.4937H25.6714V29.4937ZM25.6714 17.4469L24.9643 16.7398L24.6714 17.0327V17.4469H25.6714ZM27.3321 15.7862L27.1548 14.802L26.8465 14.8576L26.625 15.0791L27.3321 15.7862ZM24.0465 19.0718V20.0718H24.4607L24.7536 19.7789L24.0465 19.0718ZM24.7651 18.3531H25.7651V15.9389L24.058 17.646L24.7651 18.3531ZM24.7651 29.4937V30.4937H25.7651V29.4937H24.7651ZM22.9526 29.4937H21.9526V30.4937H22.9526V29.4937ZM22.9526 19.0718V18.0718H21.9526V19.0718H22.9526ZM11.1714 29.4937V30.4937H12.1714V29.4937H11.1714ZM9.35889 29.4937H8.35889V30.4937H9.35889V29.4937ZM9.35889 25.5211L8.60634 24.8626L8.35889 25.1453V25.5211H9.35889ZM11.1714 23.4499H12.1714V20.7886L10.4188 22.7913L11.1714 23.4499ZM12.0776 22.6968V21.6968H11.0776V22.6968H12.0776ZM13.8901 22.6968H14.8901V21.6968H13.8901V22.6968ZM13.8901 29.4937V30.4937H14.8901V29.4937H13.8901ZM12.0776 29.4937H11.0776V30.4937H12.0776V29.4937ZM14.7964 22.6968V21.6968H13.7964V22.6968H14.7964ZM16.6089 22.6968H17.6089V21.6968H16.6089V22.6968ZM16.6089 29.4937V30.4937H17.6089V29.4937H16.6089ZM14.7964 29.4937H13.7964V30.4937H14.7964V29.4937ZM17.5151 22.3945L16.7152 21.7945L16.5151 22.0612V22.3945H17.5151ZM19.3276 19.978H20.3276V16.9782L18.5277 19.378L19.3276 19.978ZM19.3276 29.4937V30.4937H20.3276V29.4937H19.3276ZM17.5151 29.4937H16.5151V30.4937H17.5151V29.4937ZM20.2339 19.0718V18.0718H19.2339V19.0718H20.2339ZM22.0464 19.0718H23.0464V18.0718H22.0464V19.0718ZM22.0464 29.4937V30.4937H23.0464V29.4937H22.0464ZM20.2339 29.4937H19.2339V30.4937H20.2339V29.4937ZM8.45264 26.5569H9.45264V23.8955L7.70007 25.8984L8.45264 26.5569ZM8.45264 29.4937V30.4937H9.45264V29.4937H8.45264ZM5.88296 29.4937L5.1304 28.8351L3.67916 30.4937H5.88296V29.4937ZM28.3901 29.4937H27.3901V30.4937H28.3901V29.4937ZM28.3901 15.5034L28.0552 14.5612L27.3901 14.7976V15.5034H28.3901ZM30.2026 14.5278H31.2026V12.5219L29.6007 13.7293L30.2026 14.5278ZM30.2026 29.4937V30.4937H31.2026V29.4937H30.2026ZM33.9214 9.10303C33.9214 4.80295 30.4246 1.30615 26.1245 1.30615V3.30615C29.32 3.30615 31.9214 5.90752 31.9214 9.10303H33.9214ZM26.1245 1.30615C21.8244 1.30615 18.3276 4.80295 18.3276 9.10303H20.3276C20.3276 5.90752 22.929 3.30615 26.1245 3.30615V1.30615ZM18.3276 9.10303C18.3276 12.4179 20.4073 15.243 23.3194 16.3703L24.0413 14.5051C21.8685 13.664 20.3276 11.5591 20.3276 9.10303H18.3276ZM22.9732 14.7306L22.0579 15.6459L23.4721 17.0601L24.3875 16.1448L22.9732 14.7306ZM22.765 15.353H19.1219V17.353H22.765V15.353ZM18.3693 15.6945L15.1975 19.3195L16.7026 20.6365L19.8745 17.0115L18.3693 15.6945ZM15.95 18.978H10.5202V20.978H15.95V18.978ZM9.78546 19.2997L4.21338 25.3358L5.68295 26.6924L11.255 20.6563L9.78546 19.2997ZM4.26962 26.7487L4.93526 27.3636L6.29236 25.8944L5.62672 25.2796L4.26962 26.7487ZM6.34861 27.3073L11.6515 21.5626L10.1819 20.206L4.87901 25.9507L6.34861 27.3073ZM10.9167 21.8843H16.3619V19.8843H10.9167V21.8843ZM17.1145 21.5428L20.2864 17.9178L18.7812 16.6008L15.6094 20.2258L17.1145 21.5428ZM19.5338 18.2593H23.1407V16.2593H19.5338V18.2593ZM23.8478 17.9664L25.3698 16.4443L23.9556 15.0301L22.4336 16.5522L23.8478 17.9664ZM24.4474 16.7138C24.9282 16.8198 25.421 16.8776 25.9207 16.8905L25.9722 14.8912C25.5928 14.8814 25.2274 14.8377 24.8781 14.7607L24.4474 16.7138ZM25.2394 15.1837L22.9643 17.4584L24.3783 18.8727L26.6535 16.598L25.2394 15.1837ZM23.6713 17.1655H19.5542V19.1655H23.6713V17.1655ZM18.7542 17.5655L16.0354 21.1905L17.6354 22.3905L20.3542 18.7655L18.7542 17.5655ZM16.8354 20.7905H11.4188V22.7905H16.8354V20.7905ZM10.6662 21.132L4.07506 28.6648L5.58021 29.9818L12.1714 22.449L10.6662 21.132ZM3.82764 29.3233V30.3999H5.82764V29.3233H3.82764ZM4.82764 31.3999H31.1089V29.3999H4.82764V31.3999ZM32.1089 30.3999V13.7086H30.1089V30.3999H32.1089ZM31.8432 14.3874C33.1256 13.0003 33.9214 11.1458 33.9214 9.10303H31.9214C31.9214 10.6154 31.3342 11.9918 30.3746 13.0297L31.8432 14.3874ZM21.2339 9.10303C21.2339 6.40731 23.4288 4.2124 26.1245 4.2124V2.2124C22.3242 2.2124 19.2339 5.30274 19.2339 9.10303H21.2339ZM26.1245 4.2124C28.8202 4.2124 31.0151 6.40731 31.0151 9.10303H33.0151C33.0151 5.30274 29.9248 2.2124 26.1245 2.2124V4.2124ZM31.0151 9.10303C31.0151 11.7987 28.8202 13.9937 26.1245 13.9937V15.9937C29.9248 15.9937 33.0151 12.9033 33.0151 9.10303H31.0151ZM26.1245 13.9937C23.4288 13.9937 21.2339 11.7987 21.2339 9.10303H19.2339C19.2339 12.9033 22.3242 15.9937 26.1245 15.9937V13.9937ZM26.4839 15.7631V29.4937H28.4839V15.7631H26.4839ZM27.4839 28.4937H25.6714V30.4937H27.4839V28.4937ZM26.6714 29.4937V17.4469H24.6714V29.4937H26.6714ZM26.3785 18.154L28.0392 16.4933L26.625 15.0791L24.9643 16.7398L26.3785 18.154ZM27.5094 16.7703C27.5071 16.7707 27.5065 16.7707 27.5406 16.7661C27.565 16.7629 27.6197 16.7557 27.68 16.7436L27.2878 14.7825C27.2982 14.7804 27.3021 14.7802 27.2757 14.7838C27.2662 14.785 27.2471 14.7875 27.2287 14.7902C27.209 14.793 27.1834 14.7969 27.1548 14.802L27.5094 16.7703ZM24.7536 19.7789L25.4722 19.0602L24.058 17.646L23.3394 18.3647L24.7536 19.7789ZM23.7651 18.3531V29.4937H25.7651V18.3531H23.7651ZM24.7651 28.4937H22.9526V30.4937H24.7651V28.4937ZM23.9526 29.4937V19.0718H21.9526V29.4937H23.9526ZM22.9526 20.0718H24.0465V18.0718H22.9526V20.0718ZM11.1714 28.4937H9.35889V30.4937H11.1714V28.4937ZM10.3589 29.4937V25.5211H8.35889V29.4937H10.3589ZM10.1114 26.1796L11.9239 24.1084L10.4188 22.7913L8.60634 24.8626L10.1114 26.1796ZM10.1714 23.4499V29.4937H12.1714V23.4499H10.1714ZM12.0776 23.6968H13.8901V21.6968H12.0776V23.6968ZM12.8901 22.6968V29.4937H14.8901V22.6968H12.8901ZM13.8901 28.4937H12.0776V30.4937H13.8901V28.4937ZM13.0776 29.4937V22.6968H11.0776V29.4937H13.0776ZM14.7964 23.6968H16.6089V21.6968H14.7964V23.6968ZM15.6089 22.6968V29.4937H17.6089V22.6968H15.6089ZM16.6089 28.4937H14.7964V30.4937H16.6089V28.4937ZM15.7964 29.4937V22.6968H13.7964V29.4937H15.7964ZM18.3151 22.9946L20.1276 20.5781L18.5277 19.378L16.7152 21.7945L18.3151 22.9946ZM18.3276 19.978V29.4937H20.3276V19.978H18.3276ZM19.3276 28.4937H17.5151V30.4937H19.3276V28.4937ZM18.5151 29.4937V22.3945H16.5151V29.4937H18.5151ZM20.2339 20.0718H22.0464V18.0718H20.2339V20.0718ZM21.0464 19.0718V29.4937H23.0464V19.0718H21.0464ZM22.0464 28.4937H20.2339V30.4937H22.0464V28.4937ZM21.2339 29.4937V19.0718H19.2339V29.4937H21.2339ZM7.45264 26.5569V29.4937H9.45264V26.5569H7.45264ZM8.45264 28.4937H5.88296V30.4937H8.45264V28.4937ZM6.63553 30.1522L9.20521 27.2155L7.70007 25.8984L5.1304 28.8351L6.63553 30.1522ZM29.3901 29.4937V15.5034H27.3901V29.4937H29.3901ZM28.725 16.4457C29.4784 16.1779 30.1778 15.7988 30.8045 15.3264L29.6007 13.7293C29.1346 14.0806 28.615 14.3622 28.0552 14.5612L28.725 16.4457ZM29.2026 14.5278V29.4937H31.2026V14.5278H29.2026ZM30.2026 28.4937H28.3901V30.4937H30.2026V28.4937Z" fill="black" mask="url(#path-11-inside-3_16874_18398)"/>
<path d="M7.29639 19.0718V19.3218H7.54639H8.45264H8.70264V19.0718V17.5093H9.35889H9.60889V17.2593V11.8218V11.5718H9.35889H8.70264V10.0093V9.75928H8.45264H7.54639H7.29639V10.0093V11.5718H6.64014H6.39014V11.8218V17.2593V17.5093H6.64014H7.29639V19.0718Z" fill="#41F50C" stroke="black" stroke-width="0.5"/>
<path d="M10.9214 16.8062V17.0562H11.1714H12.0776H12.3276V16.8062V15.2437H12.9839H13.2339V14.9937V10.4624V10.2124H12.9839H12.3276V8.6499V8.3999H12.0776H11.1714H10.9214V8.6499V10.2124H10.2651H10.0151V10.4624V14.9937V15.2437H10.2651H10.9214V16.8062Z" fill="#41F50C" stroke="black" stroke-width="0.5"/>
<path d="M14.5464 13.6343V13.8843H14.7964H15.7026H15.9526V13.6343V12.0718H16.6089H16.8589V11.8218V8.19678V7.94678H16.6089H15.9526V6.38428V6.13428H15.7026H14.7964H14.5464V6.38428V7.94678H13.8901H13.6401V8.19678V11.8218V12.0718H13.8901H14.5464V13.6343Z" fill="#41F50C" stroke="black" stroke-width="0.5"/>
</g>
<defs>
<clipPath id="clip0_16874_18398">
<rect width="30" height="30" fill="white" transform="translate(0.913818 0.881592)"/>
</clipPath>
</defs>
</svg>
