<svg width="31" height="31" viewBox="0 0 31 31" fill="none" xmlns="http://www.w3.org/2000/svg">
<g clip-path="url(#clip0_16874_18383)">
<path fill-rule="evenodd" clip-rule="evenodd" d="M10.5907 10.1607L13.7849 7.87082L14.1456 3.00484L8.06616 8.49097L10.5907 10.1607Z" fill="#1BCFDA"/>
<path fill-rule="evenodd" clip-rule="evenodd" d="M13.7848 7.87111L16.67 11.1151L18.7824 3.86384L14.1455 3.00513L13.7848 7.87111Z" fill="#1BCFDA"/>
<path fill-rule="evenodd" clip-rule="evenodd" d="M18.7821 3.86361L16.6698 11.1149L22.234 10.0653L18.7821 3.86361Z" fill="#1BCFDA"/>
<path fill-rule="evenodd" clip-rule="evenodd" d="M22.2333 10.0652L16.6695 11.1146L17.2878 24.5187L20.3272 26.4268L22.2333 10.0652Z" fill="#1BCFDA"/>
<path fill-rule="evenodd" clip-rule="evenodd" d="M20.3278 26.4266L17.2881 24.5184L14.4029 29.8137L20.3278 26.4266Z" fill="#1BCFDA"/>
<path fill-rule="evenodd" clip-rule="evenodd" d="M14.4031 29.814L17.2883 24.5186L12.2908 23.5168L8.73584 24.948L14.4031 29.814Z" fill="#1BCFDA"/>
<path fill-rule="evenodd" clip-rule="evenodd" d="M12.2907 23.517L17.2878 24.5187L16.6696 11.1146L13.7846 7.87094L10.5906 10.1606L12.2907 23.517Z" fill="#1BCFDA"/>
<path fill-rule="evenodd" clip-rule="evenodd" d="M12.2906 23.5171L10.5906 10.1607L8.06627 8.49111L8.73601 24.9482L12.2906 23.5171Z" fill="#1BCFDA"/>
<path d="M18.8633 3.4241L14.2268 2.56548C14.0899 2.54014 13.949 2.57996 13.8456 2.67323L7.7667 8.15889C7.66818 8.24816 7.61396 8.37635 7.61943 8.50925L8.28907 24.9663C8.2941 25.0903 8.35047 25.2067 8.44462 25.2875L14.1114 30.1531C14.255 30.2763 14.4606 30.2959 14.6249 30.202L20.5493 26.8152C20.5842 26.7953 20.6158 26.771 20.6436 26.7432C20.7141 26.6727 20.7598 26.5798 20.7716 26.4786L22.6777 10.117C22.6886 10.0238 22.6699 9.92958 22.6242 9.84761L19.1726 3.64641C19.1079 3.52993 18.9944 3.44837 18.8633 3.4241ZM18.2139 4.21386L16.4663 10.2128L14.2449 7.7151L14.5547 3.53622L18.2139 4.21386ZM19.9649 25.671L17.7239 24.2643L17.1344 11.4823L21.7186 10.6176L19.9649 25.671ZM8.54902 9.34665L10.1728 10.4206L10.7427 14.8982C10.7739 15.1433 10.9979 15.3168 11.243 15.2855C11.3453 15.2725 11.435 15.226 11.5027 15.1584C11.5972 15.0638 11.6485 14.9281 11.6304 14.7852L11.0683 10.3687L13.7181 8.46914L16.23 11.2935L16.8145 23.9676L12.694 23.1416L12.1387 18.7796C12.1076 18.5345 11.8836 18.3611 11.6384 18.3923C11.3933 18.4236 11.2199 18.6475 11.2511 18.8926L11.8032 23.231L9.15735 24.2962L8.54902 9.34665ZM13.354 7.62917L10.5805 9.61746L8.7948 8.4364L13.6167 4.0851L13.354 7.62917ZM9.58614 25.0882L12.3339 23.982L16.6043 24.838L14.2747 29.1138L9.58614 25.0882ZM17.453 25.1507L19.4572 26.4089L15.5507 28.6421L17.453 25.1507ZM21.5407 9.74065L17.3031 10.5399L18.9118 5.01754L21.5407 9.74065Z" fill="black"/>
<path d="M11.7573 17.1552C11.9321 16.9804 11.932 16.6971 11.7573 16.5223C11.5825 16.3476 11.2992 16.3475 11.1244 16.5223L11.1242 16.5225C10.9494 16.6973 10.9496 16.9806 11.1243 17.1553C11.299 17.3301 11.5825 17.33 11.7573 17.1552Z" fill="black"/>
</g>
<defs>
<clipPath id="clip0_16874_18383">
<rect width="30" height="30" fill="white" transform="translate(0.680908 0.881592)"/>
</clipPath>
</defs>
</svg>
