<svg width="45" height="40" viewBox="0 0 45 40" fill="none" xmlns="http://www.w3.org/2000/svg">
<g clip-path="url(#clip0_16874_18306)">
<path d="M43.8205 8.29989V8.95003H0.917726V8.29989C0.916372 6.40333 1.7734 4.58413 3.29952 3.24309C4.82565 1.90205 6.89592 1.14896 9.05423 1.15015H35.684C37.8423 1.14896 39.9126 1.90205 41.4387 3.24309C42.9649 4.58413 43.8219 6.40333 43.8205 8.29989Z" fill="#412A19"/>
<path d="M43.8205 8.95004L38.6428 19.3499H6.09544L0.917725 8.95004L21.2375 8.02705L22.3468 7.97498L43.8205 8.95004Z" fill="#564601"/>
<path d="M41.6016 8.94997L36.4236 19.3498H6.09544L0.917725 8.94997L21.2375 8.02698L41.6016 8.94997Z" fill="#59502A"/>
<path d="M9.21655 19.4722L11.6207 17.803L13.0764 18.7522L13.6778 20.5889L9.21655 19.4722Z" fill="#FFD700"/>
<path d="M43.7174 20.7346L42.4303 37.6344C42.3795 38.3167 41.7362 38.8481 40.958 38.8499H3.78046C3.00233 38.8481 2.35896 38.3167 2.30817 37.6344L1.02111 20.7346C0.996048 20.3755 1.1403 20.0235 1.42067 19.7614C1.7007 19.4992 2.09146 19.3504 2.5005 19.3499H42.238C42.647 19.3504 43.0378 19.4992 43.3178 19.7614C43.5982 20.0235 43.7425 20.3755 43.7174 20.7346Z" fill="#F7F7F7" fill-opacity="0.19"/>
<path d="M41.6017 20.7346L40.3147 37.6344C40.2639 38.3167 39.6205 38.8481 38.8427 38.8499H3.78046C3.00233 38.8481 2.35896 38.3167 2.30817 37.6344L1.02111 20.7346C0.996048 20.3755 1.1403 20.0235 1.42067 19.7614C1.7007 19.4992 2.09146 19.3504 2.5005 19.3499H40.1223C40.5314 19.3504 40.9225 19.4992 41.2025 19.7614C41.4826 20.0235 41.6271 20.3755 41.6017 20.7346Z" fill="#41F50C"/>
<path d="M16.5847 17.2569L16.1408 19.3499H12.5606L11.7693 18.7586V18.7521L12.2352 16.5485L14.6465 15.801L16.5772 17.2569H16.5847Z" fill="#41F50C"/>
<path d="M27.7322 14.189L27.7396 14.1631L27.8209 14.2086L27.7322 14.189Z" fill="#FFD700"/>
<path d="M23.8487 23.2501C23.8487 23.968 23.1864 24.55 22.3693 24.55C21.5522 24.55 20.8899 23.968 20.8899 23.2501C20.8899 22.5321 21.5522 21.9501 22.3693 21.9501C23.1864 21.9501 23.8487 22.5321 23.8487 23.2501Z" fill="#607D8B"/>
<path d="M17.9312 19.3499V24.5501C17.9312 26.704 19.9181 28.45 22.3693 28.45C24.8206 28.45 26.8075 26.704 26.8075 24.5501V19.3499H17.9312ZM22.3693 24.5501C21.5523 24.5501 20.8899 23.9681 20.8899 23.2501C20.8899 22.5321 21.5523 21.9501 22.3693 21.9501C23.1864 21.9501 23.8487 22.5321 23.8487 23.2501C23.8464 23.9672 23.1854 24.548 22.3693 24.5501Z" fill="#454545"/>
<path d="M19.0703 27.1501H5.95515L5.71101 23.9455C5.69679 23.7655 5.76823 23.5881 5.90842 23.4563C6.04894 23.3242 6.24534 23.2495 6.45088 23.2501H17.9312V24.5501C17.9288 25.5112 18.3351 26.4383 19.0703 27.1501Z" fill="#412A19"/>
<path d="M38.7835 27.15L38.4876 31.05H6.25102L5.95508 27.15H19.0702C19.9086 27.9769 21.109 28.45 22.3693 28.45C23.6296 28.45 24.83 27.9769 25.6684 27.15H38.7835Z" fill="#412A19"/>
<path d="M38.4875 31.0499L38.2359 34.3456C38.2088 34.6865 37.8855 34.9508 37.4964 34.9499H7.24209C6.85303 34.9508 6.52965 34.6865 6.50257 34.3456L6.25098 31.0499H38.4875Z" fill="#412A19"/>
<path d="M39.0277 23.9455L38.7836 27.1501H25.6685C26.4036 26.4383 26.8099 25.5112 26.8075 24.5501V23.2501H38.2878C38.4934 23.2495 38.6898 23.3242 38.8303 23.4563C38.9705 23.5881 39.0419 23.7655 39.0277 23.9455Z" fill="#412A19"/>
<path d="M13.4928 1.15015C10.3931 1.15015 7.671 2.02107 6.08799 3.75011C5.39485 4.50112 4.93366 5.39673 4.74912 6.35007C4.65871 6.77883 4.61401 7.21384 4.61605 7.65005V8.95003H0.917726V8.29989C0.916372 6.40333 1.7734 4.58413 3.29952 3.24309C4.82565 1.90205 6.89592 1.14896 9.05423 1.15015H13.4928Z" fill="#3DCE10"/>
<path d="M43.8206 8.29989V8.95003H40.1223V7.65005C40.1244 7.21384 40.0797 6.77883 39.9893 6.35007C39.8047 5.39673 39.3435 4.50112 38.6504 3.75011C37.0674 2.02107 34.3453 1.15015 31.2456 1.15015H35.6841C37.8424 1.14896 39.9127 1.90205 41.4388 3.24309C42.965 4.58413 43.822 6.40333 43.8206 8.29989Z" fill="#41F50C"/>
<path d="M41.6017 8.29989V8.95003H40.1223V7.65005C40.1244 7.21384 40.0797 6.77883 39.9892 6.35007C39.8047 5.39673 39.3435 4.50112 38.6504 3.75011C37.0674 2.02107 34.3453 1.15015 31.2456 1.15015H33.4649C35.6232 1.14896 37.6935 1.90205 39.2199 3.24309C40.746 4.58413 41.6027 6.40333 41.6017 8.29989Z" fill="#3DCE10"/>
<path d="M40.1224 7.65008V8.95006H4.61628V7.65008C4.61425 7.21387 4.65894 6.77886 4.74935 6.3501H39.9894C40.0798 6.77886 40.1245 7.21387 40.1224 7.65008Z" fill="#412A19"/>
<path d="M39.9893 6.35008H4.74927C4.93381 5.39674 5.395 4.50113 6.08814 3.75012H38.6504C39.3436 4.50113 39.8047 5.39674 39.9893 6.35008Z" fill="#412A19"/>
<path d="M36.801 18.869L33.3983 17.101L32.4739 13.9354L33.0434 14.2279L35.8691 15.6969L36.801 18.869Z" fill="#3DCE10"/>
<path d="M31.3347 13.3439L27.7396 14.163L24.3369 12.395L27.9394 11.5824L30.7722 13.0514L31.3347 13.3439Z" fill="#3DCE10"/>
<path d="M33.3983 17.101L27.8359 14.2151L27.821 14.2085L27.7397 14.163L31.3348 13.3439H31.3419L32.4739 13.9354L33.3983 17.101Z" fill="#41F50C"/>
<path d="M27.7396 14.163L27.7322 14.1889L26.6005 19.3499H25.3873L24.5292 13.656L24.3369 12.395L27.7396 14.163Z" fill="#3DCE10"/>
<path d="M33.3982 17.1011L30.3213 19.3499H26.6006L27.7322 14.189L27.8209 14.2086L27.8358 14.2151L33.3982 17.1011Z" fill="#3DCE10"/>
<path d="M36.801 18.869L35.3957 19.3498H30.3213L33.3983 17.101L36.801 18.869Z" fill="#3DCE10"/>
<path d="M19.8101 16.256L19.1589 19.3499H16.1409L16.5848 17.2569L19.8101 16.256Z" fill="#41F50C"/>
<path d="M19.81 16.256L16.5847 17.2569H16.5773L14.6465 15.801L15.2678 12.85L16.7476 13.9616L19.81 16.256Z" fill="#41F50C"/>
<path d="M15.268 12.85L14.6466 15.801L12.2354 16.5485L9.63892 14.5987L15.268 12.85Z" fill="#3DCE10"/>
<path d="M12.2352 16.5485L11.7693 18.7521L9.84593 19.3499H8.64014L9.15043 16.9189L9.6387 14.5986L12.2352 16.5485Z" fill="#3DCE10"/>
<path d="M40.9573 39.5001H3.78105C2.61386 39.498 1.64712 38.7032 1.56721 37.68L0.285225 20.7799C0.244253 20.2417 0.458933 19.7123 0.878473 19.3181C1.29835 18.9238 1.88483 18.7001 2.49907 18.7001H42.2392C42.8535 18.7001 43.44 18.9238 43.8598 19.3181C44.2794 19.7123 44.4941 20.2417 44.4531 20.7799L43.1711 37.68C43.0912 38.7032 42.1245 39.498 40.9573 39.5001ZM2.49907 20.0001C2.29421 19.9998 2.09815 20.0741 1.95797 20.2054C1.81778 20.3366 1.746 20.5133 1.75954 20.693L3.04119 37.5931C3.06692 37.935 3.39097 38.2007 3.78105 38.2001H40.9573C41.3473 38.201 41.6711 37.9356 41.6971 37.5937L42.9788 20.6936C42.9923 20.5139 42.9205 20.3375 42.7803 20.206C42.6402 20.0747 42.4441 20.0004 42.2392 20.0006L2.49907 20.0001Z" fill="black"/>
<path d="M37.499 35.6001H7.2393C6.45981 35.5995 5.81374 35.0695 5.75956 34.3864L4.9706 23.9865C4.94317 23.6271 5.08708 23.2736 5.36745 23.0109C5.64782 22.7479 6.03993 22.5991 6.44999 22.6H17.931C18.3393 22.6 18.6705 22.891 18.6705 23.2501C18.6705 23.609 18.3393 23.9 17.931 23.9H6.44999L7.2393 34.3001H37.499L38.2883 23.9H26.8074C26.399 23.9 26.0678 23.609 26.0678 23.2501C26.0678 22.891 26.399 22.6 26.8074 22.6H38.2883C38.6987 22.5991 39.0909 22.7482 39.3712 23.0112C39.6516 23.2739 39.7955 23.6274 39.7677 23.9871L38.9788 34.387C38.9243 35.0698 38.2782 35.5998 37.499 35.6001Z" fill="black"/>
<path d="M43.8207 9.59986H0.917846C0.509141 9.59986 0.177979 9.30886 0.177979 8.95002V8.29988C0.183396 3.99409 4.1543 0.504761 9.05435 0.5H35.6842C40.5842 0.504761 44.5551 3.99409 44.5605 8.29988V8.95002C44.5605 9.30886 44.2294 9.59986 43.8207 9.59986ZM1.65737 8.29988H43.0811C43.0767 4.71177 39.7675 1.80385 35.6842 1.79998H9.05435C4.97103 1.80385 1.66178 4.71177 1.65737 8.29988Z" fill="black"/>
<path d="M40.1224 9.59986H4.61624C4.20787 9.59986 3.87671 9.30886 3.87671 8.95002V7.65004C3.87671 3.30676 7.64919 0.5 13.493 0.5H31.2457C37.0895 0.5 40.8619 3.30676 40.8619 7.65004V8.95002C40.8619 9.30886 40.5308 9.59986 40.1224 9.59986ZM5.35611 8.29988H39.3826V7.65004C39.3826 3.33651 35.179 1.79998 31.2457 1.79998H13.493C9.55964 1.79998 5.35611 3.33651 5.35611 7.65004V8.29988Z" fill="black"/>
<path d="M22.3692 29.0999C19.511 29.0972 17.1945 27.0617 17.1912 24.5501V19.3499C17.1912 18.9911 17.5223 18.7001 17.931 18.7001H26.8074C27.2161 18.7001 27.5473 18.9911 27.5473 19.3499V24.5501C27.5439 27.0617 25.2274 29.0972 22.3692 29.0999ZM18.6706 20.0001V24.5501C18.6706 26.3449 20.3267 27.7999 22.3692 27.7999C24.4117 27.7999 26.0679 26.3449 26.0679 24.5501V20.0001H18.6706Z" fill="black"/>
<path d="M22.3692 25.1999C21.1437 25.1999 20.1499 24.3269 20.1499 23.25C20.1499 22.1729 21.1437 21.2999 22.3692 21.2999C23.5946 21.2999 24.5884 22.1729 24.5884 23.25C24.5884 24.3269 23.5946 25.1999 22.3692 25.1999ZM22.3692 22.5999C21.9608 22.5999 21.6293 22.8909 21.6293 23.25C21.6293 23.6089 21.9608 23.8999 22.3692 23.8999C22.7775 23.8999 23.109 23.6089 23.109 23.25C23.109 22.8909 22.7775 22.5999 22.3692 22.5999Z" fill="black"/>
<path d="M39.6118 6.99993H5.12683C4.71813 6.99993 4.38696 6.70893 4.38696 6.35009C4.38696 5.99095 4.71813 5.69995 5.12683 5.69995H39.6118C40.0205 5.69995 40.3516 5.99095 40.3516 6.35009C40.3516 6.70893 40.0205 6.99993 39.6118 6.99993Z" fill="black"/>
<path d="M37.8663 4.39996H6.87244C6.46407 4.39996 6.13257 4.10896 6.13257 3.75011C6.13257 3.39098 6.46407 3.09998 6.87244 3.09998H37.8663C38.2746 3.09998 38.6061 3.39098 38.6061 3.75011C38.6061 4.10896 38.2746 4.39996 37.8663 4.39996Z" fill="black"/>
<path d="M22.3693 26.4999C21.9609 26.4999 21.6294 26.2089 21.6294 25.85V24.55C21.6294 24.1909 21.9609 23.8999 22.3693 23.8999C22.7776 23.8999 23.1091 24.1909 23.1091 24.55V25.85C23.1091 26.2089 22.7776 26.4999 22.3693 26.4999Z" fill="black"/>
<path d="M38.7835 27.7999H25.6683C25.26 27.7999 24.9285 27.5089 24.9285 27.15C24.9285 26.7909 25.26 26.4999 25.6683 26.4999H38.7835C39.1918 26.4999 39.523 26.7909 39.523 27.15C39.523 27.5089 39.1918 27.7999 38.7835 27.7999Z" fill="black"/>
<path d="M19.0702 27.7999H5.9551C5.54674 27.7999 5.21558 27.5089 5.21558 27.15C5.21558 26.7909 5.54674 26.4999 5.9551 26.4999H19.0702C19.4786 26.4999 19.8101 26.7909 19.8101 27.15C19.8101 27.5089 19.4786 27.7999 19.0702 27.7999Z" fill="black"/>
<path d="M38.4876 31.7001H6.2511C5.84273 31.7001 5.51123 31.4091 5.51123 31.05C5.51123 30.6911 5.84273 30.4001 6.2511 30.4001H38.4876C38.896 30.4001 39.2275 30.6911 39.2275 31.05C39.2275 31.4091 38.896 31.7001 38.4876 31.7001Z" fill="black"/>
<path d="M27.8303 14.865C27.7463 14.865 27.663 14.8522 27.5841 14.8272L27.5567 14.8215C27.3 14.7665 27.0958 14.5951 27.0217 14.3722C26.9475 14.1491 27.0142 13.9083 27.1971 13.7402C27.3796 13.5724 27.6505 13.5028 27.9075 13.5578L27.9563 13.5688C28.0281 13.5843 28.0978 13.606 28.1649 13.634C28.5282 13.8009 28.6704 14.194 28.4835 14.5147C28.3568 14.729 28.1053 14.8641 27.8303 14.865Z" fill="black"/>
<path d="M38.6429 20C38.5409 20.0003 38.44 19.9816 38.3469 19.9453C38.1671 19.8765 38.0259 19.7474 37.9541 19.587C37.8827 19.4264 37.8867 19.2472 37.9653 19.0892L43.143 8.6894C43.3144 8.37192 43.7413 8.23148 44.1077 8.37192C44.4741 8.51266 44.6468 8.8834 44.4981 9.20951L39.3204 19.6093C39.2029 19.8465 38.9368 19.9997 38.6429 20Z" fill="black"/>
<path d="M6.09555 20C5.8013 20 5.53515 19.8471 5.41731 19.61L0.239258 9.21012C0.0906074 8.88401 0.263638 8.51327 0.630016 8.37253C0.996395 8.23209 1.42338 8.37253 1.59438 8.69001L6.77244 19.0901C6.93565 19.4186 6.76533 19.8016 6.3915 19.9453C6.29838 19.9816 6.19748 20.0003 6.09555 20Z" fill="black"/>
<path d="M36.7996 19.5165C36.6672 19.5162 36.5375 19.4853 36.4237 19.4261L23.9618 12.9574C23.7041 12.8235 23.5633 12.5664 23.6056 12.3061C23.6476 12.0454 23.8643 11.833 24.1541 11.7678L27.758 10.9534C27.9479 10.9097 28.1501 10.9347 28.3187 11.0228L31.1407 12.4879L31.1512 12.4938L36.2494 15.1399C36.4183 15.2277 36.5406 15.3708 36.5893 15.5377L37.5164 18.7045C37.5733 18.8991 37.5246 19.1062 37.3844 19.2648C37.2442 19.4237 37.0282 19.5165 36.7996 19.5165ZM26.2522 12.6361L35.6382 17.5111L35.2328 16.1248L32.6801 14.8001L32.6638 14.7915L27.8298 12.282L26.2522 12.6361Z" fill="black"/>
<path d="M30.3219 20C30.0101 20.0006 29.7314 19.8292 29.6251 19.5715C29.5188 19.3138 29.6078 19.0252 29.8479 18.8502L32.5656 16.8644L31.8332 14.3567L31.0195 13.9315C30.9988 13.9232 30.9782 13.9134 30.9572 13.9029L27.5636 12.1421C27.2115 11.9597 27.0946 11.5613 27.3022 11.2518C27.5094 10.9427 27.9632 10.8397 28.315 11.0221L31.6557 12.755C31.6778 12.7642 31.6994 12.7746 31.7201 12.7851L32.8517 13.3772C33.0197 13.4647 33.1416 13.6072 33.1907 13.7735L34.1151 16.9397C34.1862 17.1828 34.0914 17.4402 33.8716 17.6009L30.7947 19.8497C30.6619 19.9467 30.4946 20 30.3219 20Z" fill="black"/>
<path d="M26.6012 20C26.5538 20 26.5064 19.9962 26.4596 19.9884C26.059 19.9203 25.7966 19.5796 25.8738 19.2273L27.0133 14.0402C27.0671 13.7938 27.2774 13.5968 27.5537 13.5338L31.1487 12.7149C31.3424 12.6721 31.5473 12.6971 31.72 12.7851L36.2455 15.1375C36.597 15.3202 36.7138 15.7189 36.5059 16.0278C36.298 16.3369 35.8443 16.4393 35.4924 16.2566L31.2273 14.0402L28.3772 14.6903L27.3251 19.4728C27.2584 19.7781 26.955 19.9991 26.6012 20Z" fill="black"/>
<path d="M25.3867 20C25.0159 19.9994 24.7027 19.7581 24.6542 19.4353L23.6039 12.4801C23.5612 12.1296 23.8443 11.8127 24.2421 11.7666C24.64 11.7202 25.0071 11.9609 25.0701 12.3093L26.1204 19.2642C26.1485 19.4501 26.0839 19.6373 25.9433 19.7783C25.8028 19.9194 25.6 20 25.3867 20Z" fill="black"/>
<path d="M35.3957 20.0001C35.0395 20.0004 34.7341 19.7775 34.668 19.4701C34.6024 19.1628 34.7954 18.8578 35.1272 18.7441L36.5324 18.2633C36.9113 18.1383 37.3343 18.3043 37.4812 18.6355C37.6285 18.967 37.4453 19.3407 37.0702 19.4743L35.6649 19.9557C35.5789 19.9849 35.4878 20.0001 35.3957 20.0001Z" fill="black"/>
<path d="M19.1595 20C19.1145 20.0003 19.0694 19.9964 19.0251 19.989C18.6238 19.9232 18.359 19.5843 18.4332 19.2317L19.0064 16.5068L15.1134 13.5879L10.2899 15.0828L9.36955 19.4644C9.32181 19.6929 9.13896 19.8813 8.88974 19.9592C8.64086 20.0369 8.36354 19.9923 8.1624 19.8414C7.96127 19.6909 7.86679 19.4576 7.91454 19.2291L8.91311 14.477C8.96119 14.2484 9.14472 14.0598 9.39393 13.9824L15.023 12.2337C15.2722 12.1564 15.5496 12.2019 15.7504 12.3528L20.2905 15.7582C20.4919 15.9087 20.5864 16.1426 20.5383 16.3711L19.8882 19.465C19.8249 19.7748 19.5177 20.0003 19.1595 20Z" fill="black"/>
<path d="M16.1414 20C16.096 20 16.0503 19.9964 16.0053 19.989C15.604 19.9232 15.3389 19.584 15.4137 19.2311L15.7784 17.5104L14.489 16.5354L12.8846 17.0334L12.5731 18.5051L13.04 18.8532C13.3512 19.0868 13.3885 19.4977 13.1227 19.7712C12.8572 20.0446 12.3896 20.0773 12.0784 19.8441L11.286 19.2525C11.1208 19.1291 11.0256 18.9479 11.0256 18.7571C11.026 18.7152 11.03 18.6732 11.0382 18.6319L11.5034 16.4282C11.5522 16.1997 11.7357 16.0114 11.9853 15.9343L14.3965 15.1869C14.6461 15.1092 14.9237 15.155 15.1245 15.3062L17.0167 16.7362C17.0648 16.7671 17.1085 16.8031 17.146 16.8436C17.2879 16.9915 17.3472 17.1876 17.3079 17.378L16.8643 19.4709C16.7983 19.7765 16.4956 19.9982 16.1414 20Z" fill="black"/>
<path d="M12.0778 17.2376C11.8912 17.2376 11.7114 17.176 11.5746 17.0648L9.13357 15.0777C8.8339 14.8335 8.81629 14.4222 9.09395 14.1589C9.37195 13.8956 9.83991 13.8798 10.1396 14.1241L12.5806 16.1111C12.8038 16.2929 12.8773 16.5762 12.7662 16.8249C12.6551 17.0737 12.3819 17.2376 12.0778 17.2376Z" fill="black"/>
<path d="M9.846 20C9.48538 20.0003 9.17724 19.7724 9.11595 19.4603C9.055 19.1478 9.25885 18.8426 9.59881 18.7369L11.5221 18.1392C11.9041 18.0294 12.3158 18.2079 12.4496 18.5411C12.583 18.8741 12.3893 19.2401 12.0135 19.365L10.0901 19.9628C10.0116 19.9872 9.92896 19.9997 9.846 20Z" fill="black"/>
<path d="M16.5765 17.9077C16.2155 17.9083 15.9067 17.6798 15.8458 17.367C15.7852 17.0543 15.99 16.7487 16.331 16.644L19.5621 15.6451C19.944 15.5353 20.3558 15.7139 20.4892 16.0471C20.6226 16.3801 20.4289 16.7461 20.053 16.871L16.8213 17.8705C16.7428 17.8949 16.6598 17.9074 16.5765 17.9077Z" fill="black"/>
<path d="M14.8693 16.3729C14.8388 16.3729 14.8087 16.3729 14.7776 16.3684C14.5829 16.3473 14.4058 16.2589 14.2852 16.1226C14.1647 15.9866 14.1105 15.8141 14.1349 15.643L14.5334 12.772C14.5825 12.4152 14.9513 12.1611 15.3573 12.2042C15.7629 12.2474 16.0524 12.5714 16.0033 12.9279L15.6031 15.8022C15.5577 16.128 15.2428 16.3729 14.8693 16.3729Z" fill="black"/>
<path d="M22.562 29.0511L26.2334 27.1154L24.7648 21.9535L22.562 19.3726L20.3591 21.9535L18.8905 27.1154L22.562 29.0511Z" fill="#41F50C"/>
<path d="M20.003 21.8716C20.0148 21.8299 20.0361 21.7907 20.0655 21.7563L22.2684 19.1754C22.304 19.1373 22.3489 19.1066 22.3996 19.0855C22.4504 19.0644 22.5059 19.0535 22.562 19.0535C22.6182 19.0535 22.6736 19.0644 22.7244 19.0855C22.7752 19.1066 22.82 19.1373 22.8557 19.1754L25.0585 21.7563C25.0879 21.7907 25.1092 21.8299 25.1211 21.8716L26.5897 27.0337C26.6087 27.1007 26.6027 27.1714 26.5726 27.2353C26.5425 27.2992 26.4899 27.3528 26.4224 27.3884L22.751 29.3241C22.6939 29.3542 22.6286 29.3701 22.562 29.3701C22.4955 29.3701 22.4301 29.3542 22.3731 29.3241L18.7016 27.3884C18.6342 27.3528 18.5815 27.2992 18.5514 27.2353C18.5213 27.1714 18.5153 27.1007 18.5344 27.0337L20.003 21.8716ZM22.1949 20.3368L20.7641 22.0133L21.2256 23.3651L22.1949 21.5552V20.3368ZM22.9292 21.5552L23.8984 23.3651L24.3599 22.0133L22.9292 20.3368V21.5552ZM22.562 22.385L21.5416 24.2904L22.3947 26.7892H22.7294L23.5825 24.2904L22.562 22.385ZM21.0733 25.1647L20.2034 26.7892H21.628L21.0733 25.1647ZM23.4961 26.7892H24.9207L24.0507 25.1647L23.4961 26.7892ZM23.2758 27.4344L22.9175 28.4839L24.9078 27.4344H23.2758ZM21.8482 27.4344H20.2162L22.2065 28.4839L21.8482 27.4344ZM19.3256 26.913L20.7575 24.2393L20.3914 23.1671L19.3256 26.913ZM24.7327 23.1671L24.3666 24.2393L25.7985 26.913L24.7327 23.1671Z" fill="black"/>
</g>
<defs>
<clipPath id="clip0_16874_18306">
<rect width="44.3826" height="39" fill="white" transform="translate(0.177979 0.5)"/>
</clipPath>
</defs>
</svg>
