<svg width="62" height="63" viewBox="0 0 62 63" fill="none" xmlns="http://www.w3.org/2000/svg">
<path d="M53.6674 31.1946C53.7782 33.4089 53.1081 34.9733 52.0787 35.7659H52.073L51.8165 35.943C51.5055 36.1577 51.1427 36.2843 50.7663 36.3096C50.3976 36.3344 50.029 36.2612 49.6977 36.0975C49.0129 35.6964 48.4275 34.6235 48.4275 32.6563V26.1843C48.4275 22.8814 47.1049 20.0902 44.4269 19.3072C42.1866 18.6504 40.3116 19.7433 39.0006 20.9798C37.7347 22.1738 36.7964 23.6795 36.2908 24.4909C36.2708 24.523 36.2515 24.5539 36.2329 24.5837L36.23 24.5884L31.9416 31.5443V22.9179V22.9058L31.9413 22.8936C31.8696 19.9465 30.8864 17.664 28.5242 16.9751C27.7849 16.758 26.8399 16.6912 25.8177 17.099C24.8024 17.504 23.8143 18.3358 22.9041 19.7269L22.8977 19.7366L22.8916 19.7465L10.1325 40.272C8.88486 37.3519 8.24338 34.2008 8.25502 31.0116V31.0079C8.25502 18.2335 18.4368 7.87466 30.9416 7.87466C43.4486 7.87466 53.6662 18.2356 53.6662 31.0079V31.0763V31.0763V31.0763V31.0764V31.0764V31.0765V31.0765V31.0765V31.0766V31.0766V31.0767V31.0767V31.0768V31.0768V31.0768V31.0769V31.0769V31.0769V31.077V31.077V31.077V31.0771V31.0771V31.0772V31.0772V31.0773V31.0773V31.0773V31.0774V31.0774V31.0775V31.0775V31.0776V31.0776V31.0777V31.0777V31.0778V31.0778V31.0779V31.0779V31.078V31.0781V31.0781V31.0782V31.0782V31.0783V31.0784V31.0784V31.0785V31.0785V31.0786V31.0787V31.0787V31.0788V31.0789V31.0789V31.079V31.0791V31.0791V31.0792V31.0793V31.0794V31.0794V31.0795V31.0796V31.0797V31.0797V31.0798V31.0799V31.08V31.0801V31.0801V31.0802V31.0803V31.0804V31.0805V31.0806V31.0806V31.0807V31.0808V31.0809V31.081V31.0811V31.0812V31.0813V31.0814V31.0814V31.0815V31.0816V31.0817V31.0818V31.0819V31.082V31.0821V31.0822V31.0823V31.0824V31.0825V31.0826V31.0827V31.0828V31.0829V31.083V31.0831V31.0832V31.0833V31.0834V31.0835V31.0837V31.0838V31.0839V31.084V31.0841V31.0842V31.0843V31.0844V31.0845V31.0847V31.0848V31.0849V31.085V31.0851V31.0852V31.0853V31.0855V31.0856V31.0857V31.0858V31.0859V31.0861V31.0862V31.0863V31.0864V31.0865V31.0867V31.0868V31.0869V31.087V31.0872V31.0873V31.0874V31.0876V31.0877V31.0878V31.0879V31.0881V31.0882V31.0883V31.0885V31.0886V31.0887V31.0889V31.089V31.0891V31.0893V31.0894V31.0895V31.0897V31.0898V31.0899V31.0901V31.0902V31.0904V31.0905V31.0906V31.0908V31.0909V31.0911V31.0912V31.0913V31.0915V31.0916V31.0918V31.0919V31.0921V31.0922V31.0923V31.0925V31.0926V31.0928V31.0929V31.0931V31.0932V31.0934V31.0935V31.0937V31.0938V31.094V31.0941V31.0943V31.0944V31.0946V31.0947V31.0949V31.095V31.0952V31.0953V31.0955V31.0956V31.0958V31.096V31.0961V31.0963V31.0964V31.0966V31.0967V31.0969V31.097V31.0972V31.0974V31.0975V31.0977V31.0978V31.098V31.0982V31.0983V31.0985V31.0986V31.0988V31.099V31.0991V31.0993V31.0995V31.0996V31.0998V31.0999V31.1001V31.1003V31.1004V31.1006V31.1008V31.1009V31.1011V31.1013V31.1014V31.1016V31.1018V31.1019V31.1021V31.1023V31.1024V31.1026V31.1028V31.1029V31.1031V31.1033V31.1034V31.1036V31.1038V31.1039V31.1041V31.1043V31.1045V31.1046V31.1048V31.105V31.1051V31.1053V31.1055V31.1057V31.1058V31.106V31.1062V31.1063V31.1065V31.1067V31.1069V31.107V31.1072V31.1074V31.1076V31.1077V31.1079V31.1081V31.1083V31.1084V31.1086V31.1088V31.109V31.1091V31.1093V31.1095V31.1097V31.1098V31.11V31.1102V31.1104V31.1105V31.1107V31.1109V31.1111V31.1112V31.1114V31.1116V31.1118V31.1119V31.1121V31.1123V31.1125V31.1127V31.1128V31.113V31.1132V31.1134V31.1135V31.1137V31.1139V31.1141V31.1142V31.1144V31.1146V31.1148V31.115V31.1151V31.1153V31.1155V31.1157V31.1159V31.116V31.1162V31.1164V31.1166V31.1167V31.1169V31.1171V31.1173V31.1175V31.1176V31.1178V31.118V31.1182V31.1183V31.1185V31.1187V31.1189V31.1191V31.1192V31.1194V31.1196V31.1198V31.1199V31.1201V31.1203V31.1205V31.1207V31.1208V31.121V31.1212V31.1214V31.1215V31.1217V31.1219V31.1221V31.1222V31.1224V31.1226V31.1228V31.1229V31.1231V31.1233V31.1235V31.1237V31.1238V31.124V31.1242V31.1244V31.1245V31.1247V31.1249V31.1251V31.1252V31.1254V31.1256V31.1258V31.1259V31.1261V31.1263V31.1264V31.1266V31.1268V31.127V31.1271V31.1273V31.1275V31.1277V31.1278V31.128V31.1282V31.1283V31.1285V31.1287V31.1289V31.129V31.1292V31.1294V31.1295V31.1297V31.1299V31.1301V31.1302V31.1304V31.1306V31.1307V31.1309V31.1311V31.1312V31.1314V31.1316V31.1317V31.1319V31.1321V31.1322V31.1324V31.1326V31.1327V31.1329V31.1331V31.1332V31.1334V31.1335V31.1337V31.1339V31.134V31.1342V31.1344V31.1345V31.1347V31.1348V31.135V31.1352V31.1353V31.1355V31.1357V31.1358V31.136V31.1361V31.1363V31.1364V31.1366V31.1368V31.1369V31.1371V31.1372V31.1374V31.1375V31.1377V31.1379V31.138V31.1382V31.1383V31.1385V31.1386V31.1388V31.1389V31.1391V31.1392V31.1394V31.1395V31.1397V31.1398V31.14V31.1401V31.1403V31.1404V31.1406V31.1407V31.1409V31.141V31.1412V31.1413V31.1414V31.1416V31.1417V31.1419V31.142V31.1422V31.1423V31.1425V31.1426V31.1427V31.1429V31.143V31.1432V31.1433V31.1434V31.1436V31.1437V31.1438V31.144V31.1441V31.1442V31.1444V31.1445V31.1447V31.1697L53.6674 31.1946ZM60.943 32.0155H60.9644V31.0155L60.9644 30.8864L60.9644 30.8798C60.8548 14.1302 47.4494 0.511719 30.9416 0.511719C14.4341 0.511719 0.949219 14.2074 0.949219 31.0079C0.949219 47.8071 14.3872 61.5117 30.9416 61.5117C38.5294 61.5114 45.8281 58.5968 51.3364 53.3682C52.0437 52.6998 52.4596 51.7796 52.4945 50.8069C52.5294 49.8351 52.1814 48.8882 51.525 48.1709C51.2074 47.8197 50.8237 47.5345 50.3958 47.3318C49.9666 47.1286 49.5015 47.0123 49.0271 46.9898C48.5528 46.9673 48.0787 47.039 47.6322 47.2008C47.1857 47.3626 46.7757 47.6112 46.4257 47.9322L46.4191 47.9383L46.4126 47.9444C44.2186 50.0301 41.6269 51.6499 38.7929 52.7066C35.959 53.7633 32.9413 54.2351 29.921 54.0939C26.9007 53.9526 23.9399 53.2011 21.2165 51.8845C18.7137 50.6746 16.4588 49.0103 14.5649 46.9779L24.6737 30.6939V36.3709C24.6737 38.6973 25.1221 40.3617 25.8595 41.5319C26.6096 42.7225 27.6084 43.3209 28.5318 43.5902C29.4541 43.8592 30.6173 43.8926 31.8807 43.2856C33.1218 42.6892 34.3716 41.5174 35.5831 39.5461C35.5832 39.5459 35.5834 39.5457 35.5835 39.5455L41.152 30.511V32.6563C41.152 37.0382 42.918 40.727 46.2103 42.5754L46.2171 42.5792L46.224 42.583C47.6987 43.3808 49.3605 43.7663 51.0353 43.6989C52.71 43.6315 54.3356 43.1138 55.7416 42.2001L55.7426 42.1995C59.02 40.0645 60.8474 36.3662 60.943 32.0155Z" fill="white" stroke="black" stroke-width="2"/>
</svg>
