<svg width="62" height="63" viewBox="0 0 62 63" fill="none" xmlns="http://www.w3.org/2000/svg">
<g clip-path="url(#clip0_16874_18792)">
<path d="M32.714 13.5036L33.1857 13.8037L33.6884 13.5592L42.1064 9.46392L43.8922 8.59514L42.1309 7.67777L31.2102 1.98992L30.753 1.75179L30.2938 1.98607L19.1456 7.67392L17.4066 8.56114L19.1427 9.45397L27.1057 13.5492L27.5567 13.7812L28.0103 13.5544L30.689 12.215L32.714 13.5036ZM5.51231 14.0356L4.94922 14.3091V14.9351V34.2738V35.9125L6.40657 35.1631L14.3696 31.0678L14.9122 30.7887V30.1785V21.0594L24.6355 25.6234L25.0742 25.8293L25.5076 25.6126L33.6981 21.5174L35.4976 20.6176L33.6939 19.7264L14.3552 10.1708L13.916 9.95378L13.4753 10.1678L5.51231 14.0356ZM47.5563 10.6181L47.1293 10.4165L46.7023 10.6181L38.5117 14.4859L36.6238 15.3774L38.5018 16.2896L44.6294 19.2658L5.50599 38.6102L4.94922 38.8855V39.5066V47.9246V48.5506L5.51231 48.8241L13.4753 52.6919L13.9122 52.9041L14.3491 52.6919L22.3121 48.8241L24.1114 47.9502L22.3325 47.0353L16.1328 43.8469L55.763 24.2495L56.3198 23.9742V23.3531V15.3901V14.7564L55.7468 14.4859L47.5563 10.6181ZM55.7468 48.8289L56.3198 48.5583V47.9246V29.0409V27.4628L54.8928 28.1367L46.7023 32.0044L46.1424 32.2688L46.1295 32.8879L45.9349 42.2279L36.4283 37.4746L35.9747 37.2478L35.5237 37.4797L27.5607 41.575L25.7861 42.4876L27.5794 43.3629L46.6906 52.691L47.1221 52.9016L47.5563 52.6966L55.7468 48.8289ZM41.6453 55.6522L43.4636 54.7825L41.6712 53.8607L33.7083 49.7655L33.2573 49.5336L32.8037 49.7603L30.5034 50.9105L27.9821 49.7468L27.5394 49.5425L27.1057 49.7655L19.1427 53.8607L17.2947 54.8111L19.1905 55.6623L30.3387 60.6676L30.7615 60.8575L31.1797 60.6575L41.6453 55.6522Z" fill="#00A3BF" stroke="black" stroke-width="2"/>
</g>
<defs>
<clipPath id="clip0_16874_18792">
<rect width="62" height="62" fill="white" transform="translate(0 0.678955)"/>
</clipPath>
</defs>
</svg>
