<svg width="62" height="63" viewBox="0 0 62 63" fill="none" xmlns="http://www.w3.org/2000/svg">
<g clip-path="url(#clip0_16874_18767)">
<path d="M52.0099 37.3936L47.0671 34.6091L44.2761 46.5713L56.149 58.5334L61.0919 61.3181L52.0099 37.3936Z" fill="#41F50C"/>
<path d="M41.505 31.4757L36.5098 42.1586L46.046 52.8415L56.149 58.5334L47.0671 34.6091L41.505 31.4757Z" fill="#41F50C"/>
<path d="M41.5049 31.4757L46.0459 52.8415L31 61.3181L23.7344 49.3558L31 37.3936L41.5049 31.4757Z" fill="#17B208"/>
<path d="M31.0001 37.3936V61.3181L15.9542 52.8415L10.9617 42.1586L20.4953 31.4757L31.0001 37.3936Z" fill="#41F50C"/>
<path d="M20.4951 31.4757L15.9541 52.8415L0.908203 61.3181L9.99023 37.3936L20.4951 31.4757Z" fill="#0E750E"/>
<path d="M31 1.13452V46.5447C31.6471 46.5447 32.2136 46.2052 32.5353 45.6958C32.5375 45.6958 44.8379 26.19 44.8379 26.19C46.4267 23.6687 47.3477 20.6832 47.3477 17.4822C47.3477 8.45367 40.0285 1.13452 31 1.13452Z" fill="#C74520"/>
<path d="M32.1941 45.6958C32.1958 45.6958 41.7628 26.19 41.7628 26.19C42.9986 23.6687 43.7148 20.6832 43.7148 17.4822C43.7148 8.45367 38.0222 1.13452 31 1.13452C21.9714 1.13452 14.6523 8.45367 14.6523 17.4822C14.6523 20.6832 15.5731 23.6689 17.1632 26.19C17.162 26.19 29.4624 45.6958 29.4624 45.6958C29.7863 46.2052 30.3529 46.5447 30.9999 46.5447C31.5033 46.5447 31.9438 46.2052 32.1941 45.6958Z" fill="#FF7D4A"/>
<path d="M31 26.5642C36.0159 26.5642 40.082 22.498 40.082 17.4822C40.082 12.4663 36.0159 8.40015 31 8.40015C25.9841 8.40015 21.918 12.4663 21.918 17.4822C21.918 22.498 25.9841 26.5642 31 26.5642Z" fill="white" fill-opacity="0.5"/>
<path d="M31 12.033V22.9314C34.0095 22.9314 36.4492 20.4917 36.4492 17.4822C36.4492 14.4726 34.0094 12.033 31 12.033Z" fill="#FF7D4A"/>
<path d="M32.8164 17.4822C32.8164 14.4726 32.0032 12.033 31 12.033C27.9905 12.033 25.5508 14.4726 25.5508 17.4822C25.5508 20.4917 27.9905 22.9314 31 22.9314C32.0032 22.9314 32.8164 20.4917 32.8164 17.4822Z" fill="#FF9A6B"/>
<path d="M61.9408 60.9956L52.8587 37.0712C52.7833 36.8725 52.6405 36.7066 52.4555 36.6023L42.7818 31.1524L45.6061 26.6743C47.3394 23.9238 48.2557 20.7452 48.2557 17.4823C48.2557 7.96734 40.5148 0.22644 30.9999 0.22644C21.485 0.22644 13.7441 7.96734 13.7441 17.4823C13.7441 20.7461 14.6608 23.9248 16.3951 26.6746C16.4414 26.7483 19.2186 31.1526 19.2186 31.1526L9.54456 36.6023C9.35941 36.7066 9.21664 36.8725 9.1412 37.0712L0.0591797 60.9956C-0.0765661 61.3531 0.0262423 61.7573 0.316019 62.0066C0.606159 62.2561 1.0209 62.2971 1.35403 62.1093L15.954 53.8839L30.554 62.1093C30.8307 62.2652 31.169 62.2652 31.4457 62.1093L46.0457 53.8839L60.6457 62.1093C60.7849 62.1878 60.9386 62.2263 61.0914 62.2263C61.3041 62.2263 61.515 62.1518 61.6838 62.0068C61.9738 61.7573 62.0765 61.3531 61.9408 60.9956ZM31.9082 47.2968C32.4764 47.0963 32.969 46.71 33.3034 46.1807C33.3495 46.108 41.0811 33.8493 41.0811 33.8493L45.0189 52.3775L31.9082 59.7638V47.2968ZM17.9315 25.7055C16.3804 23.2461 15.5606 20.4026 15.5606 17.4821C15.5606 8.96878 22.4867 2.04272 31 2.04272C39.5134 2.04272 46.4395 8.96878 46.4395 17.4821C46.4395 20.4019 45.6199 23.2457 44.0698 25.7055C43.9486 25.8977 31.9819 44.8745 31.7731 45.2023C31.7712 45.205 31.7695 45.208 31.7676 45.2107C31.5992 45.4771 31.3123 45.6364 31 45.6364C30.6875 45.6364 30.3993 45.4764 30.2306 45.2112C30.1093 45.0188 18.1187 26.0045 17.9356 25.7121C17.9343 25.71 17.9328 25.7078 17.9315 25.7055ZM10.7226 38.0234L19.1889 33.2538L17.714 40.193C17.6098 40.6837 17.9229 41.1659 18.4134 41.2702C18.4771 41.2838 18.5407 41.2903 18.6032 41.2903C19.0228 41.2903 19.3999 40.9977 19.4906 40.5708L20.9191 33.8499L28.6959 46.1831C29.0314 46.711 29.5244 47.0964 30.0916 47.2967V59.764L16.9812 52.3777L18.7354 44.124C18.8397 43.6334 18.5266 43.1512 18.036 43.0468C17.5448 42.9419 17.063 43.2558 16.9588 43.7462L15.1509 52.2514L2.64731 59.2958L10.7226 38.0234ZM46.849 52.2515L42.8114 33.2537L51.2774 38.0234L59.3528 59.2958L46.849 52.2515Z" fill="black"/>
<path d="M40.9902 17.4822C40.9902 11.9736 36.5086 7.49194 31 7.49194C25.4914 7.49194 21.0098 11.9736 21.0098 17.4822C21.0098 22.9907 25.4914 27.4724 31 27.4724C36.5086 27.4724 40.9902 22.9907 40.9902 17.4822ZM22.8262 17.4822C22.8262 12.9751 26.4929 9.30835 31 9.30835C35.5071 9.30835 39.1738 12.9751 39.1738 17.4822C39.1738 21.9893 35.5071 25.656 31 25.656C26.4929 25.656 22.8262 21.9893 22.8262 17.4822Z" fill="black"/>
<path d="M37.3574 17.4822C37.3574 13.9768 34.5054 11.1248 31 11.1248C27.4946 11.1248 24.6426 13.9768 24.6426 17.4822C24.6426 20.9876 27.4946 23.8396 31 23.8396C34.5054 23.8396 37.3574 20.9876 37.3574 17.4822ZM26.459 17.4822C26.459 14.9782 28.496 12.9412 31 12.9412C33.504 12.9412 35.541 14.9782 35.541 17.4822C35.541 19.9861 33.504 22.0232 31 22.0232C28.496 22.0232 26.459 19.9861 26.459 17.4822Z" fill="black"/>
</g>
<defs>
<clipPath id="clip0_16874_18767">
<rect width="62" height="62" fill="white" transform="translate(0 0.226318)"/>
</clipPath>
</defs>
</svg>
