<svg width="62" height="63" viewBox="0 0 62 63" fill="none" xmlns="http://www.w3.org/2000/svg">
<circle cx="31.0002" cy="30.9827" r="28.9084" stroke="black" stroke-width="2"/>
<ellipse cx="31.0002" cy="30.9827" rx="25.8986" ry="25.8248" fill="#F7E995"/>
<path fill-rule="evenodd" clip-rule="evenodd" d="M9.52001 46.3487C9.42936 46.1677 9.34299 45.988 9.26088 45.8099C9.64368 46.4606 10.6215 46.1544 10.8512 45.8099C12.6695 41.8479 13.3777 37.2544 13.6073 33.5604C13.837 29.8664 14.2389 24.9475 16.3635 22.9952C22.037 18.2105 26.1409 18.4339 28.2873 18.5506L28.3641 18.5548C28.571 18.566 28.7596 18.5766 28.9338 18.5865C30.5484 18.6776 30.9298 18.6991 33.2447 18.44C35.0056 18.44 36.1221 19.1162 36.4602 19.4544C36.7067 19.7582 36.8894 20.0013 37.042 20.2044C37.3989 20.6794 37.5911 20.9351 38.0488 21.2344C38.6899 21.6535 39.5375 21.9218 40.8781 22.3462C41.6186 22.5806 42.5096 22.8627 43.5994 23.2441C46.6617 24.3159 48.2695 25.0049 49.8772 27.2251C51.1634 29.3688 49.3413 32.1504 48.2695 33.2733C39.4181 38.6825 32.3072 36.0343 31.1951 35.6201C31.0952 35.5829 31.0437 35.5638 31.0437 35.5701C34.4735 39.9799 43.1911 36.795 47.1211 34.6514C34.4123 46.5946 34.456 52.9831 34.9664 56.9386C34.152 57.1061 33.3584 57.2406 32.5856 57.3443C46.4324 56.5245 57.4086 45.0354 57.4086 30.9827C57.4086 16.3978 45.5852 4.57434 31.0002 4.57434C16.4152 4.57434 4.5918 16.3978 4.5918 30.9827C4.5918 36.7146 6.41788 42.0199 9.52001 46.3487ZM58.9086 30.9827C58.9086 46.3961 46.4136 58.8911 31.0002 58.8911C15.5868 58.8911 3.0918 46.3961 3.0918 30.9827C3.0918 15.5694 15.5868 3.07434 31.0002 3.07434C46.4136 3.07434 58.9086 15.5694 58.9086 30.9827ZM27.4001 30.1724C30.1948 30.1724 32.4604 27.9068 32.4604 25.1121C32.4604 22.3174 30.1948 20.0518 27.4001 20.0518C24.6054 20.0518 22.3398 22.3174 22.3398 25.1121C22.3398 27.9068 24.6054 30.1724 27.4001 30.1724ZM30.9793 25.1125C30.9793 27.0892 29.3769 28.6916 27.4001 28.6916C25.4234 28.6916 23.821 27.0892 23.821 25.1125C23.821 23.1358 25.4234 21.5333 27.4001 21.5333C29.3769 21.5333 30.9793 23.1358 30.9793 25.1125Z" fill="#97C355"/>
<circle cx="27.3282" cy="25.1925" r="3.67216" fill="#58595B"/>
</svg>
